<svg width="70" height="60" viewBox="0 0 70 60" fill="none" xmlns="http://www.w3.org/2000/svg">
<path d="M19.2802 11.1117C18.4231 11.484 17.6203 11.9765 16.8946 12.5753C13.8936 15.1178 18.7698 17.8867 20.5135 19.4372C23.7421 22.3098 27.1245 24.9944 30.6448 27.4782C32.9365 29.0955 35.2832 30.6434 37.6907 32.0709C39.6253 33.2186 41.5217 34.863 43.7339 35.406C44.3174 35.5494 44.9598 35.6408 45.4939 35.3597C46.0932 35.0444 46.3983 34.3386 46.5297 33.6593C47.5718 28.3067 46.1619 22.666 43.1084 18.2501C37.9114 10.7352 27.5118 7.42668 19.2802 11.1117Z" fill="#A64826"/>
<path d="M35.9893 23.5235C34.0342 21.8991 32.9828 21.0184 30.6584 19.5979C28.0497 18.0017 26.3578 16.7003 21.2846 15.633C20.9794 15.5687 20.4203 15.4305 19.7234 15.2761C19.4945 14.3168 20.0118 13.4477 20.7768 12.7439C21.8565 12.614 22.9427 12.5496 24.0298 12.5509C24.2344 12.5509 24.4438 12.5535 24.6603 12.5574C30.4941 12.6783 34.0642 15.2003 36.9281 17.1752C37.5353 17.5969 38.1113 18.0644 38.6513 18.5738C38.7889 19.203 38.8168 19.8523 38.7338 20.4916C38.7075 20.6924 38.6665 20.8909 38.6112 21.0854C37.7254 21.8842 36.8515 22.6968 35.9893 23.5235Z" fill="#BB5B32"/>
<path d="M35.4091 24.0832C35.2165 23.8914 35.0199 23.7038 34.8193 23.5202C34.9807 23.5505 35.1451 23.5741 35.3128 23.5909C35.4129 23.6007 35.5111 23.6064 35.608 23.6064C35.7127 23.6064 35.8173 23.6006 35.9213 23.5889C35.7508 23.7532 35.5794 23.9178 35.4091 24.0832ZM25.6244 18.7229C24.4546 18.4765 23.266 18.3359 22.0724 18.3027C20.4832 17.6004 18.8382 17.0399 17.1556 16.6275C16.5552 16.0028 16.0942 15.3409 15.9723 14.6666C17.2349 14.7844 18.4886 14.9879 19.7251 15.2759C19.7942 15.5505 19.9096 15.8105 20.066 16.044C20.9967 17.471 22.1282 17.6896 23.6368 18.1034C24.31 18.2881 24.9726 18.4946 25.6244 18.723V18.7229Z" fill="#9A3E20"/>
<path d="M35.6082 23.606C35.5113 23.606 35.4131 23.6009 35.313 23.5906C35.1453 23.5739 34.9809 23.5503 34.8195 23.5199C33.3866 22.2086 31.7831 21.1089 30.0553 20.2524C28.6451 19.5573 27.1569 19.0434 25.6245 18.7226C24.9715 18.493 24.3087 18.2865 23.6361 18.103C22.1275 17.6894 20.996 17.47 20.0653 16.0436C19.9089 15.8101 19.7935 15.5501 19.7244 15.2755C20.4206 15.4299 20.9797 15.5689 21.2855 15.6326C26.3593 16.6999 28.0506 18.0014 30.6594 19.5975C32.9835 21.018 34.0351 21.898 35.9903 23.5231C35.9677 23.545 35.9452 23.5662 35.9221 23.5881C35.8179 23.6 35.7131 23.6059 35.6082 23.606Z" fill="#AE4E29"/>
<path d="M19.2411 18.4187C18.5056 17.8736 17.8089 17.2751 17.1564 16.6277C18.8389 17.0401 20.4839 17.6006 22.0731 18.3029C21.8805 18.2978 21.6884 18.2946 21.4964 18.2946C20.743 18.2948 19.9902 18.3362 19.2411 18.4187Z" fill="#8F351B"/>
<path d="M39.9451 19.9037C39.5304 19.4405 39.1007 18.9939 38.6522 18.5746C37.8209 14.7512 33.1625 11.9341 29.8557 11.0669C28.8048 10.7861 27.7241 10.6409 26.6384 10.6346C25.5858 10.6257 24.5389 10.793 23.5386 11.1299C22.5282 11.4861 21.5917 12.0341 20.7777 12.7454C20.3537 12.7955 19.9577 12.8516 19.58 12.9075C18.3929 13.0838 17.3884 13.26 16.2706 13.2626C16.4453 13.0039 16.6555 12.7727 16.8948 12.5761C17.6205 11.9773 18.4233 11.4848 19.2804 11.1126C21.5655 10.1024 24.0285 9.58774 26.5157 9.6007C32.6541 9.6007 38.848 12.5806 42.6489 17.6153C41.7366 18.3631 40.8354 19.1259 39.9451 19.9037Z" fill="#B5552E"/>
<path d="M38.6523 18.5744C38.1123 18.0651 37.5364 17.5976 36.9292 17.1758C34.0652 15.2008 30.495 12.6789 24.6614 12.558C24.4449 12.5542 24.2353 12.5515 24.0309 12.5515C22.9438 12.5502 21.8576 12.6147 20.7778 12.7445C21.5919 12.0333 22.5283 11.4853 23.5387 11.1291C24.539 10.7922 25.5859 10.6249 26.6385 10.6338C27.7242 10.6401 28.8049 10.7853 29.8558 11.0661C33.1626 11.934 37.821 14.751 38.6523 18.5744Z" fill="#C6673A"/>
<path d="M65.3041 27.693C65.484 26.8503 65.5497 25.9861 65.4992 25.1249C65.2441 21.5294 60.7238 23.7777 58.7055 24.2899C54.9687 25.2374 51.2863 26.3989 47.6755 27.769C45.325 28.6613 42.9952 29.6307 40.719 30.7097C38.8908 31.5763 36.7261 32.154 35.1855 33.5462C34.779 33.9129 34.3786 34.3511 34.301 34.9016C34.2147 35.5192 34.5606 36.1188 34.9765 36.5724C38.264 40.1486 43.0332 42.0195 47.783 42.0085C55.869 41.9892 63.6535 35.8423 65.3041 27.693Z" fill="#994223"/>
<path d="M49.8752 38.467C49.3533 38.2436 48.874 37.9267 48.4598 37.5309C47.6137 36.7229 47.1807 35.4928 47.4741 34.3831C47.6504 34.1901 47.8228 33.9945 47.9913 33.7964C50.0028 33.2117 51.1737 32.861 53.3065 31.8851C55.8064 30.7425 57.6196 30.1391 61.0254 26.8555C61.2306 26.6574 61.6208 26.3068 62.0937 25.8602C62.8993 26.1865 63.2521 27.0304 63.3566 27.9755C62.7958 29.0318 62.1642 30.0467 61.4664 31.0127C58.3423 35.3649 54.6782 36.7532 51.7735 37.8919C51.1555 38.1316 50.521 38.3239 49.8752 38.467Z" fill="#AF542E"/>
<path d="M49.1451 32.3103C49.6457 31.6044 50.1046 30.8681 50.5193 30.1056C51.617 29.6649 52.6684 29.2005 53.7435 28.6863C56.9778 27.1385 59.4834 25.8852 62.465 23.2109C62.7693 23.1568 63.0774 23.1282 63.3862 23.1253C63.7626 23.1139 64.1371 23.1861 64.484 23.337C63.742 24.2311 62.9435 25.0739 62.0934 25.8596C61.861 25.7684 61.6147 25.7202 61.366 25.7174C61.3285 25.7162 61.2909 25.7154 61.254 25.7154C59.823 25.7154 59.0881 26.4437 58.0335 27.3476C57.0486 28.196 56.003 28.9669 54.9057 29.654C53.1211 30.7649 50.8752 31.1006 49.1451 32.3103Z" fill="#8D381D"/>
<path d="M47.9917 33.7957C48.3976 33.3176 48.782 32.8225 49.145 32.3102C50.875 31.1008 53.1217 30.7649 54.9061 29.6545C56.0035 28.9675 57.0491 28.1966 58.034 27.3482C59.0885 26.4444 59.8235 25.7161 61.2545 25.7161C61.2914 25.7161 61.3295 25.7161 61.3665 25.7181C61.6152 25.7209 61.8615 25.769 62.0939 25.8603C61.621 26.3068 61.2308 26.6573 61.0256 26.8555C57.62 30.1392 55.8066 30.7419 53.3067 31.8851C51.1735 32.8608 50.0032 33.211 47.9917 33.7957Z" fill="#A14826"/>
<path d="M50.519 30.1054C51.1995 28.8573 51.7564 27.5422 52.1815 26.1798C54.3356 25.4766 56.5106 24.8466 58.7064 24.2896C59.6452 24.0515 61.1251 23.4372 62.4655 23.2108C59.4832 25.8852 56.9777 27.1384 53.744 28.6863C52.6682 29.2003 51.6167 29.6646 50.519 30.1054Z" fill="#823018"/>
<path d="M47.7416 42.0084C47.6622 42.0084 47.5834 42.0084 47.504 42.0064C46.9691 40.5744 44.6862 39.711 42.9731 39.0439C45.2448 38.9919 47.6373 38.9745 49.8757 38.467C50.602 38.7681 51.3793 38.9174 52.1624 38.9064C54.9313 38.9064 58.0117 37.311 59.8287 35.7199C61.2804 34.4499 62.522 32.8017 63.0742 30.9064C63.3458 29.956 63.4417 28.9616 63.3569 27.9749C64.1225 26.5363 64.5696 25.4118 65.334 24.295C65.4281 24.562 65.4841 24.8415 65.5003 25.1249C65.5134 25.3102 65.5197 25.4988 65.5197 25.6885C65.5144 26.3625 65.4423 27.0341 65.3046 27.6931C63.6534 35.8422 55.8695 41.9893 47.7847 42.0086L47.7416 42.0084Z" fill="#A84E2B"/>
<path d="M52.1621 38.9062C51.3791 38.9173 50.6018 38.7679 49.8755 38.4668C50.5212 38.3235 51.1558 38.1311 51.7738 37.8911C54.6784 36.7524 58.3424 35.364 61.4666 31.0119C62.1645 30.0459 62.796 29.031 63.3568 27.9747C63.4416 28.9615 63.3457 29.9559 63.0742 30.9063C62.5219 32.801 61.2803 34.4498 59.8286 35.7197C58.0114 37.3108 54.9311 38.9062 52.1621 38.9062Z" fill="#BB5F35"/>
<path d="M5.83574 25.83C5.25954 26.5813 4.7874 27.4112 4.4328 28.2959C2.99864 32.0125 8.56716 32.0169 10.822 32.5084C14.9978 33.4213 19.22 34.0933 23.4689 34.5213C26.2347 34.7992 29.0161 34.991 31.7957 35.0463C34.028 35.0899 36.4604 35.5893 38.6532 34.9672C39.2311 34.8039 39.8365 34.5645 40.1725 34.053C40.5497 33.4791 40.4859 32.7097 40.2825 32.0497C38.6832 26.8444 34.8015 22.6042 30.0556 20.2535C21.9752 16.2513 11.3148 18.5159 5.83574 25.83Z" fill="#B5572B"/>
<path d="M7.57072 29.4485C7.31884 29.1327 7.14234 28.7606 7.05536 28.362C6.96838 27.9634 6.97332 27.5493 7.0698 27.1531C8.37704 26.1234 9.76776 25.211 11.2267 24.4259C13.7503 23.038 16.5507 22.266 19.4109 22.1698C19.1857 22.5278 19.0775 22.9504 19.102 23.3761C19.1144 23.7499 19.356 24.1713 19.7437 24.2434C19.7474 24.2434 19.7518 24.2454 19.7555 24.246C19.8207 24.2918 19.8898 24.3312 19.962 24.3638C19.9851 24.378 20.0044 24.3896 20.0208 24.3992C20.0895 24.4609 20.1559 24.5227 20.2216 24.5896C20.2629 24.6481 20.7577 25.238 20.8183 25.312L20.7451 25.2078C20.7451 25.2078 20.7901 25.2695 20.8764 25.3911C21.0084 25.5745 21.1328 25.7636 21.2592 25.9514C21.68 26.6112 22.1519 27.2351 22.6703 27.817C21.8259 27.7185 20.927 27.6516 19.7832 27.6136C18.7624 27.5789 17.8493 27.5222 16.8973 27.5222C15.0197 27.5222 12.9944 27.7435 9.71326 28.7948C9.33018 28.9166 8.52468 29.1397 7.57072 29.4485ZM20.3089 24.6847C20.3069 24.6821 20.3048 24.6798 20.3026 24.6776C20.3049 24.6796 20.307 24.6818 20.309 24.6842L20.3089 24.6847Z" fill="#C96C38"/>
<path d="M6.56217 31.7158C5.74407 31.4661 5.02909 31.1149 4.60577 30.5854C5.57101 30.1452 6.56125 29.7653 7.57107 29.448C7.73917 29.6583 7.93107 29.8473 8.14269 30.0109C8.70441 30.4516 9.34238 30.5668 9.99972 30.5668C10.5701 30.5668 11.1556 30.4792 11.7179 30.4414C12.3164 30.4008 12.9127 30.3783 13.5068 30.3739C13.4943 30.3849 13.4817 30.3964 13.4698 30.4086C13.403 30.4731 13.3423 30.544 13.2885 30.6203C11.0134 30.7229 8.75685 31.0905 6.56217 31.7158ZM28.2845 31.616C27.3644 31.4643 26.4981 31.3317 25.6682 31.2159C26.0159 30.9104 26.2989 30.5347 26.4995 30.112C26.7 29.6894 26.8139 29.2288 26.8341 28.7589C26.9348 28.6979 27.0313 28.6299 27.1231 28.5555C27.5408 28.6309 27.9911 28.7112 28.4828 28.7969C28.3979 29.6201 28.4436 30.452 28.6179 31.2602C28.5077 31.3794 28.3976 31.4978 28.2845 31.6162V31.616Z" fill="#AA4C24"/>
<path d="M25.6679 31.216C23.4437 30.9072 21.4905 30.7219 19.509 30.6376C18.1855 30.2284 16.8396 29.8521 15.4898 29.8521C15.3752 29.8521 15.2614 29.8548 15.1471 29.8605C14.5648 29.8893 13.9418 29.9808 13.5065 30.3745C12.9117 30.3784 12.3154 30.4009 11.7176 30.4421C11.1559 30.4801 10.5705 30.5676 9.99945 30.5676C9.34211 30.5676 8.70414 30.4518 8.14242 30.0118C7.9308 29.8482 7.7389 29.6592 7.5708 29.4489C8.52461 29.1401 9.33025 28.9174 9.71244 28.7953C12.9936 27.7441 15.0189 27.5227 16.8965 27.5227C17.8485 27.5227 18.7622 27.5794 19.7823 27.6141C20.9263 27.6521 21.8251 27.719 22.6694 27.8175C23.2468 28.4318 23.9191 28.9279 24.7285 29.0919C24.9377 29.1339 25.1502 29.1552 25.3633 29.1555C25.8791 29.1603 26.3869 29.0238 26.8344 28.7599C26.8141 29.2297 26.7 29.6901 26.4993 30.1126C26.2987 30.5352 26.0157 30.9107 25.6679 31.216Z" fill="#BD5E2F"/>
<path d="M12.996 32.9614C12.2698 32.8179 11.5449 32.6669 10.8212 32.5085C9.77295 32.2796 8.00659 32.1561 6.56177 31.7159C8.75641 31.0907 11.0129 30.7233 13.288 30.6208C13.0279 31.0306 12.8991 31.5138 12.9196 32.0027C12.9196 32.1153 12.9245 32.2278 12.9334 32.3385C12.951 32.5471 12.9717 32.7543 12.996 32.9614ZM27.1189 32.8289C26.0712 32.5002 25.0188 32.1882 23.9616 31.893C24.1473 31.8678 24.3325 31.8331 24.517 31.7887C24.9378 31.6903 25.3312 31.4945 25.6673 31.2162C26.4967 31.332 27.3636 31.4645 28.2836 31.6164C27.902 32.0189 27.5074 32.4198 27.1189 32.8289Z" fill="#A0421E"/>
<path d="M23.9618 31.8928C23.2613 31.6979 22.5586 31.5113 21.8539 31.3331C21.0834 31.1381 20.3003 30.8821 19.509 30.6383C21.4905 30.7232 23.4439 30.9073 25.668 31.2167C25.3318 31.495 24.9384 31.6908 24.5176 31.7892C24.3322 31.8333 24.1469 31.8678 23.9618 31.8928Z" fill="#B25227"/>
<path d="M4.20825 29.207C4.23986 28.8938 4.3153 28.587 4.43222 28.296C4.78682 27.4113 5.25896 26.5814 5.83516 25.8301C9.50733 20.9285 15.5055 18.2953 21.4955 18.2953C24.4553 18.2804 27.3805 18.9496 30.055 20.2536C32.0261 21.2298 33.8334 22.5228 35.409 24.084C35.2076 23.8839 35.002 23.6883 34.7924 23.4972C33.5535 23.5544 32.3483 23.9298 31.2867 24.589C28.9862 23.5411 26.5945 22.5999 24.1376 22.3798C24.105 22.3772 24.0726 22.3741 24.04 22.3715C23.7235 22.1135 23.3932 21.874 23.0505 21.6542C22.5636 21.3551 22.0065 21.1987 21.4394 21.2019C20.6932 21.2019 19.9683 21.4689 19.5292 22.0081C18.5078 21.8006 17.4693 21.6944 16.4282 21.6909C16.0849 21.6909 15.7539 21.7037 15.4393 21.7283C13.0225 21.9187 10.6082 22.7499 8.77238 24.4187C7.95428 25.1618 7.28313 26.1492 7.06982 27.1536C6.05402 27.9382 5.22976 28.6247 4.20825 29.207ZM30.3145 21.1145C30.9938 21.1145 31.5942 21.2953 31.9294 22.0763C32.0495 22.3542 32.3892 22.5267 32.7057 22.5267C32.8537 22.5308 32.9991 22.4857 33.1203 22.3981C33.1847 22.3479 33.2429 22.3016 33.296 22.2546C32.2773 21.4872 31.1923 20.8173 30.0548 20.2533C27.3803 18.9493 24.4551 18.2801 21.4954 18.295C19.7436 18.2957 17.9986 18.5193 16.3003 18.961C16.6064 19.0794 16.9309 19.1391 17.2579 19.1373C17.563 19.1373 17.8627 19.1353 18.1585 19.1353C19.2919 19.1353 20.3752 19.1629 21.5222 19.4254C22.9102 19.7439 24.1823 20.4682 25.5553 20.8639C26.4167 21.1227 27.3093 21.2549 28.2067 21.2564C28.3831 21.2564 28.562 21.2519 28.7451 21.2422C29.2606 21.2141 29.8097 21.1144 30.3145 21.1144V21.1145Z" fill="#C26534"/>
<path d="M7.07001 27.1526C7.28332 26.149 7.95446 25.1609 8.77257 24.4177C10.6083 22.749 13.0233 21.9177 15.4395 21.7273C15.7547 21.7029 16.0849 21.6899 16.4284 21.6899C17.4695 21.6934 18.508 21.7996 19.5294 22.0071C19.4868 22.0586 19.4473 22.1127 19.4111 22.1692C16.5509 22.2654 13.7506 23.0374 11.2269 24.4253C9.76796 25.2104 8.37724 26.1229 7.07001 27.1526Z" fill="#D37941"/>
<path d="M30.4943 29.1522C29.9176 29.0441 29.3916 28.9515 28.9444 28.8763L28.4828 28.7971C28.6164 27.4916 29.2239 26.2861 30.184 25.4214C30.5257 25.109 30.8949 24.8299 31.2867 24.5876C32.1173 24.9659 32.9361 25.3584 33.7416 25.7353C32.6371 26.8514 31.5547 27.9904 30.4943 29.1522Z" fill="#E78D4D"/>
<path d="M28.6177 31.2604C28.4434 30.4522 28.3978 29.6203 28.4826 28.7971L28.9442 28.8763C29.3914 28.9523 29.9173 29.0442 30.4941 29.1522C30.0037 29.692 29.5194 30.2369 29.0411 30.7869C28.9035 30.9458 28.7624 31.1036 28.6177 31.2604Z" fill="#E28547"/>
<path d="M33.7415 25.736C32.9359 25.359 32.1172 24.9666 31.2866 24.5883C32.3483 23.9291 33.5535 23.5538 34.7923 23.4966C35.0019 23.6876 35.2074 23.8832 35.409 24.0833C35.2225 24.2647 35.0365 24.4467 34.851 24.6294C34.4795 24.9962 34.1097 25.365 33.7415 25.736Z" fill="#EA9754"/>
<path d="M32.7057 22.5266C32.3893 22.5266 32.049 22.3541 31.9295 22.0762C31.5943 21.2953 30.9939 21.1145 30.3146 21.1145C29.8098 21.1145 29.2607 21.2142 28.7454 21.2419C28.5621 21.2516 28.3833 21.256 28.2069 21.256C27.3096 21.2546 26.4169 21.1226 25.5555 20.864C24.1826 20.4685 22.9104 19.744 21.5225 19.4255C20.3753 19.163 19.2921 19.1354 18.1588 19.1354C17.8629 19.1354 17.5633 19.1374 17.2581 19.1374C16.9311 19.1392 16.6066 19.0794 16.3005 18.9611C17.9989 18.5195 19.7438 18.2958 21.4956 18.2953C24.4553 18.2803 27.3805 18.9496 30.0551 20.2535C31.1926 20.8176 32.2775 21.4875 33.2963 22.2549C33.2431 22.3012 33.1849 22.3475 33.1205 22.3983C32.9993 22.4859 32.8538 22.5309 32.7057 22.5266Z" fill="#EA9754"/>
<path d="M27.1227 28.5558L26.8424 28.505C26.8437 28.2381 26.8191 27.9718 26.7692 27.7099C26.1838 24.6477 23.2428 22.9107 20.1768 22.1527H20.2874C21.6352 22.1527 22.8863 22.2673 24.0402 22.3707C24.4455 22.695 24.8358 23.0391 25.2318 23.3731C25.3443 23.469 25.4557 23.5673 25.5683 23.6638C25.5833 23.6728 25.6115 23.6935 25.6558 23.7256C27.2796 23.7873 28.4135 25.619 27.995 27.1841C27.8559 27.7263 27.5499 28.2075 27.1227 28.5558Z" fill="#E78D4D"/>
<path d="M26.8427 28.5051C25.1245 28.1931 23.9605 27.9679 22.6696 27.8168C22.1512 27.2349 21.6794 26.611 21.2585 25.9512C21.1321 25.7633 21.0077 25.5741 20.8758 25.3908C20.7888 25.2687 20.745 25.2076 20.7444 25.2076L20.8177 25.3118C20.7576 25.2385 20.2623 24.6479 20.221 24.5894C20.156 24.5225 20.089 24.4614 20.0201 24.399C20.0039 24.3894 19.9845 24.3778 19.9613 24.3636C19.8891 24.331 19.82 24.2916 19.7549 24.2458C19.7511 24.2458 19.7468 24.244 19.743 24.2432C19.3553 24.1711 19.1138 23.7491 19.1013 23.3759C19.0768 22.9503 19.1851 22.5277 19.4102 22.1698C19.6685 22.1595 19.9237 22.1539 20.1758 22.1531C23.2418 22.9109 26.1822 24.6479 26.7682 27.7102C26.8185 27.972 26.8435 28.2383 26.8427 28.5051ZM20.3028 24.6777C20.3051 24.6799 20.3072 24.6822 20.3091 24.6848C20.3072 24.6822 20.3051 24.6799 20.3028 24.6777Z" fill="#ED9B58"/>
<path d="M26.8339 28.7591C26.8388 28.6748 26.842 28.5893 26.8426 28.505L27.1228 28.5558C27.0311 28.6302 26.9345 28.6981 26.8339 28.7591Z" fill="#E28547"/>
<path d="M25.3635 29.1552C25.1504 29.1549 24.9378 29.1336 24.7286 29.0915C23.9192 28.9276 23.2469 28.4315 22.6696 27.8171C23.9605 27.9683 25.1245 28.1935 26.8426 28.5054C26.8426 28.5904 26.8389 28.6753 26.8339 28.7596C26.3866 29.0233 25.8791 29.1599 25.3635 29.1552Z" fill="#E99250"/>
<path d="M24.0399 22.3707C22.8866 22.2671 21.6356 22.1527 20.2871 22.1527H20.1765C19.9607 22.0993 19.7447 22.0508 19.5284 22.0072C19.9681 21.4681 20.6924 21.2011 21.4386 21.2011C22.0057 21.1979 22.5629 21.3543 23.0498 21.6533C23.3926 21.8732 23.7232 22.1126 24.0399 22.3707Z" fill="#EA9754"/>
<path d="M19.411 22.1694C19.4472 22.113 19.4867 22.0588 19.5293 22.0073C19.7451 22.0511 19.9611 22.0996 20.1773 22.1528C19.9252 22.1541 19.6698 22.1597 19.411 22.1694Z" fill="#F0A45F"/>
<path d="M52.7467 16.5266C52.5677 15.5876 52.2629 14.6787 51.8411 13.8258C50.0341 10.2856 46.4045 14.6307 44.572 16.0691C41.1793 18.7342 37.9339 21.592 34.8511 24.6293C32.844 26.6069 30.8919 28.6541 29.0418 30.7867C27.5557 32.5005 25.603 34.0754 24.6341 36.1907C24.3789 36.7485 24.1606 37.3769 24.3188 37.9714C24.4964 38.6398 25.1057 39.0914 25.7249 39.3622C30.6073 41.5045 36.2627 41.2361 41.0888 39.0623C49.3029 35.3635 54.575 25.5667 52.7467 16.5266Z" fill="#C16341"/>
<path d="M41.6114 34.5106C41.0109 34.5112 40.4147 34.4068 39.8482 34.2018C38.4591 33.6994 37.3864 32.3825 37.4658 30.8667C39.4473 29.198 40.503 28.3218 42.3482 26.2522C44.3991 23.9504 45.9834 22.5125 48.0348 17.6225C48.1581 17.3279 48.4038 16.7932 48.6928 16.1248C48.7159 16.1235 48.7378 16.1235 48.7615 16.1235C49.6865 16.1235 50.3865 16.8094 50.8876 17.7017C50.7716 19.0308 50.5659 20.35 50.2721 21.6498C48.9673 27.499 45.8381 30.5792 43.3739 33.06C42.8486 33.5851 42.2863 34.0696 41.6914 34.5093C41.664 34.5106 41.6371 34.5106 41.6114 34.5106Z" fill="#D27953"/>
<path d="M32.8091 34.7722C31.8322 34.41 30.8511 34.0615 29.8658 33.7267C29.8189 33.7113 29.7719 33.6959 29.7257 33.6792C31.1304 32.6138 32.4222 31.5208 33.3065 30.7584C36.7553 27.7862 39.0776 25.5165 41.4168 22.8003C44.04 19.7542 46.049 17.339 47.9316 13.2616C48.6334 12.7952 49.3427 12.4697 49.9982 12.4697C50.012 12.4697 50.0257 12.4697 50.0395 12.4697C49.6698 13.717 49.2204 14.9377 48.6941 16.1239C48.4187 16.137 48.1477 16.1997 47.8935 16.3092C46.3456 16.9544 45.9063 18.0494 45.2053 19.4841C44.5689 20.7956 43.8371 22.0559 43.0163 23.2541C41.3662 25.6524 38.4916 27.1681 37.5984 30.1217C37.5246 30.3632 37.4805 30.6132 37.4671 30.866C36.888 31.353 36.2305 31.9082 35.4512 32.5799C34.7673 33.1695 33.8418 33.9546 32.8091 34.7722Z" fill="#B85737"/>
<path d="M37.4661 30.8672C37.4794 30.6144 37.5236 30.3643 37.5974 30.1228C38.4906 27.1693 41.3652 25.6536 43.0152 23.2553C43.8361 22.0571 44.5679 20.7968 45.2043 19.4853C45.9055 18.0506 46.3451 16.9558 47.8925 16.3105C48.1467 16.201 48.4177 16.1383 48.693 16.1252C48.4041 16.7943 48.1583 17.3296 48.0351 17.6229C45.9835 22.5129 44.3992 23.9507 42.3484 26.2526C40.5033 28.3221 39.4481 29.1983 37.4661 30.8672Z" fill="#C86A47"/>
<path d="M29.7255 33.679C28.8599 33.3857 27.9911 33.1022 27.1191 32.8286C27.7721 32.1409 28.4445 31.4749 29.0406 30.7866C30.8913 28.6541 32.8433 26.6069 34.8499 24.6293C37.9327 21.592 41.1781 18.7341 44.5708 16.0691C45.4233 15.4001 46.6642 14.1023 47.9295 13.2616C46.0474 17.339 44.0385 19.7541 41.4147 22.8003C39.0755 25.5165 36.7531 27.7862 33.3043 30.7584C32.4218 31.5208 31.1297 32.6137 29.7255 33.679Z" fill="#AF4C2F"/>
<path d="M41.9701 38.6369C41.902 38.606 41.835 38.577 41.7732 38.5475C40.4897 37.9408 39.1959 37.3586 37.8916 36.8009C39.2178 36.1469 40.4887 35.3806 41.6914 34.5099C45.5004 34.4539 49.1319 30.3372 50.6324 27.1848C51.5619 25.2317 52.1154 22.9897 51.8621 20.8114C51.729 19.7213 51.3986 18.6665 50.8882 17.7014C51.0478 15.8892 51.0184 14.5413 51.3154 13.0579C51.5259 13.2863 51.7028 13.5451 51.8408 13.826C52.2626 14.6789 52.5674 15.5878 52.7464 16.5268C52.9883 17.7284 53.1099 18.9524 53.1093 20.1796C53.1105 25.1313 51.1829 30.0354 47.9905 33.7958C47.8217 33.9946 47.6492 34.1901 47.4732 34.3825C45.8947 36.1206 44.0321 37.5605 41.9701 38.6369Z" fill="#CD724D"/>
<path d="M41.6913 34.5097C42.2861 34.07 42.8484 33.5855 43.3737 33.0604C45.8381 30.579 48.9673 27.4987 50.2719 21.6502C50.5657 20.3504 50.7714 19.0312 50.8874 17.702C51.3978 18.6671 51.7281 19.7219 51.8613 20.8119C52.1147 22.9902 51.5611 25.2323 50.6316 27.1854C49.1317 30.3371 45.5004 34.4538 41.6913 34.5097Z" fill="#DB865E"/>
<path d="M45.2113 46.1895C45.9338 45.5866 46.5716 44.8836 47.1064 44.1006C49.3 40.7997 43.8672 39.5375 41.7731 38.5473C37.8946 36.7129 33.9192 35.1035 29.8655 33.7268C27.2261 32.8294 24.5534 32.0148 21.854 31.3336C19.6855 30.7861 17.4194 29.7498 15.1471 29.8611C14.5479 29.8907 13.9062 29.9865 13.4697 30.4098C12.9792 30.884 12.8773 31.6489 12.9336 32.3398C13.3827 37.7798 16.2643 42.7927 20.3923 46.1586C27.4199 51.8875 38.3048 52.087 45.2113 46.1895Z" fill="#D17641"/>
<path d="M34.687 47.0347C33.2473 47.0291 31.8126 46.8604 30.4088 46.5317C27.5717 45.0764 25.0961 42.6473 25.1867 39.4685C25.1925 39.2515 25.2176 39.0355 25.2618 38.8232C27.9395 39.9754 29.1716 40.548 31.9836 41.2994C34.3372 41.9279 36.0748 42.5449 39.3266 42.5449C40.1335 42.5449 41.0341 42.5069 42.0606 42.4214C42.4609 42.3885 43.2996 42.3531 44.3016 42.267C44.4738 42.6321 44.5639 43.0324 44.5653 43.4381C44.5667 43.8439 44.4793 44.2449 44.3097 44.6112C42.8076 45.3246 41.2486 45.9039 39.65 46.3425C38.0326 46.7974 36.3637 47.0302 34.687 47.0347Z" fill="#DF8D53"/>
<path d="M44.3037 42.2659C44.1969 42.0442 44.065 41.8362 43.9108 41.6463C43.0639 40.5906 41.8286 40.5951 40.6246 40.4027C39.2268 40.1827 37.8474 39.8535 36.4983 39.4178C36.2538 39.3386 36.0105 39.246 35.7683 39.1425C38.6155 39.8296 41.1135 40.318 44.2733 40.318C44.7525 40.318 45.2465 40.307 45.7594 40.2832C46.5037 40.7117 47.1266 41.2153 47.4257 41.8272C46.3945 42.038 45.352 42.1844 44.3037 42.2659ZM25.2638 38.8228C24.7872 38.6176 24.2656 38.3949 23.6802 38.1485C23.8165 37.8751 23.938 37.5942 24.0442 37.307C24.2493 36.6815 24.3295 36.0198 24.28 35.3616C25.2601 35.7669 26.1777 36.1336 27.0545 36.4688C26.6005 36.6936 26.2028 37.0228 25.8923 37.431C25.5818 37.8392 25.3668 38.3154 25.2638 38.8228Z" fill="#C96937"/>
<path d="M39.3284 42.5444C36.0765 42.5444 34.339 41.9268 31.9854 41.2988C29.1733 40.5474 27.9411 39.9749 25.2635 38.8227C25.3666 38.3155 25.5816 37.8394 25.8921 37.4313C26.2027 37.0232 26.6003 36.6941 27.0542 36.4694C29.4909 37.4143 31.9819 38.2041 34.513 38.8343C34.9408 38.9405 35.3579 39.044 35.7683 39.1431C36.0105 39.2467 36.2536 39.3393 36.4983 39.4184C37.8474 39.8541 39.2268 40.1833 40.6246 40.4033C41.8286 40.5957 43.0639 40.5912 43.9108 41.6469C44.065 41.8368 44.1969 42.0448 44.3037 42.2665C43.3017 42.3534 42.463 42.3888 42.0626 42.4209C41.0359 42.5064 40.1352 42.5444 39.3284 42.5444Z" fill="#D77E47"/>
<path d="M44.2733 40.3183C41.1135 40.3183 38.6153 39.8299 35.7683 39.1428C33.4021 38.1366 31.1067 36.1526 28.4597 36.1526H28.4109C27.9416 36.1556 27.4786 36.2638 27.0542 36.4697C26.1772 36.1351 25.2598 35.7678 24.2797 35.3625C24.2557 34.8982 24.1988 34.4364 24.1096 33.9806C24.0575 33.664 23.989 33.3505 23.9044 33.0414C23.9163 33.2472 23.9226 33.3502 23.922 33.3502C23.9214 33.3502 23.9113 33.1958 23.8919 32.8858C23.9149 32.7324 23.9161 32.5764 23.8957 32.4226C23.8542 32.5187 23.8288 32.6214 23.8206 32.7263C23.8528 32.4751 23.9004 32.2263 23.9632 31.9813L24.0565 31.9195L23.9946 31.9021C23.9915 31.9066 23.9877 31.911 23.9846 31.9157C23.9871 31.9112 23.9895 31.9061 23.9927 31.9015C23.2815 31.7033 22.5685 31.5138 21.8536 31.3328C19.7945 30.8123 17.6467 29.8518 15.4889 29.8518C15.3743 29.8518 15.2605 29.8544 15.1462 29.8601C14.9619 29.8679 14.7782 29.8855 14.5957 29.9129C14.7782 29.8855 14.9619 29.8679 15.1462 29.8601C15.2607 29.8544 15.3745 29.8518 15.4889 29.8518C17.6461 29.8518 19.7939 30.8123 21.8536 31.3328C24.553 32.0148 27.2258 32.8292 29.8652 33.726C33.9188 35.1029 37.8942 36.7126 41.7726 38.5473C42.7471 39.0079 44.4434 39.5271 45.7586 40.2831C45.2465 40.3068 44.7523 40.3183 44.2733 40.3183Z" fill="#C25E2F"/>
<path d="M35.7683 39.1425C35.3581 39.0441 34.9407 38.9405 34.5129 38.8337C31.9819 38.2035 29.4909 37.4137 27.0542 36.4687C27.4787 36.2629 27.9416 36.1547 28.4109 36.1516H28.4597C31.1068 36.1522 33.4023 38.1363 35.7683 39.1425Z" fill="#CF703C"/>
<path d="M32.9802 50.534C28.4737 50.534 23.9409 49.0517 20.3927 46.1574C18.9162 44.9535 17.607 43.5471 16.5017 41.9776C17.7091 42.2522 18.9694 42.136 20.1101 41.645C22.1322 43.189 24.267 44.6501 26.62 45.4213C27.7721 45.7984 29.0255 46.2153 30.4103 46.5312C31.783 47.2396 33.2539 47.7257 34.771 47.9722C35.4553 48.0775 36.1462 48.1315 36.8382 48.1337C38.6021 48.1363 40.3448 47.7385 41.942 46.9686C42.9602 46.4887 43.8821 45.617 44.3118 44.6101C45.4607 44.0774 46.4064 43.5982 47.5204 43.263C47.4223 43.5611 47.2831 43.8432 47.107 44.1006C46.5722 44.8836 45.9344 45.5866 45.2118 46.1895C41.7923 49.109 37.3991 50.5346 32.9802 50.534Z" fill="#DB864D"/>
<path d="M36.8379 48.1337C36.146 48.1315 35.4551 48.0775 34.7708 47.9722C33.2537 47.7257 31.7828 47.2396 30.41 46.5312C31.8138 46.8599 33.2485 47.0286 34.6882 47.0342C36.3655 47.0296 38.0347 46.7966 39.6525 46.3414C41.2512 45.9027 42.8101 45.3235 44.3123 44.6101C43.8827 45.617 42.9613 46.4887 41.9425 46.9686C40.3451 47.7386 38.6021 48.1364 36.8379 48.1337Z" fill="#E69A5E"/>
<path d="M20.1099 41.645C19.3444 41.0609 18.5964 40.4651 17.8583 39.8905C16.0676 38.4971 14.5171 36.1985 13.2299 34.4313C13.0918 33.7402 12.9932 33.0414 12.9346 32.3385C12.9259 32.2278 12.9208 32.1152 12.9208 32.0027C12.9202 31.8464 12.9307 31.6904 12.952 31.5356C14.1272 32.9458 15.5215 34.109 16.5697 34.7317C18.8533 36.0904 21.6585 37.3025 23.3184 37.9959C23.4416 38.0481 23.5623 38.0983 23.6806 38.1478C22.8682 39.7812 21.5953 41.0119 20.1099 41.645Z" fill="#F5B16E"/>
<path d="M23.68 38.1485C23.5617 38.0989 23.441 38.0487 23.3178 37.9965C21.6579 37.3031 18.8526 36.0917 16.5691 34.7324C15.5209 34.1089 14.1266 32.9458 12.9514 31.5363C12.9941 31.1107 13.1771 30.713 13.4699 30.4091C13.7875 30.1292 14.1808 29.9562 14.5969 29.9132C15.3633 30.6829 16.2128 31.3598 17.1289 31.9308C19.4125 33.2895 22.2176 34.5015 23.8776 35.1951C24.0127 35.2517 24.1478 35.307 24.2797 35.3623C24.3292 36.0205 24.249 36.6822 24.0439 37.3077C23.9377 37.5946 23.8162 37.8753 23.68 38.1485Z" fill="#F2AA67"/>
<path d="M24.2798 35.362C24.1473 35.3068 24.0128 35.2513 23.8777 35.1948C22.2177 34.5013 19.4125 33.2892 17.129 31.9305C16.2129 31.3596 15.3634 30.6827 14.597 29.9129C14.7795 29.8855 14.9633 29.8679 15.1475 29.8601C15.262 29.8544 15.3758 29.8518 15.4902 29.8518C17.6475 29.8518 19.7952 30.8123 21.8549 31.3328C22.5699 31.5136 23.2829 31.7031 23.994 31.9015C23.9909 31.9059 23.9883 31.9112 23.9859 31.9157C23.9891 31.9112 23.9928 31.9067 23.996 31.9021L24.0578 31.9195L23.9646 31.9813C23.9018 32.2263 23.8541 32.4751 23.822 32.7263C23.8302 32.6214 23.8555 32.5187 23.897 32.4226C23.9175 32.5764 23.9162 32.7324 23.8933 32.8858C23.9127 33.1952 23.9227 33.35 23.9233 33.3502C23.9233 33.3502 23.9176 33.2466 23.9057 33.0414C23.9904 33.3505 24.0589 33.664 24.1109 33.9806C24.1998 34.4363 24.2562 34.898 24.2798 35.362Z" fill="#F1A561"/>
<path d="M17.7967 42.123C17.3611 42.1229 16.9268 42.0741 16.5014 41.9776C14.9035 39.7288 13.7881 37.1566 13.229 34.4313C14.5162 36.1985 16.0661 38.4971 17.8574 39.8906C18.5961 40.4651 19.3447 41.0608 20.109 41.645C19.3764 41.9593 18.5906 42.1218 17.7967 42.123Z" fill="#F7BB77"/>
</svg>
