<svg width="70" height="60" viewBox="0 0 70 60" fill="none" xmlns="http://www.w3.org/2000/svg">
<path d="M57.7793 19.836C59.6262 15.0301 55.1107 11.1897 46.4149 7.35068C39.4476 4.2752 30.9751 3.68553 32.7177 7.24281C36.2133 14.38 42.0686 26.5935 50.7063 26.5355C54.3284 26.5116 56.499 23.1673 57.7793 19.836Z" fill="#292825"/>
<path d="M57.9426 19.358C57.059 18.3396 56.567 16.9653 55.7572 15.8483C54.8663 14.621 53.9023 13.3928 52.7321 12.4319C49.8989 10.1101 46.6074 8.45175 43.0872 7.5724C40.2899 6.86569 37.9577 6.61542 35.4053 5.12462C35.2476 5.03275 35.0875 4.93774 34.9267 4.84054C35.2222 4.81297 35.54 4.79993 35.8759 4.79993C38.668 4.79993 42.7508 5.73027 46.4162 7.34804C53.8123 10.6135 58.1847 13.8797 58.1892 17.7408C58.1867 18.2895 58.1036 18.8348 57.9426 19.358Z" fill="#383733"/>
<path d="M46.3213 18.3221C46.3816 18.257 46.4404 18.192 46.4977 18.1269C46.6101 18.1889 46.7247 18.2458 46.8416 18.2976C46.6676 18.3044 46.4934 18.3129 46.3213 18.3221ZM40.3284 11.9749C39.2743 11.7084 38.1921 11.4565 37.0962 11.2338C36.0869 9.41003 35.1109 7.55486 33.7882 6.00288C33.6719 5.87241 33.53 5.76873 33.372 5.69865C33.2139 5.62856 33.0433 5.59366 32.8712 5.59623C32.8467 5.59623 32.8213 5.59623 32.7967 5.59862C33.1161 5.25794 33.6706 5.03119 34.3994 4.90881C34.4722 4.95935 34.5437 5.00913 34.6137 5.05893C36.5187 6.37901 38.2849 7.89938 39.8839 9.59545C39.723 9.91921 39.6553 10.2834 39.6886 10.6454C39.722 11.0074 39.855 11.3521 40.0722 11.639C40.1579 11.7505 40.2437 11.8631 40.3285 11.9749H40.3284Z" fill="#22211F"/>
<path d="M37.097 11.2339C36.226 11.057 35.3462 10.8986 34.4678 10.7661C33.8298 9.51511 33.2471 8.31997 32.7184 7.24115C32.5773 6.97729 32.4982 6.68307 32.4876 6.38211C32.4859 6.23693 32.5123 6.09285 32.5655 5.95836C32.6187 5.82386 32.6975 5.70167 32.7972 5.59896C32.8217 5.59749 32.8471 5.59657 32.8717 5.59657C33.0438 5.594 33.2145 5.62889 33.3725 5.69898C33.5306 5.76906 33.6724 5.87274 33.7887 6.00321C35.1116 7.555 36.0876 9.41018 37.097 11.2339Z" fill="#1C1B1A"/>
<path d="M49.7028 18.3076C49.5279 18.2991 49.3521 18.2923 49.1773 18.2868C48.5393 17.9189 47.9222 17.514 47.3289 17.074C47.3632 17.0235 47.3967 16.9737 47.4286 16.9239C47.8492 16.274 48.0814 15.6821 48.0821 15.1843C48.0836 14.5503 47.707 14.0704 46.8673 13.8199C45.5364 13.4241 44.0529 12.9785 42.4747 12.5421C41.8339 11.8361 41.2166 11.1219 40.6191 10.4197C40.3801 10.1387 40.136 9.86359 39.8866 9.59433C40.023 9.29105 40.2398 9.03349 40.5121 8.85122C40.7844 8.66894 41.1012 8.56934 41.426 8.56384C41.6349 8.56517 41.842 8.60294 42.0386 8.67556C45.4278 9.89513 50.4791 10.7704 51.3314 15.0702C51.6294 16.5795 50.8462 17.7686 49.7028 18.3076Z" fill="#2D2C29"/>
<path d="M46.8423 18.2978C46.7254 18.2458 46.6108 18.1889 46.4984 18.1271C46.7165 17.8822 46.9144 17.6409 47.0917 17.4059C47.1757 17.2942 47.2549 17.1839 47.3291 17.0751C47.9224 17.5151 48.5394 17.92 49.1774 18.2879C48.8379 18.2773 48.4985 18.2727 48.1614 18.2727C47.7176 18.2718 47.2769 18.2802 46.8423 18.2978ZM42.4743 12.5432C41.7761 12.3503 41.0592 12.1597 40.3291 11.9751C40.2442 11.8633 40.1586 11.7514 40.0738 11.639C39.8566 11.3521 39.7236 11.0074 39.6902 10.6454C39.6569 10.2835 39.7246 9.91922 39.8855 9.59546C40.1356 9.86496 40.3797 10.1401 40.6179 10.4209C41.2162 11.123 41.8333 11.8373 42.4743 12.5432Z" fill="#272623"/>
<path d="M65.7851 26.732C66.118 21.5838 60.6885 19.3483 51.2847 18.4218C43.7516 17.6807 35.522 19.7731 38.2314 22.609C43.6691 28.2993 52.85 38.0764 61.0449 35.3163C64.481 34.1588 65.5545 30.2991 65.7851 26.732Z" fill="#474640"/>
<path d="M65.799 26.2284C64.6578 25.5371 63.784 24.3848 62.6823 23.577C61.4726 22.6896 60.1915 21.8244 58.7952 21.277C55.9741 20.1736 52.9806 19.61 49.9624 19.614C49.3722 19.614 48.7807 19.6352 48.1879 19.6776C46.8941 19.7694 45.7188 19.9203 44.5538 20.0013C45.1754 19.479 45.7656 18.9183 46.321 18.3224C46.9233 18.2887 47.5396 18.2719 48.1611 18.2719C49.1959 18.2719 50.2476 18.32 51.2853 18.422C60.3754 19.3178 65.752 21.437 65.799 26.2284Z" fill="#5D5C55"/>
<path d="M57.8524 32.8488C56.9759 32.8416 56.1036 32.7233 55.2552 32.4965C51.2937 28.1723 46.5134 23.9926 41.5573 23.1488C41.3586 22.972 41.1591 22.7982 40.9565 22.6266C41.6645 22.1788 42.341 21.7155 42.9775 21.2469C44.2572 21.7888 45.496 22.4276 46.6838 23.158C47.1662 23.4566 47.6574 23.7576 48.1569 24.0553C48.1857 24.327 48.2716 24.589 48.4088 24.823C48.546 25.0571 48.7311 25.2576 48.9512 25.4106C50.246 26.352 51.6166 27.1778 53.0482 27.879C54.5244 28.5772 56.109 29.6415 57.7683 29.6415C57.851 29.6415 57.9328 29.6393 58.0154 29.6338C58.5006 29.6027 58.9736 29.4637 59.4016 29.2264C59.8297 28.9892 60.2026 28.6593 60.4948 28.2595C61.7061 28.2226 62.9051 27.9996 64.0523 27.598C64.3538 27.4922 64.6702 27.4383 64.9887 27.4387C65.2355 27.4392 65.4813 27.4695 65.7212 27.5291C65.6534 28.2213 65.5445 28.9086 65.3952 29.5872C63.7189 30.2472 62.3045 31.76 60.5881 32.3787C59.7088 32.6943 58.7837 32.8533 57.8524 32.8488Z" fill="#3D3C36"/>
<path d="M58.1299 35.7973C57.2322 34.723 56.2705 33.6045 55.2551 32.4965C56.1035 32.7232 56.9758 32.8415 57.8523 32.8487C58.7829 32.8525 59.7072 32.6929 60.5856 32.377C62.3021 31.7583 63.7165 30.2455 65.3927 29.5855C64.8152 32.1619 63.566 34.4665 61.044 35.3164C60.1029 35.6317 59.1197 35.7939 58.1299 35.7973ZM41.5573 23.1489C41.1535 23.0798 40.7462 23.0338 40.3373 23.0111C40.5458 22.8848 40.7522 22.7567 40.9567 22.6267C41.1591 22.7982 41.3585 22.972 41.5573 23.1489Z" fill="#34332E"/>
<path d="M60.0726 28.2664C55.9005 28.2664 51.8176 26.239 48.1581 24.0553C48.0451 23.0447 48.6927 21.9789 49.8859 21.9789C49.9037 21.9789 49.9216 21.9789 49.9409 21.9789C50.2155 21.9866 50.4985 21.9888 50.788 21.9888C51.0917 21.9888 51.4006 21.9857 51.717 21.9835C52.0334 21.9813 52.3505 21.9774 52.6728 21.9774C55.7524 21.9774 59.0788 22.2301 60.6688 25.1479C60.9445 25.6253 61.0753 26.1765 61.0445 26.7308C61.0137 27.2851 60.8228 27.8174 60.496 28.2594C60.3547 28.264 60.2134 28.2664 60.0726 28.2664Z" fill="#4E4D46"/>
<path d="M57.7684 29.6414C56.1091 29.6414 54.5245 28.578 53.0483 27.8788C51.617 27.1777 50.2466 26.3519 48.9521 25.4105C48.7321 25.2574 48.5471 25.0569 48.4101 24.8229C48.273 24.5888 48.1872 24.3269 48.1585 24.0553C51.8178 26.2388 55.9008 28.2671 60.073 28.2664C60.2138 28.2664 60.3551 28.264 60.4959 28.2594C60.2037 28.6592 59.8307 28.989 59.4027 29.2263C58.9746 29.4635 58.5017 29.6025 58.0164 29.6337C57.933 29.6392 57.8511 29.6414 57.7684 29.6414Z" fill="#44433C"/>
<path d="M7.45086 17.6572C8.96349 22.5765 14.8112 22.6263 23.8979 19.9679C31.1764 17.8379 38.1005 12.8062 34.5729 11.1799C27.4946 7.91611 15.4833 2.24805 8.82789 7.8869C6.03721 10.252 6.40344 14.2486 7.45086 17.6572Z" fill="#474640"/>
<path d="M12.3511 6.00301C13.3204 5.72232 14.3181 5.55811 15.3242 5.51367C14.3246 5.61608 13.3318 5.77949 12.3511 6.00301Z" fill="#3D3C36"/>
<path d="M11.2332 21.3482C9.4935 20.8414 8.26975 19.8031 7.61554 18.131C8.92343 18.3476 10.1449 19.0935 11.4565 19.4342C12.6492 19.7688 13.869 19.9907 15.1009 20.0971C13.7904 20.4409 12.4992 20.8585 11.2332 21.3482Z" fill="#5D5C55"/>
<path d="M7.22996 16.8905C7.04799 16.2207 6.90629 15.54 6.80566 14.8523C8.13285 13.6096 8.91373 11.6712 10.2945 10.4521C12.113 8.84429 14.3409 8.30461 16.6835 8.22872C16.8347 8.22419 16.9863 8.22192 17.1384 8.22192C19.9194 8.22192 22.8552 9.02511 25.4977 9.77079C26.1521 9.95454 26.7988 10.1782 27.4429 10.4185C25.2142 10.5945 23.1292 11.1091 21.3331 12.109C20.5304 11.9668 19.7208 11.8697 18.9079 11.8182C17.9632 11.7616 16.9413 11.603 15.9468 11.603C15.1623 11.5758 14.3817 11.7264 13.6601 12.044C13.2191 12.2545 12.8277 12.5609 12.5131 12.9422C12.1985 13.3234 11.9681 13.7704 11.8379 14.2522C10.7228 14.7407 9.68481 15.3977 8.7583 16.2014C8.32283 16.5758 7.7927 16.8148 7.22996 16.8905Z" fill="#3D3C36"/>
<path d="M6.80629 14.8525C6.72028 14.2699 6.67627 13.6816 6.67462 13.0923C6.67462 11.1017 7.24183 9.23035 8.82806 7.88601C9.86408 7.01551 11.0638 6.37453 12.3519 6.00326C13.3326 5.77973 14.3254 5.61634 15.325 5.51393C15.5982 5.49942 15.8751 5.49243 16.1536 5.49243C21.8762 5.49243 28.4982 8.38655 33.3441 10.6124C32.0095 10.4417 30.6663 10.353 29.3215 10.3466C28.6865 10.3466 28.0605 10.3704 27.4433 10.4178C26.8002 10.1774 26.1526 9.95452 25.4982 9.77003C22.8556 9.02436 19.9199 8.22117 17.1388 8.22117C16.987 8.22117 16.8354 8.22344 16.684 8.22798C14.3414 8.3046 12.1136 8.84428 10.2949 10.4514C8.91524 11.6711 8.13365 13.6097 6.80629 14.8525Z" fill="#34332E"/>
<path d="M16.2704 18.4531C14.9997 18.4835 13.7605 18.0442 12.7778 17.215C12.3524 16.8733 12.0357 16.4088 11.8684 15.881C11.701 15.3531 11.6906 14.7859 11.8385 14.252C13.9673 13.3125 16.3017 12.9817 18.6754 12.9817C19.1049 12.9817 19.5353 12.9919 19.9668 13.0124C19.4769 13.3935 19.0217 13.8197 18.6068 14.2856C17.5987 15.4188 17.0169 16.8849 16.9662 18.4201C16.7333 18.4408 16.501 18.4531 16.2704 18.4531Z" fill="#4E4D46"/>
<path d="M11.8383 14.252C11.9686 13.7702 12.199 13.3233 12.5136 12.942C12.8282 12.5608 13.2195 12.2543 13.6605 12.0439C14.3821 11.7263 15.1628 11.5757 15.9473 11.6028C16.9418 11.6028 17.9638 11.7612 18.9084 11.818C19.7213 11.8696 20.5309 11.9667 21.3335 12.1089C20.8565 12.3742 20.3996 12.6762 19.9669 13.0124C19.5351 12.9925 19.1046 12.9822 18.6754 12.9817C16.3017 12.9817 13.9673 13.3125 11.8383 14.252Z" fill="#44433C"/>
<path d="M18.5632 25.0425C20.9192 30.1141 27.2366 29.2551 36.6462 24.969C44.1852 21.5359 50.9137 15.0279 46.868 13.8229C38.7505 11.4065 24.9559 7.16494 18.6078 14.2876C15.9452 17.2743 16.93 21.528 18.5632 25.0425Z" fill="#33322E"/>
<path d="M22.1304 11.7048C23.136 11.2505 24.1894 10.9176 25.2695 10.7125C24.2049 10.9789 23.1567 11.3102 22.1304 11.7048Z" fill="#2B2A26"/>
<path d="M34.8655 24.6441C34.8611 24.6166 34.8559 24.589 34.8514 24.5622C34.8394 24.4993 34.8276 24.4359 34.8157 24.3723C36.2494 23.7278 37.6273 22.9589 38.9343 22.074C41.5522 20.3039 43.4719 18.5773 46.5165 17.5889C46.7048 17.5277 46.8964 17.4664 47.0912 17.4052C46.914 17.6402 46.716 17.8814 46.4979 18.1264C46.4406 18.1914 46.3818 18.2565 46.3216 18.3217C45.7661 18.9177 45.176 19.4784 44.5544 20.0007C44.0661 20.4165 43.5375 20.8336 42.9778 21.2463C42.3413 21.7149 41.6647 22.1781 40.9567 22.626C40.7528 22.7553 40.5464 22.8835 40.3374 23.0104C40.1491 22.9996 39.961 22.9942 39.7732 22.9942C38.9849 22.993 38.1993 23.0884 37.4329 23.2783C36.4807 23.5088 35.5987 23.978 34.8655 24.6441Z" fill="#45443F"/>
<path d="M19.0852 19.2661C19.514 18.3956 19.9606 17.5366 20.568 16.8253C22.2927 14.8079 24.6167 13.8782 27.1334 13.4297C28.2217 13.245 29.3234 13.1564 30.4264 13.1647C32.5947 13.1647 34.8101 13.4457 36.8698 13.7184C40.2596 14.1671 43.6213 15.5146 47.0349 15.6149C47.0462 15.6149 47.0572 15.6149 47.0685 15.6149C47.2636 15.6103 47.4554 15.5618 47.6304 15.473C47.8054 15.3841 47.9594 15.2569 48.0816 15.1004C48.083 15.1287 48.0838 15.1555 48.0838 15.1845C48.0838 15.6821 47.8515 16.274 47.4303 16.9241C47.3372 16.9471 47.2457 16.9693 47.1541 16.9899C44.7219 17.5745 42.2372 17.8968 39.7401 17.9515C39.6081 17.58 39.3759 17.2549 39.0707 17.0144C38.7655 16.7738 38.3999 16.6277 38.0169 16.5932C36.9144 16.4936 35.8277 16.424 34.7349 16.424C34.1082 16.424 33.4799 16.4469 32.845 16.4999C30.9922 16.6553 28.8178 16.4929 27.2175 17.5625C26.8156 17.8314 26.4682 18.178 26.1947 18.5831C26.1002 18.5816 26.0041 18.5816 25.9089 18.5816C23.925 18.5825 21.6436 18.8236 19.0852 19.2661Z" fill="#2B2A26"/>
<path d="M16.9878 19.659C16.9662 19.3957 16.9544 19.1346 16.9544 18.8742C16.9544 18.7219 16.9589 18.5703 16.9664 18.4194C17.017 16.8843 17.5988 15.4182 18.6069 14.285C19.0218 13.8191 19.477 13.3929 19.967 13.0118C20.6372 12.4925 21.3629 12.0537 22.1301 11.704C23.1563 11.3094 24.2045 10.9781 25.2691 10.7117C26.6055 10.4592 27.962 10.3369 29.3207 10.3466C35.3531 10.3466 42.092 12.3993 46.8671 13.821C47.671 14.0599 48.0492 14.5094 48.0805 15.1012C47.9583 15.2578 47.8043 15.3849 47.6293 15.4738C47.4543 15.5627 47.2625 15.6111 47.0674 15.6157C47.0563 15.6157 47.045 15.6157 47.034 15.6157C43.6217 15.5154 40.2594 14.1679 36.8688 13.7192C34.8092 13.4467 32.5939 13.1656 30.4255 13.1656C29.3224 13.1572 28.2208 13.2459 27.1324 13.4305C24.6158 13.8793 22.291 14.8087 20.5671 16.8261C19.9596 17.5374 19.513 18.3965 19.0843 19.2669C18.4189 19.3818 17.7347 19.51 17.0319 19.6513L16.9878 19.659Z" fill="#242320"/>
<path d="M34.4481 22.8846C33.54 20.2891 31.2524 18.989 27.7822 18.6643C30.3331 18.0526 33.0471 17.8926 35.6867 17.8926C36.6573 17.8926 37.6175 17.9148 38.5563 17.9431C38.8288 17.9516 39.1017 17.9557 39.3751 17.9554C39.4964 17.9554 39.617 17.9554 39.7383 17.953C39.9194 18.3994 39.9293 18.8998 39.7659 19.3534C39.6025 19.8069 39.2779 20.1798 38.8577 20.397C37.5068 21.1298 36.0083 22.1107 34.4481 22.8846Z" fill="#383733"/>
<path d="M27.7821 18.6645C27.2774 18.617 26.7474 18.5902 26.1921 18.584C26.4656 18.179 26.8129 17.8324 27.2148 17.5635C28.8161 16.4938 30.9902 16.6563 32.8423 16.5008C33.4772 16.4479 34.1055 16.4249 34.7322 16.4249C35.825 16.4249 36.9117 16.4946 38.0142 16.5942C38.3973 16.6287 38.7628 16.7748 39.068 17.0153C39.3732 17.2559 39.6055 17.581 39.7374 17.9525C39.6161 17.9539 39.4956 17.9549 39.3742 17.9549C39.101 17.9549 38.8281 17.9508 38.5555 17.9426C37.6169 17.9143 36.6566 17.892 35.6859 17.892C33.0477 17.8918 30.3337 18.0534 27.7821 18.6645Z" fill="#302F2B"/>
<path d="M34.6827 23.71C33.4799 18.2265 27.1355 17.6208 17.0343 19.6491C8.94312 21.2753 0.9775 26.0834 4.66143 28.1821C12.0545 32.3931 24.5883 39.6804 32.3163 34.1862C35.5565 31.8817 35.5156 27.5091 34.6827 23.71Z" fill="#3A3934"/>
<path d="M5.21448 24.6357C7.53692 22.6726 12.2622 20.6076 17.0321 19.6499C20.434 18.9661 23.4099 18.5826 25.9058 18.5826C30.5761 18.5826 33.5713 19.9279 34.5435 23.1789C33.1433 22.8206 31.8831 21.8957 30.4896 21.4025C28.9584 20.8612 27.3602 20.3651 25.7375 20.2388C25.0609 20.1867 24.3855 20.1605 23.7113 20.16C20.4541 20.1641 17.2242 20.7701 14.1753 21.949C11.2403 23.076 8.99595 24.3209 5.81456 24.5897C5.61715 24.6059 5.41707 24.6212 5.21448 24.6357Z" fill="#4E4C46"/>
<path d="M30.3762 31.6554C27.5 31.1716 24.3097 30.7572 21.2256 30.7572C19.521 30.7412 17.819 30.8966 16.1438 31.2212C15.5467 31.0053 14.9595 30.7848 14.3855 30.5681C11.178 29.3553 8.19157 27.2736 4.88513 26.3969C4.78782 26.3713 4.68776 26.3585 4.58732 26.3587C4.28547 26.3621 3.99299 26.467 3.75446 26.6573C3.8386 26.1496 4.20108 25.5968 4.78312 25.0279C4.85833 25.0279 4.93193 25.0279 5.00572 25.0279H5.06681C7.95504 25.0357 10.8588 25.3181 13.6539 26.0639C14.248 26.2223 14.8523 26.3802 15.4635 26.5318C15.5753 26.8064 15.7439 27.0526 15.9575 27.2534C16.1712 27.4543 16.4247 27.6049 16.7006 27.6948C18.3365 28.2653 20.0167 28.691 21.723 28.9672C22.9735 29.151 24.3388 29.5139 25.6474 29.5139C26.2572 29.525 26.864 29.4247 27.4398 29.2177C27.9373 29.0306 28.3895 28.7348 28.7652 28.3505C29.1408 27.9663 29.4309 27.5028 29.6155 26.9921C30.8696 26.5673 32.0548 25.9521 33.1319 25.1669C33.6384 24.8015 34.2357 24.5922 34.8537 24.5636C34.8582 24.5912 34.8634 24.6187 34.8678 24.6455C33.3515 26.0138 32.4836 28.1216 31.996 30.3121C31.6768 30.6612 31.3275 30.9797 30.9524 31.2638C30.7628 31.4031 30.5707 31.5336 30.3762 31.6554Z" fill="#31302C"/>
<path d="M12.5347 32.4231C9.62128 31.0212 6.90349 29.46 4.66001 28.1815C4.02277 27.8186 3.73407 27.3752 3.73407 26.8807C3.73459 26.8058 3.74129 26.731 3.75408 26.6572C3.99276 26.4665 4.28559 26.3614 4.58783 26.3579C4.68827 26.3577 4.78834 26.3705 4.88564 26.3961C8.19208 27.2735 11.1786 29.356 14.386 30.5673C14.96 30.784 15.5473 31.0045 16.1443 31.2204C14.8969 31.4641 13.6841 31.8682 12.5347 32.4231ZM31.7061 31.8863C31.2714 31.8083 30.828 31.731 30.3759 31.6544C30.5708 31.5327 30.7626 31.4017 30.9513 31.2616C31.3264 30.9774 31.6758 30.6589 31.995 30.3099C31.9347 30.5794 31.8801 30.8494 31.8311 31.1199C31.7849 31.3762 31.7432 31.6319 31.7061 31.8872V31.8863Z" fill="#292925"/>
<path d="M24.1993 27.8208C21.2814 27.8208 18.2935 27.2352 15.4619 26.5307C15.0331 25.4947 15.4053 24.1503 16.699 23.7928C19.0379 23.1496 21.8717 21.9828 24.4806 21.9828C26.0796 21.9828 27.5936 22.4207 28.8576 23.6849C29.2891 24.0958 29.5916 24.6299 29.7263 25.2187C29.861 25.8075 29.8219 26.4243 29.6138 26.9901C27.864 27.5643 26.0358 27.8448 24.1993 27.8208Z" fill="#403F39"/>
<path d="M25.6457 29.5128C24.3371 29.5128 22.9718 29.1506 21.7213 28.9661C20.015 28.6898 18.3348 28.2641 16.6989 27.6936C16.423 27.6037 16.1695 27.4531 15.9558 27.2523C15.7422 27.0515 15.5736 26.8052 15.4618 26.5306C18.2934 27.235 21.2813 27.8208 24.1992 27.8208C26.0356 27.8449 27.8639 27.5647 29.6137 26.9908C29.429 27.5015 29.1389 27.965 28.7633 28.3492C28.3876 28.7334 27.9355 29.0293 27.4379 29.2164C26.8622 29.4234 26.2554 29.5238 25.6457 29.5128Z" fill="#373632"/>
<path d="M31.6943 31.9597C30.9127 37.3865 36.4821 40.234 46.3703 42.0447C54.2934 43.4932 63.1909 42.0002 60.5551 38.7555C55.2656 32.246 46.348 21.0745 37.4334 23.2789C33.6951 24.2029 32.2361 28.1989 31.6943 31.9597Z" fill="#292825"/>
<path d="M44.7223 24.1228C43.7194 23.7416 42.6953 23.422 41.6555 23.1658C42.7101 23.3624 43.7392 23.6835 44.7223 24.1228Z" fill="#22211F"/>
<path d="M52.5282 42.5991C50.9223 42.5975 49.3183 42.4852 47.727 42.263C47.1017 41.7178 46.4556 41.1728 45.7901 40.6399C47.1033 40.8555 48.4301 40.9714 49.7599 40.9868C49.9355 40.9891 50.1095 40.9902 50.2817 40.9899C50.7819 40.9899 51.2695 40.9822 51.7466 40.9747C52.2238 40.9672 52.6904 40.9602 53.1535 40.9602C54.8342 40.9602 56.4585 41.0581 58.2755 41.6094C58.461 41.666 58.6484 41.7235 58.8376 41.7839C57.2803 42.3135 55.0286 42.5991 52.5282 42.5991Z" fill="#383733"/>
<path d="M59.3664 41.5831C59.2794 41.5495 59.1929 41.5157 59.1081 41.4813C56.8291 40.5903 54.6467 39.4572 52.5963 38.1003C52.6864 37.7256 52.6709 37.3323 52.5514 36.9664C52.432 36.6006 52.2136 36.2773 51.9219 36.0345C50.6278 34.9229 49.2437 33.927 47.7848 33.0577C46.203 32.1435 44.5289 30.7922 42.6657 30.7608H42.6046C41.9182 30.7613 41.2461 30.9629 40.667 31.342C39.4001 30.9837 38.0929 30.7983 36.7791 30.7908C35.7091 30.7893 34.643 30.9251 33.6057 31.195C33.3595 31.2593 33.1064 31.2917 32.8523 31.2915C32.5055 31.2902 32.1611 31.2326 31.8317 31.1208C31.9615 30.394 32.134 29.6761 32.3484 28.9708C34.1802 28.4196 35.8045 26.9396 37.6759 26.435C38.3927 26.2415 39.1308 26.144 39.8718 26.1449C41.5586 26.1449 43.1992 26.635 44.7906 27.3691C47.6199 28.6737 50.2103 30.9776 52.5195 33.064C55.0251 35.3295 57.0311 38.3055 59.7407 40.3015C59.9534 40.4542 60.2071 40.535 60.4665 40.5326C60.5996 40.5322 60.7319 40.5123 60.8596 40.4736C60.6102 40.9047 60.0914 41.2761 59.3664 41.5831Z" fill="#22211F"/>
<path d="M60.4661 40.5319C60.2067 40.5342 59.9531 40.4534 59.7404 40.3007C57.0309 38.3048 55.0241 35.3287 52.5193 33.0632C50.2102 30.9769 47.6198 28.6715 44.7904 27.3683C43.1989 26.6333 41.5582 26.1442 39.8716 26.1442C39.1305 26.1432 38.3924 26.2408 37.6756 26.4343C35.8043 26.9389 34.18 28.4189 32.3481 28.9701C33.1751 26.2897 34.6915 23.9575 37.4352 23.2791C38.2016 23.0892 38.9872 22.9939 39.7755 22.995C40.4058 22.9965 41.0349 23.0536 41.6558 23.1657C42.6956 23.422 43.7197 23.7415 44.7226 24.1227C50.985 26.8713 56.7241 34.0377 60.5578 38.7555C60.837 39.0567 61.0041 39.4495 61.0296 39.8649C61.0293 40.08 60.9707 40.2908 60.8606 40.4736C60.7324 40.5122 60.5996 40.5318 60.4661 40.5319Z" fill="#1C1B1A"/>
<path d="M50.8144 39.5986C50.7381 39.5983 50.6618 39.594 50.5859 39.5855C48.1138 39.3114 44.9458 39.365 42.5169 38.261C42.0538 37.9625 41.5871 37.6799 41.1166 37.4134C40.4096 36.8514 39.8475 36.1194 39.4797 35.2818C38.7636 33.6779 39.4409 32.1457 40.6653 31.3418C44.6373 32.439 48.3487 34.997 51.6433 37.4294C51.956 37.6605 52.2731 37.8843 52.5946 38.1008C52.5122 38.5238 52.2898 38.9043 51.9651 39.1774C51.6405 39.4505 51.2338 39.5994 50.8144 39.5986Z" fill="#2D2C29"/>
<path d="M52.5953 38.1008C52.2737 37.8841 51.9566 37.6603 51.6439 37.4294C48.3493 34.9971 44.6379 32.439 40.666 31.3418C41.245 30.9627 41.9171 30.7611 42.6036 30.7606H42.6647C44.5278 30.7928 46.2019 32.1441 47.7837 33.0575C49.2426 33.9268 50.6267 34.9227 51.9209 36.0343C52.2127 36.2772 52.4311 36.6006 52.5506 36.9666C52.67 37.3326 52.6855 37.7261 52.5953 38.1008Z" fill="#272623"/>
<path d="M9.71357 45.3886C12.3242 49.8224 18.0454 48.4435 26.3019 43.6316C32.9171 39.7759 38.5177 33.1745 34.6984 32.4478C27.0343 30.9877 14.0012 28.3844 8.8046 35.5133C6.62508 38.5039 7.90475 42.3153 9.71357 45.3886Z" fill="#474640"/>
<path d="M11.8063 32.8164C12.6892 32.3051 13.6267 31.9007 14.6001 31.6113C13.6464 31.9555 12.7135 32.3579 11.8063 32.8164Z" fill="#3D3C36"/>
<path d="M14.5584 48.0749C12.5999 48.0749 11.0628 47.365 9.98193 45.8108C10.13 45.7995 10.2774 45.7939 10.4264 45.7939C11.6123 45.7939 12.8248 46.1346 14.033 46.1453C14.1655 46.1467 14.2979 46.1467 14.4305 46.1467C15.7979 46.1467 17.1936 46.0778 18.5215 45.7333C21.8128 44.8762 24.8992 43.337 27.5918 41.2098C27.5006 41.786 27.4418 42.3671 27.4154 42.9502C27.0476 43.1853 26.6762 43.4119 26.301 43.6301C21.4862 46.4371 17.5343 48.0756 14.5584 48.0749Z" fill="#5D5C55"/>
<path d="M9.31882 44.694C8.98712 44.0841 8.69181 43.4541 8.43451 42.8074C9.44388 41.2699 9.76027 39.1874 10.8254 37.6608C12.2308 35.6472 14.2808 34.5776 16.5511 33.9306C18.523 33.3694 20.6957 33.2347 22.8172 33.2347C23.7321 33.2347 24.6373 33.2599 25.5118 33.286C28.3196 33.3709 31.1698 34.1129 33.9797 34.1129C34.3229 34.1129 34.6645 34.1022 35.0063 34.0776C35.1907 34.0595 35.3688 33.9989 35.5273 33.9003C35.6858 33.8017 35.8207 33.6676 35.9218 33.508C35.9331 33.5835 35.9386 33.6598 35.9383 33.7362C35.9049 34.2682 35.7495 34.7846 35.4849 35.243C35.4014 35.272 35.3189 35.3012 35.2371 35.3288C35.232 35.3309 35.2268 35.3327 35.2215 35.3341C34.8916 35.2997 34.5602 35.2823 34.2286 35.2821C33.1858 35.2761 32.151 35.4692 31.1767 35.8518C30.6476 36.0587 30.1573 36.3581 29.7274 36.7369C28.9658 36.8601 28.2009 36.95 27.4324 37.0065C26.8683 37.0463 26.295 37.0899 25.7174 37.1404C25.5439 36.9368 25.3299 36.7739 25.0899 36.6626C24.8499 36.5514 24.5895 36.4946 24.3263 36.4958H24.3046C22.7117 36.4888 21.1212 36.6218 19.5502 36.8933C17.8642 37.2088 15.8536 37.2639 14.4787 38.394C14.0968 38.7073 13.7855 39.1021 13.5661 39.5511C13.3468 40.0001 13.2246 40.4926 13.208 40.9948C12.2324 41.744 11.3708 42.6387 10.6519 43.6493C10.313 44.1207 9.8506 44.483 9.31882 44.694Z" fill="#3D3C36"/>
<path d="M8.43504 42.8073C7.95079 41.6475 7.68624 40.4033 7.65559 39.1414C7.636 37.8346 8.03954 36.5581 8.8027 35.513C9.61279 34.4108 10.6356 33.4928 11.807 32.8165C12.7142 32.358 13.6471 31.9556 14.6008 31.6114C16.6299 30.9927 18.898 30.757 21.2256 30.757C25.9732 30.757 30.9702 31.7378 34.6958 32.4475C35.4543 32.5914 35.8413 32.9681 35.9226 33.5087C35.8214 33.6683 35.6865 33.8024 35.528 33.901C35.3695 33.9996 35.1914 34.0602 35.007 34.0783C34.6652 34.1027 34.3236 34.1136 33.9805 34.1136C31.1698 34.1136 28.3194 33.3716 25.5125 33.2867C24.6371 33.2606 23.7326 33.2354 22.8179 33.2354C20.6972 33.2354 18.5235 33.3701 16.5518 33.9313C14.2815 34.5783 12.2315 35.6479 10.8261 37.6615C9.76079 39.1874 9.4444 41.27 8.43504 42.8073Z" fill="#34332E"/>
<path d="M17.0816 44.1971C16.2942 44.1976 15.5171 44.0129 14.8097 43.6572C14.3155 43.4276 13.8991 43.0515 13.6139 42.5771C13.3287 42.1027 13.1875 41.5516 13.2085 40.9942C16.6825 38.3153 21.34 37.5252 25.7177 37.14C26.3869 37.9171 26.4435 39.2058 25.414 39.9062C23.0052 41.5448 20.12 44.1971 17.0816 44.1971Z" fill="#4E4D46"/>
<path d="M13.209 40.9943C13.2256 40.4921 13.3477 39.9995 13.5671 39.5505C13.7865 39.1016 14.0978 38.7068 14.4797 38.3934C15.8553 37.2633 17.8651 37.2082 19.5512 36.8927C21.1221 36.6212 22.7127 36.4883 24.3056 36.4953H24.3272C24.5905 36.494 24.8509 36.5509 25.0909 36.6621C25.3309 36.7733 25.5449 36.9362 25.7184 37.1399C21.3406 37.525 16.683 38.3152 13.209 40.9943Z" fill="#44433C"/>
<path d="M27.3928 43.595C27.3235 48.1238 32.1806 49.8365 40.4662 50.2171C47.103 50.5218 54.2281 48.3099 51.73 45.947C46.7159 41.2077 38.242 33.056 31.1771 35.8512C28.2153 37.0243 27.4405 40.4568 27.3928 43.595Z" fill="#D4B982"/>
<path d="M52.1719 47.2902C50.3467 46.3147 47.5463 44.746 45.5231 43.5216C45.5482 43.3232 45.5298 43.1215 45.4694 42.9313C45.409 42.7411 45.3081 42.5672 45.1741 42.4222C44.3783 41.577 43.8819 40.6328 42.9231 39.9263C41.9751 39.2218 40.9579 38.6216 39.8882 38.1354C37.8619 37.2152 35.672 36.9188 33.4866 36.6884C33.3998 36.6788 33.3126 36.6739 33.2253 36.6739C31.9293 36.6739 31.3168 37.765 31.3777 38.8813C31.1454 38.9732 30.9064 39.0728 30.6652 39.183C29.7913 39.5827 28.7798 40.0099 27.8024 40.183C28.2915 38.2628 29.2911 36.5998 31.1774 35.8518C32.1517 35.4693 33.1865 35.2761 34.2293 35.2821C40.5579 35.2821 47.4211 41.875 51.7303 45.9475C52.0801 46.2783 52.2409 46.6069 52.2409 46.9253C52.2406 47.0503 52.2171 47.1742 52.1719 47.2902Z" fill="#E1CC9A"/>
<path d="M41.7132 50.2456C41.2979 50.2456 40.8811 50.2357 40.4672 50.2173C32.2389 49.8391 27.3915 48.1477 27.3931 43.688C27.3931 43.6573 27.3931 43.6268 27.3931 43.5961C27.4011 42.9751 27.4421 42.3551 27.5158 41.7387C27.5731 41.7265 27.6315 41.7203 27.69 41.7203C28.0875 41.7203 28.5348 42.0158 29.2621 42.7931C32.186 45.9182 37.6297 46.9762 40.3712 47.3621C43.7656 47.8384 47.7696 47.7381 50.9078 48.4784C49.02 49.5236 45.3889 50.2456 41.7132 50.2456Z" fill="#C3A265"/>
<path d="M44.2958 44.7942C44.1521 44.7931 44.0097 44.7669 43.8745 44.7168C42.186 44.1272 40.5366 43.4248 38.937 42.6143C37.2175 41.7301 35.3819 41.4245 33.4859 41.2277C32.143 41.0884 31.4373 39.9729 31.3778 38.881C32.4958 38.4247 33.6856 38.1831 34.8883 38.1682C38.6972 38.1682 41.3464 40.8648 44.347 42.7911C44.6916 43.0116 45.0891 43.2589 45.5224 43.5215C45.4502 44.183 44.965 44.7942 44.2958 44.7942Z" fill="#E5D1A0"/>
<path d="M45.5222 43.5217C45.089 43.2591 44.6915 43.0125 44.3469 42.7912C41.3455 40.8649 38.6971 38.1684 34.8881 38.1684C33.6854 38.1832 32.4956 38.4248 31.3776 38.8811C31.3165 37.7648 31.9291 36.6737 33.2252 36.6737C33.3125 36.6737 33.3998 36.6786 33.4866 36.6882C35.6713 36.9187 37.8621 37.2151 39.8881 38.1353C40.9579 38.6214 41.9751 39.2216 42.923 39.9261C43.8811 40.6329 44.3776 41.5761 45.174 42.4221C45.3079 42.5672 45.4087 42.7411 45.4689 42.9314C45.5292 43.1216 45.5474 43.3233 45.5222 43.5217Z" fill="#EDDDB2"/>
</svg>
