<svg width="62" height="62" viewBox="0 0 62 62" fill="none" xmlns="http://www.w3.org/2000/svg">
<path opacity="0.4" d="M41.8238 5.16669H20.1754C10.7721 5.16669 5.16626 10.7725 5.16626 20.1759V41.7984C5.16626 51.2275 10.7721 56.8334 20.1754 56.8334H41.7979C51.2013 56.8334 56.8071 51.2275 56.8071 41.8242V20.1759C56.8329 10.7725 51.2271 5.16669 41.8238 5.16669Z" fill="#F5E0BC"/>
<path opacity="0.7" d="M40.1196 36.7092C39.6287 36.7092 39.1379 36.5283 38.7504 36.1408L31.0004 28.3908L23.2504 36.1408C22.5012 36.89 21.2612 36.89 20.5121 36.1408C19.7629 35.3917 19.7629 34.1517 20.5121 33.4025L29.6312 24.2833C30.3804 23.5342 31.6204 23.5342 32.3696 24.2833L41.4887 33.4025C42.2379 34.1517 42.2379 35.3917 41.4887 36.1408C41.1012 36.5283 40.6104 36.7092 40.1196 36.7092Z" fill="#362918"/>
</svg>
