<svg width="40" height="40" viewBox="0 0 40 40" fill="none" xmlns="http://www.w3.org/2000/svg">
<path d="M11.6666 11.6666H13.1166C14.0166 11.6666 14.725 12.4416 14.65 13.3333L13.9583 21.6333C13.8416 22.9916 14.9166 24.1583 16.2833 24.1583H25.1583C26.3583 24.1583 27.4083 23.175 27.5 21.9833L27.95 15.7333C28.05 14.35 27 13.225 25.6083 13.225H14.85" stroke="#292D32" stroke-width="1.225" stroke-miterlimit="10" stroke-linecap="round" stroke-linejoin="round"/>
<path opacity="0.4" d="M23.5415 28.3333C24.1168 28.3333 24.5832 27.867 24.5832 27.2917C24.5832 26.7164 24.1168 26.25 23.5415 26.25C22.9662 26.25 22.4999 26.7164 22.4999 27.2917C22.4999 27.867 22.9662 28.3333 23.5415 28.3333Z" stroke="#292D32" stroke-width="1.225" stroke-miterlimit="10" stroke-linecap="round" stroke-linejoin="round"/>
<path opacity="0.4" d="M16.8749 28.3333C17.4502 28.3333 17.9166 27.867 17.9166 27.2917C17.9166 26.7164 17.4502 26.25 16.8749 26.25C16.2996 26.25 15.8333 26.7164 15.8333 27.2917C15.8333 27.867 16.2996 28.3333 16.8749 28.3333Z" stroke="#292D32" stroke-width="1.225" stroke-miterlimit="10" stroke-linecap="round" stroke-linejoin="round"/>
<path opacity="0.4" d="M17.4999 16.6666H27.4999" stroke="#292D32" stroke-width="1.225" stroke-miterlimit="10" stroke-linecap="round" stroke-linejoin="round"/>
</svg>
