<svg width="764" height="1751" viewBox="0 0 764 1751" fill="none" xmlns="http://www.w3.org/2000/svg">
<path fill-rule="evenodd" clip-rule="evenodd" d="M597.701 1719.54C595.661 1722.53 593.609 1725.49 591.548 1728.41C591.548 1728.41 590.148 1727.49 589.681 1727.19C587.991 1728.75 587.701 1731.23 586.011 1732.79C574.937 1741.54 561.79 1742.26 548.995 1748.55L547.129 1747.32L545.905 1749.19L544.039 1747.96L542.815 1749.83L540.949 1748.61L539.726 1750.47C534.915 1748.65 529.363 1751.02 526.081 1746.87L524.857 1748.73C521.592 1746.59 518.807 1746.77 516.024 1746.94C508.429 1745.3 499.932 1747.07 492.337 1745.42C482.731 1743.8 473.721 1739.22 463.518 1740.54C462.279 1740.4 461.025 1738.24 459.785 1738.09C454.057 1737.67 448.022 1737.72 443.051 1735.13C442.279 1735.29 440.428 1736.08 439.961 1735.77C436.534 1732.86 433.123 1731.96 428.182 1733.39C426.944 1733.24 425.85 1731.86 424.45 1730.94C419.639 1729.12 414.699 1730.55 410.805 1727.33C410.653 1727.23 410.321 1727.3 409.927 1727.42L122.435 1538.95C121.639 1537.95 120.825 1536.97 119.97 1536C118.409 1534.31 118.233 1531.52 116.512 1529.06C115.113 1528.14 113.407 1527.69 112.78 1526.61C104.61 1510.58 95.683 1496.72 86.129 1481.79C84.408 1479.33 84.682 1474.84 82.028 1471.76C79.374 1468.69 76.72 1465.61 75.144 1461.91C73.772 1457.41 71.277 1453.73 68.702 1450.08C67.155 1445.69 65.669 1441.27 64.249 1436.79C54.364 1417.81 45.36 1398.44 37.187 1378.76C35.595 1373.44 34.127 1368.09 32.754 1362.74C27.192 1343.75 21.324 1325.23 18.546 1306.06C11.818 1256.29 5.587 1210.85 1.788 1159.66C0.953 1151.77 2.758 1144.95 2.696 1136.9C2.198 1132.57 0.622 1128.87 0.124 1124.54C0.254 1121.29 1.157 1117.88 1.286 1114.63C1.27 1112.62 0.016 1110.46 0 1108.45C1.354 1103.34 1.789 1099.62 0.519 1095.45C0.182 1091.89 1.551 1088.79 1.68 1085.54C-0.839 1059.87 -0.0910001 1036.34 2.346 1011.26C2.33 1009.25 1.076 1007.09 1.06 1005.08C2.061 994.394 2.916 984.948 2.678 974.119C2.969 971.641 4.192 969.774 4.482 967.296C4.13 961.729 5.178 957.078 6.224 952.428C6.209 950.417 4.954 948.26 4.939 946.249C7.469 933.231 8.454 920.535 11.451 907.823C13.416 901.773 15.075 896.19 16.574 889.834C23.37 868.273 27.689 846.422 35.259 824.7C37.981 816.478 40.091 809.189 42.201 801.9C54.976 752.904 69.778 705.905 80.075 656.619C81.428 651.502 84.02 646.53 84.907 641.107C85.197 638.629 84.554 635.54 84.845 633.062C88.567 614.155 95.089 597.084 99.745 578.789C100.341 575.844 103.11 573.656 104.172 571.018C105.686 566.673 106.267 561.717 107.781 557.373C108.844 554.734 111.612 552.546 112.675 549.908C113.432 547.735 113.722 545.257 114.479 543.085C117.538 538.419 119.824 533.915 121.644 529.104C123.464 524.292 125.139 520.721 127.118 516.682C128.633 512.338 132.013 509.217 133.993 505.179C135.056 502.54 135.958 499.129 137.021 496.49C140.837 489.652 144.347 483.281 148.323 477.215C164.664 449.236 180.845 420.485 202.624 395.404C208.145 389.018 211.494 381.874 216.549 375.181C217.933 374.087 219.478 373.766 220.863 372.672C223.776 369.245 225.29 364.901 228.203 361.474C229.893 359.914 232.05 358.659 233.74 357.099L237.411 351.5C239.101 349.939 241.258 348.685 242.948 347.125L246.618 341.526C248.308 339.965 250.465 338.711 252.155 337.15C254.151 335.124 255.053 331.712 257.515 329.991C261.974 326.243 264.261 321.738 267.947 318.151C274.707 311.909 280.067 304.75 287.294 298.814C289.757 297.093 290.659 293.682 293.121 291.96C297.58 288.212 299.4 283.401 303.553 280.12C308.622 275.439 314.32 271.836 317.83 265.465C318.747 264.065 320.759 264.049 322.143 262.956C325.057 259.529 327.037 255.49 330.884 252.675C335.809 249.233 337.613 242.411 342.538 238.969C345.773 237.087 346.515 232.903 349.122 229.943L352.212 229.3C354.514 226.807 356.044 224.474 358.506 222.753C360.969 221.032 361.871 217.621 363.867 215.593C365.251 214.5 366.796 214.178 368.18 213.084C369.87 211.524 370.16 209.046 371.85 207.485C373.235 206.392 375.246 206.376 376.164 204.977C378.305 201.71 380.928 200.762 382.458 198.429C388.124 190.803 395.978 185.946 403.205 180.01C404.895 178.45 405.492 175.505 407.342 174.717C411.044 173.141 414.424 170.02 418.592 168.75C419.67 168.123 419.655 166.111 421.039 165.018C422.118 164.39 423.051 165.002 424.129 164.375C425.513 163.281 425.498 161.27 426.576 160.642C430.278 159.066 434.751 157.33 436.426 153.758L438.292 154.981C446.147 150.124 454.001 145.266 462.949 141.793C464.027 141.166 464.317 138.688 465.09 138.527C469.113 138.496 469.082 134.473 473.105 134.442C473.877 134.281 474.168 131.803 475.246 131.176C479.414 129.906 482.488 127.252 485.563 124.598C487.253 123.037 490.036 122.861 492.499 121.14L494.946 117.407C498.793 114.592 502.8 112.55 506.486 108.962C509.255 106.775 513.262 104.732 516.336 102.078C526.638 93.488 539.432 87.2 550.361 79.688C572.975 62.493 596.231 48.387 623.687 37.034C644.512 28.672 662.087 20.181 682.285 10.741C684.136 9.953 686.614 10.243 688.464 9.455C695.24 5.225 702.643 2.073 710.674 0C711.913 0.145 713.167 2.301 714.406 2.447C718.429 2.416 721.97 0.067 725.542 1.742C733.313 6.169 741.084 10.597 747.632 16.891C750.592 19.498 750.477 24.76 753.598 28.141L752.375 30.007C759.145 45.119 758.336 60.599 761.244 76.514C761.42 79.298 761.451 83.321 762.094 86.411C764.582 108.055 763.192 128.491 761.351 150.633C761.222 153.883 763.409 156.652 763.28 159.902C763.135 161.142 760.978 162.396 760.833 163.635C764.544 183.413 759.888 201.708 759.271 221.983C758.057 245.203 756.523 266.878 751.898 289.196C750.705 295.085 750.737 299.108 751.395 304.209C751.249 305.449 749.093 306.703 748.948 307.942C748.232 335.491 742.077 360.142 739.656 387.24C739.511 388.479 737.354 389.733 737.209 390.972C734.756 414.047 734.621 436.64 732.635 460.021C732.49 461.26 734.356 462.483 734.678 464.028C733.967 472.235 734.802 480.12 733.625 488.021C732.609 496.694 733.137 505.045 734.278 512.464C736.061 522.973 733.209 534.445 734.059 544.342C734.681 564.762 730.958 583.669 726.463 602.736C725.867 605.681 726.349 607.999 726.525 610.782C726.38 612.021 724.223 613.276 724.078 614.515C725.83 621 721.226 625.988 722.979 632.473C722.833 633.712 720.677 634.967 720.532 636.206C720.272 642.707 718.001 649.223 716.809 655.112C715.456 660.229 715.969 666.569 713.843 671.847C712.926 673.247 714.647 675.709 714.662 677.721C714.517 678.959 712.361 680.214 712.215 681.453C713.195 688.1 713.097 695.373 709.892 701.278L710.535 704.367C705.19 713.538 700.618 722.548 692.939 730.189C688.481 733.938 682.929 736.302 676.909 738.359C675.059 739.147 672.29 741.335 669.33 738.728C667.656 742.299 663.939 741.864 662.233 741.413C659.595 740.35 656.826 742.538 655.105 740.075L653.881 741.941C652.642 741.796 651.388 739.64 650.149 739.494C646.126 739.525 641.797 740.023 638.37 737.109L637.147 738.976C633.881 736.834 631.418 738.556 628.152 736.415C626.753 735.497 624.29 737.218 622.279 737.233C617.628 736.186 613.605 736.217 609.582 736.248C595.035 736.051 582.163 732.282 567.456 731.312C555.226 730.633 543.624 731.032 530.622 730.513C529.077 730.834 528.159 732.234 526.308 733.022C519.517 735.241 512.213 731.119 505.437 735.349C501.896 737.698 497.552 736.184 493.223 736.681C476.696 740.522 460.474 743.897 443.947 747.738C407.496 756.53 373.042 763.295 336.768 774.87C328.432 777.41 321.029 780.562 312.532 782.33C310.681 783.118 309.152 785.451 306.995 786.705C253.743 803.828 213.502 842.822 186.471 889.143C186.019 890.848 186.807 892.699 185.889 894.099C180.384 902.497 176.117 911.041 173.717 920.808C172.96 922.98 170.803 924.234 170.513 926.712C169.175 933.841 168.61 940.808 166.033 947.791C162.072 955.868 159.495 962.851 160.636 970.27C161.937 978.461 157.815 985.766 158.956 993.184C159.308 998.752 158.406 1002.16 158.437 1006.19C158.706 1021.04 158.188 1034.04 160.614 1047.64C162.734 1061.7 166.077 1073.9 168.197 1087.97C168.84 1091.06 171.8 1093.66 173.216 1096.59C173.537 1098.14 172.313 1100.01 172.941 1101.08C188.607 1126.03 203.355 1152.38 227.005 1169.21C228.566 1170.9 229.82 1173.06 231.381 1174.75C253.937 1190.21 277.265 1205.5 300.433 1220.02C302.605 1220.78 305.084 1221.07 307.256 1221.83C324.358 1232.37 343.135 1239.34 362.539 1247.4C366.112 1249.07 368.299 1251.84 371.871 1253.51C374.043 1254.27 376.521 1254.56 378.694 1255.32L384.292 1258.99C386.465 1259.75 388.943 1260.03 391.115 1260.79C392.981 1262.02 394.541 1263.71 396.714 1264.46C401.364 1265.51 405.097 1267.96 409.441 1269.47C415.185 1271.9 421.074 1273.1 426.818 1275.53C452.884 1284.61 477.872 1294.32 502.263 1306.98C504.435 1307.73 507.219 1307.56 509.085 1308.78C513.284 1311.53 517.629 1313.05 521.201 1314.72C543.114 1327.09 564.722 1339.92 584.349 1356.79C589.803 1361.7 595.547 1364.13 600.534 1368.73C601.161 1369.81 600.549 1370.74 601.177 1371.82C602.27 1373.21 604.282 1373.19 604.909 1374.27C606.485 1377.97 609.606 1381.35 610.715 1384.75C618.273 1401.71 624.126 1418.22 624.587 1437.87C624.924 1441.43 627.272 1444.97 627.609 1448.52C628.024 1462.14 629.05 1474.82 628.692 1488.59C628.432 1495.09 626.613 1499.9 627.593 1506.55C627.447 1507.79 625.291 1509.04 625.145 1510.28C625.513 1517.86 623.097 1525.62 622.066 1532.28C619.758 1554.11 614.812 1574.89 615.449 1597.32C615.657 1604.13 613.997 1609.71 614.816 1615.58C614.671 1616.82 612.514 1618.08 612.369 1619.31C612.592 1628.13 611.882 1636.34 609.932 1644.4C609.481 1646.11 610.736 1648.26 610.751 1650.28C610.606 1651.52 608.45 1652.77 608.305 1654.01C608.817 1660.35 607.159 1665.93 605.966 1671.82C605.691 1676.31 604.322 1679.42 604.82 1683.74C604.675 1684.98 602.518 1686.24 602.373 1687.48C601.984 1697.23 599.729 1705.76 600.112 1715.35C599.967 1716.59 597.81 1717.84 597.665 1719.08C597.666 1719.23 597.686 1719.39 597.701 1719.54Z" fill="#F8A271"/>
</svg>
