<svg width="70" height="70" viewBox="0 0 70 70" fill="none" xmlns="http://www.w3.org/2000/svg">
<path d="M30.9375 25.9375H39.0625C41.8239 25.9375 44.0625 28.1761 44.0625 30.9375V39.0625C44.0625 41.8239 41.8239 44.0625 39.0625 44.0625H30.9375C28.1761 44.0625 25.9375 41.8239 25.9375 39.0625V30.9375C25.9375 28.1761 28.1761 25.9375 30.9375 25.9375Z" stroke="#352817" stroke-width="1.5" stroke-linecap="round" stroke-linejoin="round"/>
<path d="M29.6875 35.9375C29.6875 35.9375 31.25 39.0625 35 39.0625C38.75 39.0625 40.3125 35.9375 40.3125 35.9375" stroke="#352817" stroke-width="1.5" stroke-linecap="round" stroke-linejoin="round"/>
<path d="M37.5 33.75C38.1904 33.75 38.75 33.1904 38.75 32.5C38.75 31.8096 38.1904 31.25 37.5 31.25C36.8096 31.25 36.25 31.8096 36.25 32.5C36.25 33.1904 36.8096 33.75 37.5 33.75Z" fill="#352817"/>
<path d="M32.5 33.75C33.1904 33.75 33.75 33.1904 33.75 32.5C33.75 31.8096 33.1904 31.25 32.5 31.25C31.8096 31.25 31.25 31.8096 31.25 32.5C31.25 33.1904 31.8096 33.75 32.5 33.75Z" fill="#352817"/>
</svg>
