<svg width="375" height="256" viewBox="0 0 375 256" fill="none" xmlns="http://www.w3.org/2000/svg">
<g filter="url(#filter0_f_5_958)">
<path fill-rule="evenodd" clip-rule="evenodd" d="M11.8369 117.995C11.808 117.953 11.7698 117.921 11.742 117.878C11.6563 117.744 11.5879 117.618 11.4513 117.522C11.3459 117.447 11.2104 117.407 11.0969 117.337C10.9661 117.26 10.8816 117.167 10.7773 117.062C10.709 116.993 10.6303 116.949 10.5619 116.885C10.5214 116.846 10.4948 116.799 10.4577 116.76C10.3824 116.681 10.2724 116.602 10.1659 116.572C10.057 116.542 9.91576 116.565 9.80227 116.565C9.68763 116.565 9.52203 116.536 9.4097 116.564C9.36222 116.575 9.33906 116.594 9.28811 116.601C9.21515 116.612 9.12946 116.601 9.0565 116.601C8.8967 116.601 8.74615 116.587 8.59677 116.64C8.41727 116.704 8.23083 116.763 8.04671 116.814C7.86721 116.864 7.72709 116.992 7.54875 117.046C7.4758 117.068 7.40632 117.068 7.33684 117.103C7.28241 117.132 7.23493 117.173 7.17819 117.201C7.10407 117.235 7.02533 117.245 6.95006 117.274C6.85278 117.312 6.77519 117.388 6.68834 117.443C6.59107 117.503 6.50653 117.576 6.41389 117.645C6.35483 117.689 6.30272 117.738 6.23092 117.761C6.15912 117.786 6.08964 117.821 6.01437 117.836C5.89857 117.858 5.81403 117.823 5.70055 117.905C5.66928 117.928 5.64265 117.97 5.6079 117.985C5.55116 118.011 5.48863 118.018 5.43073 118.052C5.36819 118.088 5.28945 118.109 5.23039 118.146C5.21186 118.157 5.20144 118.175 5.18407 118.187C5.13659 118.222 5.08679 118.23 5.03237 118.251C4.90846 118.299 4.77644 118.325 4.65601 118.378C4.60737 118.399 4.57263 118.429 4.52399 118.453C4.40356 118.509 4.25996 118.53 4.15111 118.61C4.09089 118.653 4.03067 118.699 3.97625 118.749C3.8836 118.832 3.77822 118.909 3.68211 118.992C3.63926 119.03 3.61147 119.079 3.57557 119.12C3.52578 119.174 3.49103 119.231 3.44587 119.289C3.37176 119.384 3.27448 119.468 3.20153 119.568C3.09152 119.716 2.93402 119.825 2.84138 119.985C2.736 120.166 2.64568 120.361 2.55998 120.553C2.3828 120.949 2.23574 121.362 2.13614 121.784C1.97865 122.455 1.93696 123.166 2.12341 123.835C2.25774 124.313 2.41986 124.832 2.69779 125.244C2.83328 125.445 2.80201 125.451 3.03361 125.557C3.25248 125.658 3.49682 125.778 3.70064 125.911C4.02373 126.12 4.20206 126.09 4.60969 126.093C5.16207 126.098 5.79435 126.074 6.32009 125.906C7.08555 125.66 7.73867 125.335 8.4138 124.903C8.52844 124.83 8.64309 124.764 8.74731 124.68C8.78089 124.655 8.811 124.648 8.84574 124.628C8.98355 124.553 9.13872 124.477 9.26842 124.383C9.33675 124.333 9.39233 124.273 9.44907 124.21C9.52203 124.129 9.61815 124.074 9.69805 123.997C9.87523 123.832 10.057 123.652 10.2493 123.506C10.3709 123.414 10.5087 123.291 10.5955 123.163C10.6812 123.037 10.8132 122.954 10.9024 122.831C10.9615 122.75 11.0089 122.656 11.0692 122.579C11.1143 122.52 11.1722 122.459 11.2209 122.404C11.2579 122.361 11.2556 122.294 11.2845 122.256C11.3042 122.228 11.3459 122.207 11.3726 122.179C11.42 122.129 11.471 122.073 11.5161 122.02C11.5798 121.944 11.6285 121.893 11.6748 121.8C11.7246 121.703 11.742 121.613 11.8207 121.54C11.933 121.437 11.962 121.278 12.0338 121.144C12.1137 120.994 12.1797 120.843 12.2515 120.691C12.2932 120.602 12.3603 120.525 12.3997 120.435C12.5225 120.157 12.4796 119.824 12.4796 119.53C12.4808 119.457 12.4958 119.365 12.475 119.294C12.4518 119.217 12.3766 119.164 12.3546 119.085C12.3418 119.042 12.343 118.997 12.3314 118.953C12.3071 118.866 12.2665 118.78 12.2411 118.695C12.1936 118.538 12.0685 118.418 11.984 118.277C11.9319 118.192 11.8971 118.106 11.852 118.019C11.8473 118.011 11.8416 118.003 11.8369 117.995Z" fill="#E3A161"/>
</g>
<g filter="url(#filter1_f_5_958)">
<path fill-rule="evenodd" clip-rule="evenodd" d="M61.1082 12.5059C61.0531 12.4417 60.9841 12.3944 60.9307 12.3281C60.7655 12.1199 60.6306 11.9221 60.3874 11.7861C60.1999 11.6811 59.9682 11.6371 59.768 11.5412C59.5376 11.4349 59.3815 11.2956 59.1906 11.1386C59.0655 11.037 58.9274 10.9774 58.8029 10.8816C58.7291 10.8251 58.6768 10.7509 58.6086 10.6919C58.4702 10.5741 58.2742 10.4623 58.0923 10.4306C57.9066 10.3993 57.6762 10.4619 57.4879 10.4813C57.2977 10.5009 57.018 10.4812 56.8364 10.5465C56.7596 10.5739 56.7243 10.6086 56.641 10.6288C56.5219 10.6605 56.3778 10.656 56.2567 10.6684C55.9916 10.6958 55.7394 10.6985 55.5007 10.8124C55.2138 10.9488 54.9146 11.0787 54.6178 11.1947C54.3286 11.3081 54.1181 11.5453 53.8313 11.6642C53.7141 11.7132 53.5988 11.7251 53.4897 11.7965C53.4043 11.8539 53.3325 11.9292 53.2431 11.9851C53.1261 12.0554 52.997 12.0842 52.8771 12.1451C52.7222 12.2252 52.6066 12.3653 52.4718 12.4704C52.3207 12.587 52.193 12.7225 52.0512 12.8536C51.9607 12.9367 51.8826 13.0263 51.7674 13.077C51.6525 13.1297 51.5433 13.2011 51.421 13.239C51.2327 13.2953 51.0863 13.2502 50.912 13.406C50.8641 13.4498 50.8271 13.5235 50.772 13.5545C50.6824 13.6084 50.5799 13.6306 50.4896 13.6962C50.392 13.7665 50.2649 13.8145 50.1732 13.8861C50.1445 13.9085 50.1302 13.9391 50.1035 13.9632C50.0307 14.029 49.9495 14.0509 49.8627 14.0948C49.6653 14.1948 49.4508 14.2616 49.2601 14.3706C49.183 14.4135 49.1305 14.4694 49.0538 14.5161C48.8637 14.6309 48.629 14.69 48.4621 14.8412C48.3695 14.9226 48.2775 15.0098 48.1958 15.1017C48.0563 15.2559 47.8946 15.4007 47.7494 15.5555C47.6848 15.6262 47.647 15.7117 47.5944 15.785C47.5211 15.8839 47.4732 15.984 47.4082 16.0877C47.3014 16.258 47.1545 16.4149 47.0505 16.5926C46.8934 16.8573 46.6507 17.0649 46.5244 17.3459C46.3806 17.6655 46.2641 18.0038 46.1548 18.3373C45.9286 19.0247 45.7551 19.7339 45.6622 20.4522C45.5157 21.5915 45.5682 22.7783 45.992 23.8569C46.2967 24.6274 46.6545 25.4604 47.1861 26.0968C47.4452 26.406 47.3943 26.4209 47.7968 26.558C48.1772 26.6877 48.6032 26.8457 48.9641 27.0318C49.5358 27.3224 49.8265 27.2419 50.5034 27.1779C51.4206 27.0911 52.4655 26.9425 53.309 26.574C54.5369 26.0357 55.5648 25.3841 56.611 24.5519C56.7887 24.4112 56.9676 24.2821 57.1263 24.126C57.1776 24.0779 57.2264 24.0613 57.2807 24.0227C57.4964 23.8742 57.7408 23.7208 57.9399 23.543C58.0448 23.4487 58.1267 23.3393 58.2101 23.2258C58.3173 23.0789 58.4672 22.9702 58.5867 22.8297C58.8523 22.5247 59.1233 22.1958 59.4172 21.9208C59.6031 21.7463 59.8107 21.5191 59.933 21.2929C60.0536 21.0688 60.2584 20.9079 60.3853 20.6889C60.4694 20.5443 60.5321 20.3806 60.6187 20.2416C60.6836 20.1359 60.7693 20.026 60.8405 19.9255C60.8947 19.8481 60.8793 19.737 60.9208 19.6687C60.9487 19.6192 61.0143 19.5775 61.0537 19.5268C61.124 19.4361 61.1988 19.3332 61.2648 19.239C61.3574 19.1013 61.4294 19.0085 61.4904 18.8469C61.5564 18.6769 61.5697 18.5241 61.6879 18.3896C61.8566 18.1994 61.8775 17.9312 61.9736 17.6961C62.0806 17.4346 62.1642 17.1716 62.2574 16.9076C62.3113 16.7525 62.4096 16.6142 62.4595 16.4576C62.6156 15.9755 62.4874 15.4296 62.4371 14.9416C62.4265 14.8203 62.4359 14.666 62.3892 14.5523C62.3375 14.4276 62.2035 14.3521 62.1535 14.2252C62.125 14.1563 62.1192 14.0812 62.0925 14.0101C62.0373 13.8702 61.9554 13.735 61.8984 13.5971C61.7929 13.3459 61.5648 13.1675 61.4004 12.9476C61.2995 12.8162 61.2272 12.68 61.1374 12.5436C61.1283 12.531 61.1173 12.5185 61.1082 12.5059Z" fill="#E3A161"/>
</g>
<g filter="url(#filter2_f_5_958)">
<path fill-rule="evenodd" clip-rule="evenodd" d="M85.2127 38.9447C85.1987 40.7952 85.1719 42.6266 85.1463 44.4478C85.1221 46.2703 85.0991 48.0812 85.0953 49.8935C85.0915 51.7044 85.1068 53.5154 85.1578 55.3353C85.2076 57.1552 85.2931 58.9841 85.4297 60.832C85.4667 61.3259 85.4769 61.8326 85.4769 62.3444C85.4769 62.8549 85.4667 63.373 85.4628 63.8899C85.4603 64.4055 85.4616 64.9211 85.4871 65.4303C85.5113 65.9382 85.5573 66.4398 85.6428 66.9273C85.7232 67.3893 85.8636 67.8398 86.0371 68.2827C86.2107 68.7255 86.6702 68.885 86.8846 69.3202C87.0977 69.7554 87.0658 70.4688 87.2687 70.9091C87.4716 71.3482 87.6567 71.7936 87.7971 72.2479C88.1735 73.4718 88.684 74.674 89.2851 75.8532C89.885 77.0325 90.5767 78.1887 91.3143 79.3182C92.052 80.4489 92.8356 81.5529 93.6218 82.6287C94.4079 83.7046 95.1954 84.7511 95.9432 85.7683C96.3044 86.2596 96.6464 86.7676 96.9795 87.2832C97.3126 87.7975 97.6368 88.3195 97.9597 88.8402C98.2826 89.3609 98.6042 89.8803 98.936 90.3882C99.2665 90.8974 99.8587 91.1169 100.215 91.5955C100.573 92.0767 100.766 92.7952 101.263 93.2036C101.76 93.612 102.309 93.9897 102.874 94.3471C103.439 94.7032 104.02 95.0388 104.582 95.363C105.144 95.6871 105.686 95.9998 106.175 96.3125C106.726 96.666 107.3 96.9838 107.889 97.2747C108.477 97.567 109.079 97.8337 109.689 98.0839C110.3 98.3327 110.916 98.5663 111.532 98.7935C112.15 99.0194 112.766 99.2389 113.375 99.4622C113.637 99.5579 113.89 99.669 114.136 99.7889C114.383 99.9076 114.626 100.035 114.868 100.162C115.111 100.287 115.355 100.412 115.602 100.527C115.851 100.641 116.104 100.747 116.367 100.833C116.835 100.987 117.298 101.043 117.758 101.046C118.219 101.047 118.675 100.994 119.135 100.925C119.593 100.857 120.052 100.775 120.516 100.722C120.98 100.668 121.447 100.643 121.922 100.685C122.683 100.755 123.405 100.825 124.107 100.88C124.809 100.934 125.492 100.969 126.173 100.969C126.856 100.968 127.538 100.93 128.239 100.834C128.94 100.738 129.661 100.587 130.422 100.357C131.126 100.144 131.867 99.8731 132.616 99.5541C133.364 99.235 134.118 98.8662 134.849 98.4565C135.579 98.0481 136.286 97.5976 136.937 97.1165C137.588 96.6341 138.185 96.1198 138.696 95.5825C139.211 95.0388 139.565 94.3892 139.797 93.6796C140.029 92.97 140.14 92.1992 140.17 91.413C140.199 90.6269 140.147 89.8241 140.055 89.0507C139.962 88.2773 139.829 87.5333 139.695 86.8633C139.556 86.1626 139.474 85.4633 139.409 84.7652C139.345 84.0671 139.299 83.3715 139.233 82.6811C139.165 81.9919 139.078 81.3066 138.93 80.6289C138.782 79.9525 138.576 79.2825 138.269 78.6239C138.019 78.0867 137.749 77.5583 137.465 77.035C137.182 76.5118 136.887 75.9936 136.589 75.4755C136.291 74.9573 135.989 74.4405 135.693 73.9198C135.395 73.3991 135.104 72.8745 134.827 72.3423C134.432 71.5843 134.034 70.8492 133.63 70.1294C133.227 69.4096 132.819 68.7038 132.401 68.0044C131.985 67.3038 131.562 66.6095 131.129 65.9114C130.695 65.2121 130.252 64.5101 129.798 63.7954C129.416 63.1956 129.073 62.6022 128.74 62.0215C128.407 61.4395 128.084 60.8703 127.742 60.3152C127.398 59.76 127.037 59.2202 126.626 58.6995C126.217 58.1788 125.758 57.6772 125.221 57.1973C125.012 57.0097 124.804 56.8196 124.597 56.6294C124.389 56.438 124.184 56.2453 123.977 56.0538C123.77 55.8611 123.565 55.6697 123.357 55.4795C123.149 55.2894 122.939 55.1005 122.729 54.9154C122.388 54.6168 122.032 54.3577 121.667 54.1191C121.302 53.8817 120.928 53.6647 120.553 53.4516C120.176 53.2385 119.799 53.0279 119.427 52.802C119.054 52.5774 118.687 52.3362 118.332 52.0631C117.962 51.7772 117.617 51.4607 117.283 51.1327C116.949 50.8047 116.625 50.4652 116.293 50.1347C115.962 49.8029 115.624 49.48 115.264 49.1826C114.903 48.8865 114.52 48.6173 114.098 48.3926C113.735 48.2012 113.428 48.0315 113.149 47.8694C112.872 47.706 112.624 47.549 112.379 47.3819C112.133 47.2134 111.892 47.036 111.627 46.8293C111.363 46.6238 111.075 46.3902 110.74 46.1133C110.146 45.6219 109.522 45.2518 108.878 44.957C108.232 44.6635 107.566 44.444 106.888 44.2551C106.209 44.0662 105.519 43.908 104.826 43.7331C104.132 43.5583 103.435 43.3694 102.743 43.118C102.368 42.9814 101.993 42.8883 101.616 42.8168C101.241 42.744 100.864 42.6956 100.488 42.6483C100.111 42.6011 99.7336 42.5577 99.3546 42.4952C98.9755 42.4339 98.5952 42.3548 98.2136 42.2399C97.8601 42.1327 97.5028 42.0676 97.1429 42.0217C96.7843 41.9758 96.4256 41.949 96.0696 41.9196C95.7135 41.8903 95.3613 41.8583 95.0167 41.7996C94.6734 41.7422 94.3365 41.658 94.0123 41.5265C93.595 41.3555 93.2134 41.1768 92.8471 40.9956C92.4808 40.8144 92.1299 40.6332 91.7738 40.4596C91.4177 40.2848 91.0578 40.1188 90.6724 39.9695C90.2883 39.8189 89.8786 39.6862 89.4255 39.5777C89.0401 39.4858 88.6483 39.4131 88.2591 39.334C87.8698 39.2561 87.4857 39.1732 87.1156 39.0596C86.7454 38.9473 86.3907 38.8043 86.0601 38.6078C85.7308 38.41 85.4271 38.1598 85.1604 37.8306" fill="#B4814C"/>
<path fill-rule="evenodd" clip-rule="evenodd" d="M100.468 70.9091C100.184 70.4357 99.8774 69.9724 99.6528 69.4657C99.5622 69.2654 99.5405 69.0599 99.4856 68.8506C99.4563 68.7344 99.4129 68.6272 99.3554 68.5213C99.3044 68.4256 99.2431 68.3375 99.1742 68.2533C98.9471 67.9751 98.7454 67.7071 98.5387 67.4123C98.4863 67.3382 98.397 67.2974 98.3408 67.2196C98.2553 67.097 98.2196 66.9413 98.1277 66.8175C98.0039 66.6529 97.8482 66.4998 97.7334 66.3377C97.6887 66.2726 97.7142 66.2228 97.6747 66.1552C97.6262 66.0735 97.5521 66.0084 97.5036 65.9165C97.4092 65.7417 97.339 65.6332 97.2037 65.4954C96.8119 65.0997 96.6715 64.4884 96.3946 64.0366C96.2874 63.8605 96.1955 63.5976 96.0921 63.4432C95.6825 62.8204 95.0648 62.2971 94.858 61.5531C94.7917 61.3132 94.7546 61.0745 94.6436 60.8473C94.4407 60.4287 94.1395 60.0548 93.8855 59.6707C93.3099 58.8015 92.7446 57.9248 92.2009 57.0352C91.5066 55.8981 90.8417 53.74 89.7939 52.9564C89.6497 54.0068 90.4384 55.237 90.7243 56.2542C91.0714 57.4858 91.4594 58.7058 91.8997 59.9068C92.2813 60.9507 92.7012 61.9794 93.1504 62.994C93.2831 63.2926 93.4452 63.4942 93.5933 63.7725C93.7018 63.9792 93.8485 64.1745 93.9366 64.3927C94.0119 64.5816 94.0565 64.7335 94.1969 64.8904C94.3539 65.0678 94.4369 65.2963 94.5721 65.4979C94.6628 65.6358 94.7725 65.8489 94.8274 66.0276C94.9206 66.3313 95.1413 66.5865 95.2473 66.9031C95.3187 67.1149 95.3864 67.3306 95.4566 67.545C95.5931 67.9661 95.7986 68.3656 96.0066 68.7651C96.1725 69.0828 96.3461 69.4287 96.5962 69.6776C96.7647 69.8448 96.8783 70.0949 97.0097 70.294C97.1693 70.5352 97.242 70.7662 97.3594 71.0163C97.4641 71.2397 97.7066 71.3558 97.8125 71.5804C97.8686 71.7029 97.861 71.7923 97.8801 71.9174C97.921 72.1892 97.9848 72.3066 98.1379 72.5261C98.7326 73.371 98.8973 74.4826 99.6018 75.2585C99.8915 75.5776 100.167 75.8635 100.411 76.2246C100.759 76.7415 101.138 77.2392 101.571 77.6885C102.278 78.4223 103.115 79.0145 103.915 79.6462C108.692 83.4175 112.115 88.59 115.866 93.3848C116.659 94.3981 117.51 95.4102 118.582 96.1402C118.934 96.3814 119.593 96.8664 120.056 96.7987C120.501 96.7336 119.794 95.7879 119.633 95.6169C119.475 95.4472 119.386 95.2609 119.206 95.1052C119.066 94.9826 118.993 94.8448 118.905 94.6827C118.828 94.5423 118.759 94.4402 118.612 94.3254C118.459 94.2041 118.288 94.2016 118.135 94.1212C117.729 93.9055 117.72 93.5137 117.505 93.1729C117.363 92.9483 117.321 92.7965 117.128 92.6229C116.942 92.4544 116.757 92.3881 116.573 92.2387C116.399 92.0971 116.193 91.9197 116.055 91.7436C115.86 91.4973 115.766 91.2637 115.533 91.0531C115.214 90.7647 114.895 90.475 114.577 90.1853C114.304 89.9364 114.038 89.6327 113.712 89.4553C113.112 89.1299 112.725 88.5926 112.303 88.0527C111.13 86.5531 110.193 84.8864 109.043 83.369C108.47 82.6147 107.849 81.9013 107.217 81.1968C106.29 80.1605 105.341 79.1421 104.501 78.0318C104.145 77.5621 103.858 77.0018 103.43 76.5947C102.981 76.1672 102.739 75.6082 102.495 75.0428C102.376 74.7697 102.238 74.5234 102.143 74.2541C102.108 74.1559 102.14 74.1125 102.116 73.99C102.071 73.7692 101.882 73.6033 101.806 73.3978C101.77 73.3021 101.783 73.1936 101.756 73.1004C101.714 72.9485 101.623 72.8528 101.533 72.7252C101.386 72.5197 101.349 72.3168 101.242 72.1024C101.089 71.7974 100.831 71.5434 100.664 71.2435C100.6 71.1312 100.535 71.0202 100.468 70.9091Z" fill="#9C7543"/>
<path fill-rule="evenodd" clip-rule="evenodd" d="M128.843 81.7224C128.565 81.508 128.269 81.3216 127.976 81.1289C127.761 80.986 127.514 80.8545 127.379 80.6248C127.283 80.4627 127.249 80.3109 127.094 80.1858C126.862 79.9995 126.611 79.8463 126.414 79.6128C126.084 79.2197 125.781 78.81 125.396 78.459C124.933 78.0366 124.471 77.5363 123.937 77.2249C123.428 76.9276 123.058 76.4094 122.524 76.1542C122.363 76.0776 122.189 76.0597 122.024 75.9985C121.919 75.9589 121.822 75.904 121.734 75.8351C121.6 75.7305 121.565 75.5875 121.457 75.4688C121.351 75.3527 121.198 75.3463 121.083 75.2493C120.989 75.1689 120.874 74.9775 120.731 75.0247C120.558 74.6712 120.454 74.384 120.08 74.1875C119.831 74.0561 119.646 73.9361 119.436 73.7485C119.275 73.6056 119.225 73.3886 119.045 73.2699C118.837 73.1321 118.65 73.0402 118.463 72.8641C118.356 72.7632 118.273 72.7492 118.157 72.6803C118.026 72.6024 118.029 72.5131 117.948 72.3919C117.61 71.8941 117.225 71.4258 116.891 70.9255C116.097 69.7347 115.211 68.5402 114.053 67.6851C113.522 67.2933 112.946 66.9832 112.445 66.5506C111.934 66.1077 111.383 65.7376 110.849 65.3254C110.321 64.9183 109.868 64.4244 109.346 64.0083C108.816 63.5846 108.357 63.1596 107.894 62.6644C106.851 61.5503 105.936 60.3162 104.957 59.1484C104.274 58.3342 103.432 57.6872 102.665 56.9584C102.442 56.7453 102.276 56.4875 102.055 56.2744C101.871 56.0944 101.685 55.94 101.521 55.7396C101.279 55.4423 101.052 55.1321 100.802 54.8412C100.507 54.4966 100.163 54.2056 99.8878 53.8432C99.556 53.4105 99.2778 52.937 98.9459 52.5044C98.5158 51.9441 98.0475 51.4145 97.6021 50.8657C96.8006 49.8805 95.8677 48.9973 95.1275 47.9674C94.6744 47.3395 94.2328 46.6988 93.7198 46.1169C93.4428 45.8029 93.1327 45.4137 92.7996 45.1571C92.464 44.8981 92.1066 44.6569 91.7659 44.4029C91.2681 44.0328 90.1731 43.4649 90.4335 42.6698C90.4437 42.6391 90.4565 42.6072 90.4705 42.5753C91.0116 41.3884 92.6005 42.9493 93.1965 43.3589C93.8117 43.7801 94.4115 44.2472 94.9743 44.736C95.5563 45.2426 96.0349 45.8182 96.5364 46.4002C97.8063 47.8742 99.0442 49.3853 100.431 50.7509C100.679 50.9946 100.941 51.1835 101.086 51.4936C101.184 51.7016 101.294 51.7986 101.464 51.9505C101.877 52.3232 102.283 52.7048 102.701 53.0723C103.001 53.3378 103.193 53.6696 103.395 54.0142C103.58 54.3319 103.776 54.6842 103.926 55.0198C104.074 55.3517 104.228 55.5903 104.477 55.866C104.657 56.0651 104.891 56.1123 105.064 56.3024C105.247 56.5054 105.353 56.7785 105.519 56.9954C105.673 57.1984 105.848 57.3604 106.037 57.5327C106.18 57.6629 106.3 57.6986 106.46 57.7918C106.615 57.8824 106.731 57.9845 106.907 58.0624C107.121 58.1581 107.372 58.2244 107.571 58.3521C107.649 58.4018 107.707 58.4759 107.79 58.5116C107.977 58.5894 108.116 58.5971 108.29 58.7502C108.45 58.8894 108.625 59.031 108.77 59.1829C108.975 59.3986 109.121 59.6283 109.347 59.8325C109.713 60.1605 109.914 60.5153 110.195 60.9096C110.502 61.341 111.01 61.5643 111.301 62.0072C111.448 62.2305 111.642 62.3952 111.841 62.5726C112.695 63.3319 113.399 64.2393 114.25 65.0025C114.416 65.1518 114.571 65.3203 114.741 65.4632C115.065 65.7389 115.505 65.8742 115.897 66.0222C116.204 66.1371 116.46 66.317 116.756 66.4536C116.945 66.5403 117.137 66.5901 117.308 66.7101C117.696 66.9819 117.978 67.4222 118.239 67.8064C118.384 68.0195 118.456 68.2301 118.585 68.4458C118.886 68.9473 119.329 69.3608 119.631 69.8675C119.815 70.1763 120.025 70.4635 120.284 70.7353C120.685 71.1565 121.212 71.4704 121.573 71.9286C121.76 72.1634 121.944 72.3548 122.167 72.5603C122.307 72.6892 122.437 72.8219 122.598 72.9266C122.901 73.1219 123.082 73.2839 123.303 73.5673C123.642 73.9999 124.121 74.3036 124.46 74.735C124.782 75.1447 125.109 75.6003 125.498 75.9449C125.668 76.0955 125.826 76.2703 126.015 76.389C126.053 76.3686 126.091 76.3699 126.127 76.3928C126.227 76.4898 126.326 76.5855 126.428 76.6787C126.7 76.9327 127.07 77.0641 127.361 77.2938C127.614 77.4942 127.859 77.6805 128.133 77.8503C128.718 78.2127 129.084 78.8087 129.425 79.3932C129.917 80.2381 130.418 81.0906 131.002 81.8768C131.306 82.2852 131.515 82.8697 131.653 83.3547C131.722 83.5908 131.759 83.8409 131.853 84.0693C131.912 84.2123 131.973 84.3169 131.986 84.4777C132.003 84.6832 132.132 85.2039 131.965 85.3634C131.711 85.2282 131.379 84.9078 131.213 84.6756C130.863 84.1855 130.506 83.6712 130.179 83.1658C129.813 82.5979 129.381 82.1371 128.843 81.7224Z" fill="#9C7543"/>
</g>
<g filter="url(#filter3_f_5_958)">
<path fill-rule="evenodd" clip-rule="evenodd" d="M19.1734 78.2364C19.1714 78.2491 19.1685 78.2618 19.1665 78.2745C19.1197 78.5626 19.1519 78.8663 19.147 79.1574C19.146 79.2521 19.1792 79.3068 19.1958 79.3937C19.2154 79.4914 19.1753 79.6027 19.1919 79.7004C19.2036 79.7668 19.23 79.8312 19.2515 79.8967C19.3003 80.0471 19.3706 80.2268 19.4537 80.3733C19.5064 80.467 19.5396 80.591 19.6109 80.676C19.6607 80.7346 19.6734 80.7405 19.7017 80.8088C19.7955 81.0305 19.897 81.2659 19.9791 81.5022C20.0592 81.7337 20.1597 81.9544 20.2584 82.1751C20.317 82.307 20.3512 82.4544 20.4078 82.5863C20.4478 82.679 20.526 82.7767 20.5787 82.8656C20.7164 83.098 20.8639 83.3295 21.0778 83.4926C21.2057 83.5912 21.3346 83.6752 21.4616 83.7729C21.5622 83.851 21.6549 83.9301 21.7702 83.9858C21.8229 84.0121 21.8649 84.0277 21.9089 84.0658C21.9421 84.0951 21.9723 84.1615 22.0095 84.1957C22.0895 84.268 22.1774 84.3344 22.2585 84.4057C22.3327 84.4702 22.3894 84.5336 22.4587 84.6079C22.6609 84.8227 22.9079 85.0132 23.0935 85.2309C23.2166 85.3755 23.4197 85.4751 23.5906 85.5532C23.9344 85.7114 24.282 85.8794 24.6053 86.0777C24.6815 86.1245 24.7684 86.1841 24.8328 86.2495C24.867 86.2847 24.8973 86.3316 24.9315 86.3687C25.0291 86.4742 25.1405 86.5416 25.2489 86.6304C25.285 86.6607 25.3094 86.7066 25.3475 86.7339C25.4061 86.7769 25.4628 86.7974 25.5223 86.8482C25.622 86.9332 25.7274 87.0347 25.8466 87.0914C25.8983 87.1168 25.9452 87.1529 25.996 87.1842C26.0722 87.231 26.1601 87.2447 26.2314 87.2867C26.2538 87.3004 26.2607 87.3346 26.2841 87.3482C26.3173 87.3687 26.373 87.3609 26.4101 87.3678C26.5214 87.3883 26.622 87.4068 26.7382 87.4039C26.8544 87.401 26.958 87.3609 27.0742 87.3551C27.4258 87.3375 27.8076 87.3189 28.1465 87.2154C28.2139 87.1949 28.2705 87.1656 28.3291 87.1275C28.4854 87.026 28.6407 86.9449 28.8135 86.8726C29.2423 86.6949 29.6944 86.5884 30.1417 86.4683C30.2716 86.4332 30.3869 86.3941 30.507 86.3413C30.6837 86.2622 30.883 86.2398 31.0705 86.2007C31.2805 86.1577 31.4357 86.0952 31.6057 85.982C31.8039 85.8501 32.0442 85.7837 32.2698 85.7144C32.5735 85.6226 32.8997 85.4507 33.1468 85.2514C33.2835 85.1421 33.4651 85.0962 33.6107 84.978C33.8177 84.809 34.0443 84.6577 34.2181 84.4526C34.2523 84.4116 34.2757 84.3608 34.3119 84.3217C34.3402 84.2924 34.3841 84.2768 34.4095 84.2475C34.5052 84.1391 34.558 83.9838 34.6322 83.8598C34.7582 83.6488 34.8051 83.4486 34.8998 83.2211C35.0092 82.9564 35.1566 82.7152 35.266 82.4505C35.3402 82.2679 35.4096 82.0784 35.4848 81.8978C35.6235 81.5608 35.8325 81.2532 35.9897 80.9221C36.0776 80.7385 36.1381 80.5237 36.2299 80.3479C36.2524 80.3059 36.2934 80.2707 36.3178 80.2258C36.3764 80.1135 36.3891 79.9777 36.4331 79.8586C36.5171 79.6359 36.518 79.3957 36.5727 79.1681C36.6284 78.9318 36.5298 78.6954 36.4819 78.4552C36.4604 78.3526 36.4682 78.254 36.4526 78.1554C36.435 78.0489 36.4116 77.9669 36.4096 77.8536C36.4087 77.7774 36.3794 77.7618 36.3676 77.7042C36.3559 77.6456 36.3667 77.5831 36.3637 77.5225C36.3608 77.4581 36.3335 77.4327 36.3208 77.3799C36.2964 77.2735 36.3286 77.1592 36.3188 77.0498C36.3081 76.9326 36.2885 76.8154 36.2602 76.7002C36.1987 76.4541 36.0942 76.2197 35.9584 76.0058C35.8412 75.8213 35.7172 75.6406 35.5883 75.4638C35.1674 74.8866 34.6957 74.3466 34.2035 73.8299C33.9642 73.5789 33.7249 73.2957 33.4495 73.0838C33.3646 73.0184 33.2815 72.9676 33.2122 72.8846C33.1077 72.7596 33.0755 72.618 33.0042 72.4773C32.9671 72.4041 32.8929 72.3172 32.8479 72.2478C32.7864 72.1531 32.7112 72.0593 32.6428 71.9675C32.5911 71.8972 32.554 71.8406 32.5012 71.7761C32.4544 71.7205 32.427 71.6521 32.3831 71.5954C32.3489 71.5505 32.3079 71.5368 32.2698 71.4968C32.1614 71.3825 32.1125 71.2087 32.0139 71.0847C31.9328 70.9831 31.8488 70.8825 31.7629 70.7878C31.6428 70.654 31.5051 70.5778 31.3352 70.5124C31.0744 70.4128 30.7931 70.2965 30.5539 70.152C30.4748 70.1051 30.382 70.0846 30.3068 70.0377C30.2785 70.0202 30.2404 69.9674 30.2091 69.945C30.132 69.8873 30.0577 69.8248 29.9777 69.7711C29.8761 69.7018 29.7599 69.6256 29.6437 69.5885C29.4102 69.5123 29.169 69.4772 28.962 69.3443C28.8116 69.2467 28.6485 69.1637 28.4746 69.1158C28.2432 69.0533 28.0117 68.9635 27.7764 68.9185C26.9013 68.7496 26.0341 68.8814 25.1835 69.1061C24.9266 69.1744 24.661 69.2232 24.4305 69.358C24.2977 69.4352 24.1541 69.4918 24.0223 69.5729C23.8973 69.6491 23.7322 69.7145 23.6326 69.8248C23.5759 69.8873 23.5545 69.9538 23.4802 70.0045C23.4011 70.0592 23.3074 70.0944 23.2224 70.1403C23.0378 70.2409 22.8689 70.276 22.7146 70.4157C22.5359 70.5768 22.3649 70.7419 22.2028 70.9216C22.1345 70.9968 22.0602 71.0925 21.9743 71.1482C21.8844 71.2058 21.7741 71.239 21.6891 71.3093C21.5788 71.4001 21.5055 71.5632 21.442 71.6921C21.3473 71.8835 21.236 72.0681 21.1442 72.2615C21.0797 72.3963 21.0494 72.534 20.9811 72.6639C20.8678 72.8797 20.7838 73.1268 20.65 73.3289C20.5621 73.4608 20.3844 73.617 20.3365 73.7674C20.317 73.8309 20.3336 73.8563 20.2916 73.9227C20.2467 73.994 20.193 74.0624 20.1451 74.1327C19.9654 74.4003 19.7974 74.6767 19.6509 74.9638C19.3687 75.5166 19.1656 76.1142 19.1109 76.7354C19.0835 77.043 19.0933 77.3555 19.1392 77.6612C19.1568 77.7813 19.1909 77.9014 19.1958 78.0225C19.1988 78.0968 19.1861 78.1651 19.1734 78.2364Z" fill="#C3643C"/>
</g>
<g filter="url(#filter4_f_5_958)">
<path d="M145.93 157.957C146.045 158.26 146.176 158.555 146.32 158.843C146.924 158.776 147.523 158.666 148.113 158.513C151.128 157.704 152.42 155.966 154.082 153.226L154.042 153.132L154.118 153.171C154.624 152.362 155.131 151.465 155.739 150.486L155.698 150.475C155.27 150.06 154.805 149.691 154.31 149.374C153.803 149.044 153.297 148.681 152.76 148.362C153.367 148.453 153.959 148.638 154.518 148.912C155.081 149.173 155.603 149.529 156.063 149.969L156.712 148.978L156.899 148.687C156.859 148.582 156.823 148.483 156.783 148.384C156.742 148.285 156.656 148.126 156.6 147.988C156.339 147.46 156.025 146.965 155.663 146.513C156.193 146.787 156.65 147.204 156.99 147.724C157.082 147.852 157.167 147.986 157.244 148.126C157.821 147.169 158.281 146.135 158.612 145.05L158.556 144.951C158.347 144.59 158.097 144.259 157.811 143.966C157.669 143.821 157.509 143.699 157.335 143.603C157.156 143.5 156.952 143.462 156.752 143.493C156.951 143.395 157.175 143.375 157.386 143.438C157.598 143.49 157.801 143.583 157.983 143.713C158.274 143.92 158.539 144.168 158.769 144.45C159.163 142.681 159.052 140.823 158.45 139.125C156.512 139.709 154.642 140.532 152.876 141.578C153.079 141.645 153.285 141.698 153.494 141.738C154.065 141.827 154.641 141.859 155.217 141.831C155.82 141.793 156.418 141.831 157.021 141.743C156.468 142.031 155.879 142.229 155.273 142.332C154.652 142.458 154.017 142.471 153.393 142.371C152.996 142.288 152.611 142.149 152.248 141.958C151.153 142.647 150.105 143.419 149.112 144.269C148.589 144.719 148.103 145.215 147.657 145.754C148.062 146.098 148.42 146.502 148.721 146.954C149.096 147.522 149.338 148.181 149.426 148.874C149.518 149.552 149.408 150.244 149.112 150.849C149.18 150.214 149.133 149.572 148.975 148.956C148.819 148.364 148.57 147.806 148.24 147.306C147.968 146.898 147.661 146.518 147.323 146.172C147.035 146.555 146.773 146.96 146.538 147.383C146.661 147.624 146.769 147.874 146.862 148.131C147.091 148.787 147.167 149.493 147.085 150.189C147.013 150.874 146.738 151.516 146.299 152.015C146.52 151.425 146.63 150.793 146.624 150.156C146.618 149.541 146.513 148.932 146.315 148.357C146.283 148.254 146.246 148.153 146.203 148.054C143.923 152.907 145.93 157.957 145.93 157.957Z" fill="#F5E0BC"/>
<path d="M145.626 158.117C145.063 156.538 144.776 154.858 144.78 153.165C144.767 151.244 145.194 149.35 146.021 147.652C145.874 147.328 145.702 147.003 145.514 146.678C145.185 146.128 144.896 145.578 144.546 145.028C145.058 145.411 145.513 145.875 145.899 146.403C146.061 146.617 146.21 146.841 146.345 147.075C146.573 146.692 146.822 146.324 147.09 145.974C146.644 145.54 146.224 145.072 145.757 144.648C146.336 144.873 146.882 145.186 147.379 145.578C147.842 145.013 148.351 144.494 148.899 144.027C149.864 143.206 150.88 142.457 151.939 141.787C152.187 141.628 152.137 141.655 152.446 141.452C154.307 140.318 156.287 139.431 158.343 138.811L158.044 137.925C157.163 135.312 155.435 132.649 151.544 133.116C147.652 133.584 148.762 139.719 148.149 141.116C147.821 141.785 147.359 142.367 146.797 142.817C146.235 143.267 145.587 143.575 144.901 143.718C145.203 143.703 145.505 143.668 145.803 143.614C146.769 143.456 147.667 142.978 148.372 142.244C149.075 141.463 149.561 140.483 149.775 139.416C149.758 140.568 149.371 141.677 148.681 142.552C148.327 143 147.899 143.374 147.419 143.652C146.941 143.917 146.428 144.102 145.899 144.203C145.377 144.291 144.847 144.323 144.318 144.296C144.055 144.296 143.812 144.252 143.533 144.208C143.273 144.176 143.016 144.124 142.763 144.054C142.418 143.966 142.079 143.85 141.75 143.707C140.241 143.06 138.663 142.624 137.053 142.409C135.791 142.26 130.851 145.16 132.898 151.988C134.631 157.842 141.334 159.322 145.965 158.898C145.844 158.651 145.732 158.392 145.626 158.117Z" fill="#F5E0BC"/>
</g>
<g filter="url(#filter5_f_5_958)">
<path fill-rule="evenodd" clip-rule="evenodd" d="M322.425 75.4634C322.455 75.4196 322.495 75.3855 322.525 75.3405C322.615 75.1993 322.686 75.0666 322.83 74.9656C322.941 74.8877 323.083 74.8451 323.202 74.7721C323.34 74.6906 323.429 74.5932 323.538 74.4824C323.61 74.4106 323.693 74.3644 323.765 74.2962C323.807 74.2561 323.835 74.2062 323.874 74.1648C323.953 74.082 324.069 73.9992 324.181 73.9676C324.295 73.936 324.444 73.9603 324.563 73.9603C324.684 73.9603 324.858 73.9299 324.976 73.9591C325.026 73.9713 325.05 73.9907 325.104 73.998C325.18 74.0102 325.27 73.998 325.347 73.998C325.515 73.998 325.673 73.9834 325.83 74.0394C326.019 74.1064 326.215 74.1684 326.408 74.222C326.597 74.2743 326.744 74.4094 326.932 74.4654C327.008 74.4885 327.081 74.4885 327.154 74.5262C327.212 74.5567 327.261 74.5993 327.321 74.6285C327.399 74.665 327.482 74.6747 327.561 74.7052C327.663 74.7453 327.745 74.8256 327.836 74.8828C327.938 74.9461 328.027 75.0228 328.124 75.0958C328.186 75.1421 328.241 75.1932 328.317 75.2175C328.392 75.2431 328.465 75.2808 328.544 75.2967C328.666 75.3198 328.755 75.2821 328.874 75.3685C328.907 75.3928 328.935 75.4366 328.971 75.4524C329.031 75.4804 329.097 75.4877 329.158 75.523C329.223 75.5608 329.306 75.5827 329.368 75.6216C329.388 75.6338 329.399 75.652 329.417 75.6654C329.467 75.7019 329.519 75.7105 329.576 75.7324C329.707 75.7823 329.845 75.8103 329.972 75.8663C330.023 75.8882 330.059 75.9198 330.111 75.9441C330.237 76.0038 330.388 76.0257 330.502 76.1097C330.566 76.1547 330.629 76.2034 330.686 76.2557C330.784 76.3433 330.894 76.4237 330.995 76.5113C331.04 76.5515 331.07 76.6026 331.107 76.6452C331.16 76.7024 331.196 76.762 331.244 76.8229C331.322 76.9227 331.424 77.0115 331.501 77.1162C331.616 77.272 331.782 77.3864 331.879 77.5543C331.99 77.7454 332.085 77.9499 332.175 78.1519C332.361 78.5682 332.516 79.0015 332.62 79.4457C332.786 80.1504 332.83 80.8977 332.634 81.6011C332.492 82.1038 332.322 82.649 332.03 83.0823C331.888 83.2929 331.92 83.299 331.677 83.4109C331.447 83.5168 331.19 83.6434 330.976 83.7834C330.636 84.0024 330.449 83.9708 330.021 83.9744C329.44 83.9793 328.775 83.9538 328.223 83.7773C327.418 83.5193 326.732 83.1773 326.022 82.7233C325.902 82.6466 325.781 82.5772 325.672 82.4896C325.637 82.4628 325.605 82.4555 325.568 82.4348C325.424 82.3557 325.261 82.2754 325.124 82.1768C325.052 82.1245 324.994 82.0612 324.934 81.9955C324.858 81.9103 324.757 81.8519 324.673 81.7715C324.486 81.5975 324.295 81.4088 324.093 81.2555C323.966 81.1581 323.821 81.0291 323.729 80.8952C323.639 80.7626 323.501 80.6749 323.407 80.5459C323.345 80.4607 323.295 80.3621 323.232 80.2806C323.184 80.2185 323.123 80.1552 323.072 80.0968C323.033 80.0518 323.036 79.9812 323.005 79.941C322.985 79.9118 322.941 79.8899 322.913 79.8607C322.863 79.8084 322.809 79.7487 322.762 79.694C322.695 79.6136 322.644 79.5601 322.595 79.4627C322.543 79.3605 322.525 79.2656 322.442 79.1889C322.324 79.0806 322.293 78.9138 322.218 78.7726C322.134 78.6156 322.064 78.4562 321.989 78.2968C321.945 78.203 321.875 78.1227 321.833 78.0278C321.704 77.7357 321.749 77.3852 321.749 77.076C321.748 76.9994 321.732 76.9032 321.754 76.829C321.778 76.7474 321.858 76.6914 321.881 76.6087C321.894 76.5636 321.893 76.5162 321.905 76.4699C321.931 76.3786 321.973 76.2886 322 76.1985C322.05 76.0342 322.181 75.9076 322.27 75.7591C322.325 75.6703 322.361 75.5802 322.409 75.489C322.414 75.4804 322.42 75.4719 322.425 75.4634Z" fill="#E3A161"/>
</g>
<g filter="url(#filter6_f_5_958)">
<path fill-rule="evenodd" clip-rule="evenodd" d="M277.763 32.0856C276.992 32.5681 276.226 33.0402 275.465 33.5101C274.703 33.9809 273.947 34.4492 273.195 34.9257C272.444 35.4019 271.697 35.8861 270.957 36.3874C270.216 36.8882 269.481 37.4061 268.751 37.9503C268.556 38.0959 268.349 38.2338 268.137 38.3689C267.925 38.5036 267.708 38.636 267.493 38.7708C267.278 38.9058 267.065 39.0424 266.861 39.1873C266.657 39.3313 266.461 39.4827 266.282 39.6468C266.111 39.802 265.962 39.979 265.824 40.1678C265.686 40.3565 265.741 40.589 265.618 40.7926C265.494 40.9958 265.19 41.1708 265.061 41.371C264.932 41.5709 264.797 41.7651 264.645 41.9432C264.238 42.4221 263.874 42.9508 263.544 43.511C263.214 44.0707 262.917 44.6623 262.644 45.266C262.37 45.87 262.119 46.4859 261.881 47.0955C261.643 47.7051 261.417 48.3075 261.193 48.8857C261.084 49.165 260.964 49.4407 260.838 49.7148C260.713 49.9885 260.582 50.2605 260.452 50.5317C260.321 50.8029 260.191 51.0732 260.068 51.3447C259.944 51.616 260.009 51.9193 259.905 52.1931C259.8 52.4686 259.553 52.738 259.515 53.0515C259.477 53.3655 259.466 53.6925 259.467 54.0211C259.468 54.3487 259.482 54.6784 259.496 54.9966C259.51 55.3148 259.524 55.6221 259.523 55.9071C259.522 56.2288 259.542 56.5506 259.577 56.8712C259.611 57.192 259.659 57.512 259.716 57.8308C259.774 58.1492 259.84 58.4662 259.909 58.7816C259.978 59.0971 260.05 59.4104 260.118 59.7216C260.147 59.8553 260.168 59.9893 260.183 60.123C260.199 60.2569 260.21 60.391 260.222 60.5248C260.234 60.6583 260.247 60.7923 260.264 60.9252C260.282 61.0586 260.305 61.1913 260.339 61.3228C260.399 61.5576 260.498 61.7643 260.618 61.9554C260.739 62.1466 260.882 62.3218 261.031 62.494C261.18 62.666 261.335 62.8348 261.48 63.0126C261.625 63.1909 261.758 63.3777 261.866 63.5856C262.038 63.9192 262.199 64.2371 262.362 64.5424C262.525 64.8474 262.69 65.1397 262.87 65.4221C263.051 65.7047 263.246 65.9769 263.471 66.2425C263.696 66.5076 263.949 66.7663 264.245 67.0208C264.519 67.2565 264.826 67.4918 265.156 67.718C265.486 67.9437 265.837 68.159 266.2 68.3539C266.562 68.5486 266.935 68.7227 267.306 68.8654C267.678 69.0078 268.049 69.1196 268.406 69.1894C268.767 69.2596 269.13 69.2347 269.485 69.1437C269.84 69.0527 270.189 68.8953 270.522 68.7001C270.856 68.5048 271.175 68.2713 271.471 68.0292C271.767 67.7866 272.04 67.5353 272.282 67.303C272.536 67.0605 272.804 66.8421 273.076 66.6309C273.349 66.4203 273.625 66.2178 273.893 66.0081C274.161 65.7982 274.422 65.5815 274.664 65.3413C274.905 65.1015 275.128 64.8391 275.32 64.5384C275.477 64.293 275.624 64.0415 275.766 63.7861C275.908 63.5306 276.045 63.2717 276.181 63.0113C276.317 62.7514 276.452 62.4897 276.589 62.2296C276.727 61.969 276.867 61.7101 277.015 61.4549C277.224 61.091 277.424 60.732 277.616 60.375C277.808 60.018 277.992 59.6626 278.172 59.3051C278.353 58.9479 278.528 58.5892 278.704 58.2257C278.879 57.8614 279.053 57.4927 279.229 57.1159C279.377 56.7995 279.532 56.5007 279.685 56.2095C279.838 55.9179 279.989 55.6339 280.129 55.3458C280.268 55.057 280.397 54.765 280.504 54.4573C280.612 54.1502 280.698 53.828 280.756 53.4788C280.778 53.3425 280.802 53.2062 280.826 53.0703C280.851 52.9336 280.876 52.7977 280.901 52.6615C280.926 52.525 280.951 52.3893 280.975 52.253C280.999 52.1166 281.022 51.98 281.043 51.844C281.077 51.624 281.091 51.4081 281.093 51.1939C281.095 50.98 281.087 50.7678 281.076 50.5561C281.065 50.3439 281.052 50.1318 281.048 49.9183C281.043 49.7047 281.046 49.4887 281.065 49.2697C281.086 49.0409 281.126 48.8146 281.174 48.5895C281.222 48.3645 281.277 48.1406 281.326 47.9159C281.377 47.6914 281.421 47.466 281.449 47.2385C281.477 47.0107 281.487 46.781 281.469 46.5467C281.453 46.346 281.442 46.1738 281.436 46.0158C281.43 45.8579 281.43 45.7134 281.434 45.5677C281.439 45.4218 281.449 45.275 281.465 45.1105C281.48 44.9468 281.501 44.7662 281.527 44.5541C281.574 44.1785 281.563 43.8223 281.515 43.4775C281.466 43.1324 281.382 42.7985 281.281 42.4679C281.18 42.1367 281.064 41.8089 280.953 41.4756C280.843 41.1418 280.737 40.8033 280.659 40.4503C280.616 40.2588 280.556 40.0788 280.486 39.9039C280.417 39.7293 280.338 39.5605 280.258 39.392C280.178 39.2236 280.097 39.0556 280.023 38.882C279.948 38.7088 279.88 38.5304 279.827 38.3419C279.779 38.1672 279.711 38.0019 279.635 37.8407C279.56 37.68 279.476 37.5243 279.394 37.369C279.313 37.2138 279.233 37.0594 279.166 36.9011C279.1 36.7437 279.046 36.5819 279.015 36.4129C278.975 36.1949 278.949 35.9896 278.927 35.79C278.906 35.5904 278.888 35.3972 278.866 35.2039C278.844 35.0102 278.818 34.8173 278.778 34.6182C278.74 34.4193 278.686 34.2146 278.612 33.9982C278.548 33.8143 278.475 33.6327 278.405 33.4506C278.335 33.2688 278.268 33.0877 278.217 32.9044C278.166 32.7214 278.132 32.5367 278.126 32.3479C278.121 32.1592 278.144 31.9674 278.21 31.77" fill="#B4814C"/>
<path fill-rule="evenodd" clip-rule="evenodd" d="M268.544 46.8403C268.665 46.5975 268.776 46.3484 268.927 46.1216C268.986 46.0312 269.065 45.968 269.137 45.89C269.178 45.8472 269.211 45.801 269.239 45.7492C269.266 45.7028 269.286 45.6542 269.303 45.6034C269.358 45.4359 269.416 45.2816 269.483 45.1182C269.5 45.077 269.494 45.0292 269.511 44.9854C269.539 44.9176 269.594 44.8617 269.621 44.791C269.657 44.6963 269.679 44.5913 269.716 44.501C269.731 44.4653 269.759 44.4628 269.776 44.4285C269.797 44.3869 269.805 44.339 269.83 44.2947C269.878 44.2094 269.904 44.1517 269.926 44.0593C269.986 43.7926 270.202 43.5731 270.316 43.3392C270.361 43.2483 270.446 43.1409 270.483 43.0573C270.633 42.7232 270.686 42.3292 270.94 42.0472C271.022 41.9564 271.111 41.8781 271.176 41.7722C271.296 41.5777 271.371 41.3542 271.463 41.1476C271.672 40.6798 271.886 40.2143 272.111 39.7543C272.399 39.1666 273.118 38.3217 273.166 37.6808C272.693 37.8982 272.391 38.5496 272.045 38.9364C271.626 39.4052 271.223 39.8878 270.842 40.3871C270.51 40.8207 270.194 41.266 269.893 41.7199C269.804 41.8537 269.763 41.974 269.687 42.1088C269.63 42.2083 269.588 42.3206 269.52 42.4147C269.462 42.4957 269.411 42.5543 269.383 42.6538C269.351 42.7657 269.278 42.8603 269.23 42.9696C269.197 43.0435 269.138 43.1452 269.078 43.2151C268.977 43.3338 268.929 43.4927 268.826 43.6201C268.757 43.7056 268.686 43.7905 268.615 43.8762C268.477 44.0439 268.366 44.2344 268.255 44.426C268.167 44.5786 268.069 44.7417 268.032 44.911C268.008 45.0249 267.934 45.138 267.886 45.245C267.828 45.3747 267.752 45.4658 267.679 45.5805C267.614 45.6828 267.63 45.8139 267.565 45.917C267.529 45.9726 267.49 45.993 267.443 46.0339C267.341 46.1226 267.309 46.18 267.259 46.3014C267.066 46.7707 266.649 47.1322 266.513 47.6288C266.457 47.833 266.411 48.0227 266.326 48.219C266.204 48.4997 266.098 48.7881 266.026 49.0859C265.908 49.5725 265.884 50.0756 265.833 50.5738C265.531 53.5481 264.291 56.3311 263.294 59.1503C263.083 59.746 262.888 60.3658 262.868 61.0026C262.861 61.2122 262.834 61.613 262.984 61.7871C263.129 61.9545 263.334 61.412 263.363 61.3002C263.391 61.1899 263.445 61.1037 263.462 60.9881C263.476 60.8976 263.514 60.8311 263.557 60.7518C263.595 60.6831 263.62 60.6276 263.628 60.5364C263.638 60.441 263.594 60.3695 263.587 60.2848C263.569 60.0597 263.729 59.9527 263.814 59.7734C263.869 59.6554 263.921 59.5979 263.942 59.4723C263.963 59.3506 263.942 59.2564 263.955 59.1409C263.968 59.0316 263.987 58.8991 264.023 58.7955C264.074 58.6496 264.146 58.5494 264.172 58.3971C264.207 58.1888 264.243 57.9802 264.279 57.7721C264.31 57.5932 264.366 57.4031 264.353 57.2209C264.33 56.8865 264.45 56.5845 264.563 56.2671C264.875 55.3855 265.318 54.5576 265.643 53.6808C265.805 53.2443 265.936 52.7986 266.062 52.3509C266.247 51.6936 266.418 51.0315 266.656 50.3906C266.757 50.1191 266.914 49.8523 266.969 49.5678C267.028 49.2688 267.196 49.0209 267.366 48.7707C267.447 48.6495 267.513 48.5274 267.599 48.4167C267.631 48.3765 267.657 48.3782 267.702 48.3359C267.782 48.2591 267.8 48.1371 267.865 48.0511C267.896 48.0111 267.944 47.9877 267.975 47.9521C268.027 47.8945 268.043 47.8317 268.072 47.7605C268.118 47.6455 268.193 47.5766 268.253 47.4756C268.339 47.3317 268.376 47.1579 268.457 47.0095C268.486 46.9534 268.515 46.8971 268.544 46.8403Z" fill="#9C7543"/>
<path fill-rule="evenodd" clip-rule="evenodd" d="M271.549 61.4501C271.565 61.2783 271.564 61.1064 271.567 60.9345C271.569 60.8074 271.558 60.6707 271.618 60.554C271.66 60.4716 271.714 60.4172 271.725 60.3202C271.741 60.1748 271.738 60.0303 271.783 59.8872C271.858 59.6465 271.948 59.4131 271.992 59.1608C272.045 58.8574 272.13 58.534 272.118 58.2308C272.107 57.9414 272.224 57.6513 272.189 57.3629C272.179 57.2761 272.14 57.1989 272.122 57.1145C272.111 57.0607 272.108 57.0061 272.113 56.9514C272.121 56.8683 272.171 56.8158 272.192 56.74C272.212 56.6655 272.174 56.6003 272.184 56.5272C272.192 56.4668 272.241 56.3687 272.184 56.322C272.285 56.1568 272.377 56.0382 272.359 55.8314C272.348 55.6936 272.349 55.5853 272.371 55.4485C272.388 55.3442 272.465 55.2663 272.467 55.1604C272.469 55.0379 272.457 54.9359 272.481 54.8122C272.495 54.7412 272.479 54.7031 272.476 54.6368C272.474 54.5618 272.512 54.5398 272.541 54.474C272.658 54.2025 272.75 53.9198 272.87 53.6492C273.153 53.0062 273.415 52.324 273.463 51.6183C273.486 51.2949 273.462 50.9746 273.509 50.6526C273.558 50.3243 273.566 49.9982 273.596 49.6684C273.625 49.342 273.71 49.024 273.745 48.698C273.781 48.3667 273.836 48.0642 273.919 47.7416C274.105 47.0156 274.375 46.3109 274.601 45.5972C274.758 45.0994 274.804 44.5797 274.903 44.0696C274.933 43.9209 274.996 43.7841 275.026 43.6364C275.052 43.5128 275.067 43.3948 275.107 43.2743C275.166 43.0953 275.234 42.9194 275.289 42.739C275.354 42.5259 275.384 42.3069 275.461 42.097C275.553 41.8454 275.676 41.6052 275.768 41.3536C275.886 41.0275 275.982 40.6937 276.092 40.3644C276.289 39.7724 276.409 39.1528 276.64 38.5744C276.781 38.221 276.93 37.869 277.035 37.5028C277.092 37.3053 277.172 37.0741 277.19 36.8684C277.209 36.6609 277.215 36.4492 277.23 36.241C277.252 35.9372 277.198 35.3336 277.597 35.2317C277.612 35.2279 277.629 35.2247 277.646 35.2221C278.28 35.1332 278.053 36.2033 278.04 36.5584C278.028 36.9244 277.993 37.2962 277.939 37.6583C277.882 38.0331 277.77 38.3833 277.661 38.7447C277.385 39.6597 277.086 40.5713 276.886 41.5064C276.85 41.6733 276.841 41.8316 276.751 41.9737C276.691 42.0693 276.68 42.1404 276.661 42.2508C276.616 42.5204 276.565 42.7892 276.523 43.0591C276.492 43.2534 276.405 43.4208 276.316 43.5953C276.233 43.7558 276.139 43.9302 276.039 44.0806C275.941 44.2295 275.883 44.3565 275.834 44.5323C275.799 44.6594 275.841 44.7686 275.808 44.8907C275.772 45.0199 275.687 45.1358 275.641 45.2618C275.598 45.3793 275.577 45.4945 275.555 45.6183C275.539 45.7118 275.556 45.771 275.559 45.8622C275.563 45.9501 275.551 46.0251 275.565 46.1186C275.582 46.2327 275.621 46.3539 275.62 46.4701C275.62 46.5154 275.605 46.5593 275.612 46.6031C275.629 46.7008 275.662 46.7605 275.645 46.8734C275.63 46.9762 275.617 47.086 275.592 47.1863C275.557 47.3278 275.501 47.4493 275.476 47.5967C275.436 47.835 275.342 48.0117 275.253 48.2321C275.155 48.4733 275.197 48.7427 275.09 48.9801C275.036 49.0998 275.019 49.2237 274.998 49.353C274.909 49.9071 274.719 50.4384 274.627 50.9924C274.609 51.1006 274.58 51.209 274.565 51.3171C274.537 51.5241 274.597 51.7422 274.639 51.9436C274.672 52.1014 274.665 52.2546 274.687 52.4133C274.701 52.5145 274.731 52.6075 274.726 52.71C274.716 52.9425 274.608 53.1755 274.517 53.3847C274.468 53.5012 274.399 53.5864 274.344 53.6967C274.215 53.9538 274.161 54.2464 274.031 54.5054C273.951 54.6631 273.888 54.8261 273.844 55.0052C273.775 55.2823 273.784 55.5835 273.689 55.8541C273.641 55.9932 273.61 56.1199 273.584 56.2666C273.568 56.3588 273.547 56.4478 273.546 56.542C273.545 56.7189 273.526 56.8367 273.467 57.003C273.377 57.2578 273.377 57.5362 273.288 57.7907C273.203 58.032 273.101 58.2876 273.061 58.5398C273.043 58.6499 273.012 58.7616 273.013 58.8711C273.032 58.8816 273.041 58.8978 273.041 58.9187C273.027 58.9855 273.014 59.052 273.002 59.1189C272.968 59.2986 273.012 59.4866 272.993 59.6678C272.977 59.8253 272.964 59.976 272.966 60.1345C272.97 60.4723 272.82 60.7813 272.668 61.0767C272.448 61.5038 272.227 61.936 272.055 62.3856C271.966 62.6192 271.779 62.8601 271.614 63.0452C271.535 63.136 271.441 63.2174 271.371 63.3168C271.327 63.3788 271.3 63.4318 271.237 63.4795C271.156 63.5406 270.974 63.7314 270.864 63.7042C270.853 63.5633 270.898 63.3413 270.951 63.2113C271.062 62.9371 271.181 62.6533 271.304 62.3846C271.442 62.083 271.519 61.7827 271.549 61.4501Z" fill="#9C7543"/>
</g>
<g filter="url(#filter7_f_5_958)">
<path fill-rule="evenodd" clip-rule="evenodd" d="M326.893 21.5682C326.889 21.5906 326.884 21.613 326.881 21.6354C326.798 22.1435 326.855 22.6791 326.846 23.1924C326.845 23.3595 326.903 23.4559 326.932 23.6092C326.967 23.7815 326.896 23.9778 326.926 24.15C326.946 24.2672 326.993 24.3808 327.031 24.4962C327.117 24.7615 327.241 25.0784 327.387 25.3368C327.48 25.5021 327.539 25.7208 327.664 25.8707C327.752 25.974 327.775 25.9844 327.825 26.1049C327.99 26.4959 328.169 26.911 328.314 27.3278C328.455 27.736 328.632 28.1253 328.806 28.5145C328.91 28.747 328.97 29.0071 329.07 29.2396C329.141 29.4033 329.278 29.5755 329.371 29.7322C329.614 30.1422 329.874 30.5504 330.251 30.838C330.477 31.0119 330.704 31.1601 330.928 31.3323C331.106 31.4701 331.269 31.6096 331.473 31.7078C331.566 31.7543 331.64 31.7818 331.717 31.849C331.776 31.9007 331.829 32.0178 331.895 32.0781C332.036 32.2055 332.191 32.3227 332.334 32.4484C332.465 32.5621 332.565 32.674 332.687 32.8049C333.043 33.1838 333.479 33.5197 333.806 33.9038C334.023 34.1587 334.382 34.3344 334.683 34.4722C335.289 34.7512 335.903 35.0474 336.473 35.3971C336.607 35.4798 336.76 35.5848 336.874 35.7002C336.934 35.7622 336.988 35.8449 337.048 35.9104C337.22 36.0964 337.416 36.2152 337.608 36.3719C337.671 36.4253 337.714 36.5063 337.782 36.5545C337.885 36.6303 337.985 36.6665 338.09 36.756C338.266 36.9059 338.452 37.085 338.662 37.1849C338.753 37.2297 338.836 37.2934 338.925 37.3485C339.06 37.4312 339.215 37.4553 339.34 37.5294C339.38 37.5535 339.392 37.6138 339.433 37.6379C339.492 37.6741 339.59 37.6603 339.656 37.6723C339.852 37.7085 340.029 37.7412 340.234 37.7361C340.439 37.7309 340.622 37.6603 340.827 37.6499C341.447 37.6189 342.12 37.5862 342.718 37.4036C342.837 37.3675 342.937 37.3158 343.04 37.2486C343.316 37.0695 343.589 36.9265 343.894 36.7991C344.65 36.4856 345.448 36.2979 346.237 36.086C346.466 36.024 346.669 35.9551 346.881 35.8621C347.193 35.7226 347.544 35.683 347.875 35.6141C348.245 35.5383 348.519 35.4281 348.819 35.2283C349.168 34.9958 349.592 34.8787 349.99 34.7564C350.525 34.5945 351.101 34.2913 351.536 33.94C351.778 33.7471 352.098 33.6661 352.355 33.4577C352.72 33.1597 353.119 32.8928 353.426 32.5311C353.486 32.4587 353.527 32.3692 353.591 32.3003C353.641 32.2486 353.719 32.221 353.763 32.1694C353.932 31.9782 354.025 31.7043 354.156 31.4856C354.378 31.1136 354.461 30.7605 354.628 30.3592C354.821 29.8924 355.081 29.467 355.274 29.0002C355.405 28.6781 355.527 28.344 355.66 28.0254C355.904 27.4311 356.273 26.8886 356.55 26.3047C356.705 25.9809 356.812 25.602 356.974 25.292C357.014 25.2179 357.086 25.1559 357.129 25.0767C357.232 24.8786 357.255 24.6392 357.332 24.4291C357.48 24.0364 357.482 23.6127 357.578 23.2114C357.677 22.7945 357.503 22.3777 357.418 21.954C357.38 21.7732 357.394 21.5992 357.367 21.4253C357.336 21.2375 357.294 21.0928 357.291 20.8931C357.289 20.7587 357.237 20.7312 357.217 20.6295C357.196 20.5262 357.215 20.416 357.21 20.3092C357.205 20.1955 357.157 20.1507 357.134 20.0577C357.091 19.87 357.148 19.6685 357.131 19.4755C357.112 19.2689 357.077 19.0622 357.027 18.8589C356.919 18.4249 356.735 18.0115 356.495 17.6343C356.288 17.3088 356.07 16.9902 355.842 16.6784C355.1 15.6605 354.268 14.708 353.4 13.7969C352.978 13.3543 352.556 12.8548 352.07 12.481C351.921 12.3656 351.774 12.2761 351.652 12.1297C351.468 11.9092 351.411 11.6595 351.285 11.4114C351.22 11.2823 351.089 11.129 351.009 11.0067C350.901 10.8396 350.768 10.6743 350.648 10.5124C350.556 10.3883 350.491 10.2885 350.398 10.1748C350.315 10.0766 350.267 9.95603 350.19 9.85614C350.129 9.77691 350.057 9.75279 349.99 9.68218C349.799 9.48066 349.712 9.17408 349.538 8.95534C349.396 8.77621 349.247 8.59881 349.096 8.43174C348.884 8.19578 348.641 8.06143 348.341 7.94603C347.882 7.77035 347.386 7.56539 346.964 7.31048C346.824 7.22781 346.66 7.19164 346.528 7.10896C346.478 7.07796 346.411 6.98495 346.356 6.94534C346.219 6.84372 346.089 6.73349 345.947 6.63876C345.768 6.51647 345.563 6.38213 345.358 6.31668C344.947 6.18233 344.521 6.12033 344.156 5.88609C343.891 5.71385 343.603 5.56745 343.297 5.48305C342.888 5.37282 342.48 5.21436 342.065 5.13513C340.522 4.83717 338.992 5.06968 337.492 5.46583C337.039 5.58639 336.571 5.67251 336.164 5.9102C335.93 6.04627 335.677 6.14616 335.444 6.28912C335.224 6.42346 334.933 6.53886 334.757 6.73349C334.657 6.84372 334.619 6.96084 334.488 7.0504C334.349 7.14686 334.184 7.20886 334.034 7.28981C333.708 7.46722 333.41 7.52922 333.138 7.77552C332.823 8.05971 332.522 8.35079 332.236 8.6677C332.115 8.80033 331.984 8.96912 331.833 9.06729C331.674 9.16891 331.479 9.22747 331.33 9.35148C331.135 9.51166 331.006 9.7993 330.894 10.0267C330.727 10.3642 330.53 10.6898 330.369 11.0308C330.255 11.2685 330.201 11.5113 330.081 11.7404C329.881 12.121 329.733 12.5568 329.497 12.9133C329.342 13.1459 329.029 13.4214 328.944 13.6867C328.91 13.7986 328.939 13.8434 328.865 13.9605C328.786 14.0863 328.691 14.2068 328.607 14.3308C328.29 14.8028 327.993 15.2902 327.735 15.7966C327.237 16.7714 326.879 17.8255 326.783 18.9209C326.734 19.4635 326.752 20.0146 326.833 20.5537C326.864 20.7656 326.924 20.9774 326.932 21.191C326.938 21.3219 326.915 21.4425 326.893 21.5682Z" fill="#C3643C"/>
</g>
<g filter="url(#filter8_f_5_958)">
<path d="M360.132 225.493C360.01 225.175 359.873 224.865 359.722 224.562C359.087 224.633 358.458 224.749 357.837 224.909C354.668 225.759 353.31 227.586 351.564 230.466L351.606 230.564L351.526 230.524C350.994 231.374 350.461 232.317 349.822 233.346L349.865 233.357C350.316 233.793 350.804 234.181 351.324 234.514C351.857 234.861 352.389 235.242 352.954 235.578C352.315 235.482 351.693 235.288 351.106 235C350.513 234.726 349.965 234.351 349.482 233.889L348.8 234.93L348.603 235.237C348.646 235.347 348.683 235.451 348.725 235.555C348.768 235.659 348.859 235.827 348.917 235.971C349.191 236.526 349.522 237.046 349.902 237.521C349.345 237.233 348.864 236.795 348.507 236.249C348.411 236.114 348.322 235.973 348.241 235.827C347.634 236.832 347.151 237.918 346.803 239.059L346.862 239.163C347.081 239.543 347.344 239.891 347.644 240.198C347.794 240.35 347.962 240.479 348.145 240.58C348.333 240.687 348.547 240.728 348.757 240.695C348.549 240.799 348.313 240.819 348.092 240.753C347.868 240.698 347.655 240.6 347.463 240.464C347.158 240.247 346.88 239.986 346.638 239.689C346.224 241.549 346.341 243.501 346.973 245.287C349.01 244.673 350.976 243.807 352.831 242.708C352.618 242.637 352.401 242.581 352.181 242.54C351.582 242.446 350.976 242.413 350.371 242.442C349.737 242.482 349.109 242.442 348.475 242.534C349.057 242.232 349.675 242.024 350.312 241.915C350.964 241.783 351.632 241.77 352.288 241.875C352.705 241.962 353.11 242.107 353.491 242.309C354.642 241.585 355.743 240.773 356.788 239.88C357.337 239.407 357.848 238.885 358.316 238.319C357.891 237.958 357.514 237.533 357.198 237.058C356.804 236.461 356.549 235.768 356.458 235.04C356.361 234.328 356.476 233.6 356.788 232.964C356.716 233.631 356.765 234.307 356.932 234.953C357.095 235.575 357.357 236.162 357.704 236.688C357.99 237.117 358.313 237.516 358.668 237.879C358.97 237.477 359.246 237.052 359.493 236.607C359.363 236.354 359.249 236.091 359.152 235.821C358.912 235.132 358.831 234.389 358.918 233.658C358.993 232.938 359.283 232.263 359.743 231.738C359.512 232.359 359.396 233.023 359.402 233.693C359.409 234.339 359.519 234.979 359.727 235.584C359.761 235.692 359.8 235.798 359.844 235.902C362.241 230.802 360.132 225.493 360.132 225.493Z" fill="#F5E0BC"/>
<path d="M360.452 225.326C361.043 226.986 361.344 228.75 361.341 230.53C361.354 232.549 360.906 234.539 360.036 236.324C360.191 236.665 360.372 237.006 360.569 237.347C360.915 237.926 361.219 238.504 361.586 239.082C361.049 238.679 360.57 238.192 360.164 237.637C359.994 237.412 359.838 237.177 359.696 236.931C359.456 237.333 359.195 237.72 358.913 238.088C359.381 238.544 359.823 239.036 360.313 239.481C359.705 239.245 359.132 238.916 358.609 238.504C358.122 239.098 357.588 239.644 357.012 240.135C355.997 240.997 354.93 241.784 353.817 242.488C353.556 242.656 353.609 242.627 353.284 242.841C351.328 244.033 349.247 244.965 347.086 245.616L347.4 246.547C348.326 249.294 350.142 252.093 354.232 251.601C358.322 251.11 357.155 244.662 357.8 243.193C358.145 242.49 358.631 241.879 359.221 241.406C359.812 240.933 360.492 240.609 361.213 240.458C360.896 240.475 360.579 240.511 360.265 240.568C359.25 240.734 358.307 241.237 357.566 242.008C356.827 242.829 356.316 243.859 356.09 244.98C356.109 243.77 356.516 242.604 357.241 241.684C357.613 241.213 358.063 240.821 358.567 240.528C359.07 240.25 359.608 240.055 360.164 239.95C360.714 239.856 361.27 239.824 361.826 239.851C362.103 239.851 362.358 239.897 362.651 239.944C362.924 239.978 363.194 240.032 363.461 240.106C363.823 240.199 364.179 240.32 364.526 240.47C366.111 241.15 367.77 241.609 369.462 241.835C370.788 241.991 375.98 238.943 373.829 231.767C372.007 225.615 364.962 224.059 360.095 224.505C360.223 224.765 360.34 225.037 360.452 225.326Z" fill="#F5E0BC"/>
</g>
<defs>
<filter id="filter0_f_5_958" x="-1.97582" y="112.576" width="18.4385" height="17.4936" filterUnits="userSpaceOnUse" color-interpolation-filters="sRGB">
<feFlood flood-opacity="0" result="BackgroundImageFix"/>
<feBlend mode="normal" in="SourceGraphic" in2="BackgroundImageFix" result="shape"/>
<feGaussianBlur stdDeviation="1.98791" result="effect1_foregroundBlur_5_958"/>
</filter>
<filter id="filter1_f_5_958" x="38.9571" y="3.79075" width="30.2085" height="30.0794" filterUnits="userSpaceOnUse" color-interpolation-filters="sRGB">
<feFlood flood-opacity="0" result="BackgroundImageFix"/>
<feBlend mode="normal" in="SourceGraphic" in2="BackgroundImageFix" result="shape"/>
<feGaussianBlur stdDeviation="3.31559" result="effect1_foregroundBlur_5_958"/>
</filter>
<filter id="filter2_f_5_958" x="78.4405" y="31.1763" width="68.3916" height="76.524" filterUnits="userSpaceOnUse" color-interpolation-filters="sRGB">
<feFlood flood-opacity="0" result="BackgroundImageFix"/>
<feBlend mode="normal" in="SourceGraphic" in2="BackgroundImageFix" result="shape"/>
<feGaussianBlur stdDeviation="3.32713" result="effect1_foregroundBlur_5_958"/>
</filter>
<filter id="filter3_f_5_958" x="16.4058" y="66.152" width="22.8734" height="23.9421" filterUnits="userSpaceOnUse" color-interpolation-filters="sRGB">
<feFlood flood-opacity="0" result="BackgroundImageFix"/>
<feBlend mode="normal" in="SourceGraphic" in2="BackgroundImageFix" result="shape"/>
<feGaussianBlur stdDeviation="1.34496" result="effect1_foregroundBlur_5_958"/>
</filter>
<filter id="filter4_f_5_958" x="128.431" y="129.087" width="34.5446" height="33.855" filterUnits="userSpaceOnUse" color-interpolation-filters="sRGB">
<feFlood flood-opacity="0" result="BackgroundImageFix"/>
<feBlend mode="normal" in="SourceGraphic" in2="BackgroundImageFix" result="shape"/>
<feGaussianBlur stdDeviation="1.98791" result="effect1_foregroundBlur_5_958"/>
</filter>
<filter id="filter5_f_5_958" x="317.563" y="69.7678" width="19.3789" height="18.3857" filterUnits="userSpaceOnUse" color-interpolation-filters="sRGB">
<feFlood flood-opacity="0" result="BackgroundImageFix"/>
<feBlend mode="normal" in="SourceGraphic" in2="BackgroundImageFix" result="shape"/>
<feGaussianBlur stdDeviation="2.08929" result="effect1_foregroundBlur_5_958"/>
</filter>
<filter id="filter6_f_5_958" x="254.205" y="26.5084" width="32.614" height="47.9831" filterUnits="userSpaceOnUse" color-interpolation-filters="sRGB">
<feFlood flood-opacity="0" result="BackgroundImageFix"/>
<feBlend mode="normal" in="SourceGraphic" in2="BackgroundImageFix" result="shape"/>
<feGaussianBlur stdDeviation="2.6308" result="effect1_foregroundBlur_5_958"/>
</filter>
<filter id="filter7_f_5_958" x="322.012" y="0.256031" width="40.3397" height="42.2245" filterUnits="userSpaceOnUse" color-interpolation-filters="sRGB">
<feFlood flood-opacity="0" result="BackgroundImageFix"/>
<feBlend mode="normal" in="SourceGraphic" in2="BackgroundImageFix" result="shape"/>
<feGaussianBlur stdDeviation="2.37198" result="effect1_foregroundBlur_5_958"/>
</filter>
<filter id="filter8_f_5_958" x="342.216" y="220.255" width="36.3067" height="35.5814" filterUnits="userSpaceOnUse" color-interpolation-filters="sRGB">
<feFlood flood-opacity="0" result="BackgroundImageFix"/>
<feBlend mode="normal" in="SourceGraphic" in2="BackgroundImageFix" result="shape"/>
<feGaussianBlur stdDeviation="2.08929" result="effect1_foregroundBlur_5_958"/>
</filter>
</defs>
</svg>
