<svg width="132" height="70" viewBox="0 0 132 70" fill="none" xmlns="http://www.w3.org/2000/svg">
<path fill-rule="evenodd" clip-rule="evenodd" d="M42.0811 27.1462C41.293 26.7523 41.8145 23.8782 42.0811 22.2555L42.9617 16.9247C43.2168 15.3487 42.7534 14.8618 41.4321 14.8618C40.3196 14.8618 38.6968 15.3717 37.8857 15.7657L37.9205 15.8004C38.6738 15.5108 39.0097 15.7657 38.9057 16.438L37.7002 23.7389C37.2252 26.5899 38.6968 27.378 40.4356 27.378C40.9686 27.378 41.5246 27.3085 42.0578 27.1927L42.0811 27.1462Z" fill="#614731"/>
<path fill-rule="evenodd" clip-rule="evenodd" d="M40.2444 13.2799C42.2623 13.4005 43.9143 12.391 44.0403 10.9504C44.1309 9.91568 43.337 9.41821 42.6349 9.35668C41.8774 9.2904 40.9827 9.73335 40.4682 10.5074C40.9607 11.258 40.6778 12.6849 40.2366 13.2607L40.2444 13.2799Z" fill="#614731"/>
<path fill-rule="evenodd" clip-rule="evenodd" d="M49.7988 18.4523C50.5224 16.6005 51.8285 15.7429 52.2579 15.461C52.3009 15.4325 52.3562 15.4087 52.412 15.3892C52.7611 15.576 52.9292 16.2591 52.9292 17.0867C52.9064 20.6793 50.5884 27.1462 48.5718 27.1462C47.5983 27.1462 47.9693 24.9907 48.0388 24.55L48.4147 22.2507C48.6468 21.5627 49.1385 20.1418 49.7988 18.4523ZM49.8698 27.3544C54.7142 27.3544 57.0785 22.3247 57.0785 18.5698C57.0785 16.0664 55.85 14.6758 53.6482 14.6758C53.1535 14.6758 52.6813 14.7536 52.2299 14.9412C52.1723 14.9622 52.1148 14.9874 52.0595 15.0177C51.6191 15.2308 51.1987 15.5549 50.7967 16.0246C50.289 16.5426 49.74 17.2737 49.3483 18.2759C49.1703 18.7318 49.0044 19.168 48.8524 19.5765L50.264 10.9441C50.5189 9.36794 50.0091 8.88123 48.6881 8.88123C47.5753 8.88123 45.9531 9.3912 45.1415 9.78538L45.1762 9.82014C45.9296 9.53026 46.266 9.78538 46.1614 10.4574L44.3304 22.0003C43.8322 25.1524 46.3933 27.3544 49.8698 27.3544Z" fill="#614731"/>
<path fill-rule="evenodd" clip-rule="evenodd" d="M60.476 27.3779C61.125 27.3779 61.4144 27.3198 62.0287 27.1925L62.0755 27.146C61.3144 26.8334 61.7813 24.4025 62.1445 22.7531C62.2063 22.563 62.7893 20.7827 63.6702 18.5284C64.4993 16.4075 66.0497 15.5419 66.2238 15.4503C66.2736 15.4241 66.3373 15.3986 66.4024 15.3758C66.9129 15.5044 67.0932 16.0724 67.0932 16.5421C67.0932 17.7123 66.2356 18.4311 65.3784 18.4311C65.2391 19.8218 66.2356 20.4708 67.2788 20.4708C69.3417 20.4708 70.5004 18.9176 70.5004 17.3649C70.5004 15.9741 69.5503 14.6762 67.6034 14.6762C67.2395 14.6762 66.8853 14.7233 66.5399 14.8293C66.4456 14.8533 66.1818 14.9253 65.9982 15.0221C65.6876 15.186 64.0939 16.1156 63.2197 18.3524C62.9524 19.0357 62.7137 19.6737 62.5072 20.2404L63.292 16.9245C63.6514 15.3715 63.0371 14.8616 61.7158 14.8616C60.6033 14.8616 58.9808 15.3715 58.1695 15.7655L58.2043 15.8002C58.9578 15.5106 59.3052 15.7655 59.1892 16.4378L57.8914 23.7387C57.3816 26.6015 58.6449 27.3779 60.476 27.3779Z" fill="#614731"/>
<path fill-rule="evenodd" clip-rule="evenodd" d="M77.9648 15.0008C79.1934 15.0008 79.054 16.5886 78.8342 17.7938L78.5791 19.2077C78.5053 19.6246 78.4178 20.0446 78.318 20.4608C78.3092 20.4863 78.3017 20.5093 78.2925 20.5355C78.1044 21.0723 77.8398 21.7418 77.5331 22.5164C77.4123 22.8223 77.286 23.1417 77.1572 23.4718C76.5945 24.9122 75.6881 25.7799 75.0925 26.2261C75.0728 26.2276 75.0525 26.2308 75.0328 26.2308C74.4302 26.2308 74.1174 25.2224 74.1174 24.2722C74.1174 20.5521 75.6818 15.0008 77.9648 15.0008ZM82.0452 22.1397L83.2737 14.9543C82.8908 15.6499 82.4158 15.8815 81.8481 15.8815C80.6658 15.8815 79.1129 14.8618 77.2588 14.8618C73.3646 14.8618 69.9228 19.3815 69.9228 23.0669C69.9228 25.1993 70.7804 27.3548 73.214 27.3548C73.7535 27.3548 74.2727 27.2495 74.7714 26.9956C74.834 26.9696 74.903 26.9368 74.9698 26.8958C75.5118 26.5634 76.8534 25.5822 77.6087 23.6476C77.7372 23.3182 77.8633 22.9994 77.9839 22.6945C77.9894 22.681 77.9941 22.6685 77.9996 22.655L77.7803 23.6231C77.1197 26.5319 78.8235 27.3548 80.7936 27.3548C81.3498 27.3548 81.9061 27.3085 82.4393 27.1927L82.4738 27.1462C81.2801 27.181 81.6975 24.1331 82.0452 22.1397Z" fill="#614731"/>
<path fill-rule="evenodd" clip-rule="evenodd" d="M86.3936 27.3778C86.9498 27.3778 87.6101 27.2967 88.3519 27.1924L88.3987 27.1459C87.6879 26.854 88.0238 24.7148 88.383 23.0896C88.4908 22.7825 89.102 21.0597 89.9464 18.8983C90.653 17.089 91.909 16.1796 92.4102 15.8747C92.9665 15.9252 93.0158 16.6775 92.8254 17.8746L91.8985 23.6229C91.4348 26.5319 93.0458 27.3663 94.9579 27.3663C95.5141 27.3663 96.0936 27.2967 96.6501 27.1924L96.6961 27.1459C95.6069 26.9606 95.9083 24.1328 96.2559 22.1394L96.8122 18.8482C97.0785 17.272 97.1831 14.8615 94.3899 14.8615C93.7623 14.8615 93.1208 14.9858 92.4885 15.3202C92.475 15.3242 92.462 15.3252 92.4483 15.3312C92.3687 15.3682 90.4614 16.2501 89.4957 18.7222C89.2411 19.3742 89.0122 19.9845 88.8121 20.5315L89.65 16.9244C90.0094 15.3715 89.3952 14.8615 88.0738 14.8615C86.9613 14.8615 85.3389 15.3715 84.5275 15.7654L84.5623 15.8001C85.3156 15.5105 85.6633 15.7654 85.5472 16.4377L84.2494 23.7387C83.7396 26.6014 84.5623 27.3778 86.3936 27.3778Z" fill="#614731"/>
<path fill-rule="evenodd" clip-rule="evenodd" d="M98.3095 23.623C97.8578 26.5318 99.4567 27.3662 101.369 27.3662C101.915 27.3662 102.484 27.2989 103.031 27.1976C103.507 27.126 103.936 26.9827 104.3 26.8059C104.355 26.7814 104.403 26.7561 104.447 26.7324C104.452 26.7304 104.455 26.7281 104.459 26.7259C104.475 26.7176 104.493 26.7081 104.506 26.7006C104.533 26.6851 104.558 26.6693 104.584 26.6538C104.702 26.5843 104.81 26.5125 104.908 26.439C104.988 26.381 105.068 26.3212 105.155 26.2562C105.543 25.9643 105.901 25.5789 106.044 25.1049C106.138 24.7958 106.122 24.4681 106.001 24.169C105.693 23.4077 104.988 23.3841 104.503 23.5802C104.386 23.6275 104.279 23.6885 104.183 23.7613C103.77 24.0749 103.572 24.6049 103.768 25.1699C103.763 25.1537 104.104 25.1789 104.138 25.1887C104.246 25.2197 104.346 25.2762 104.428 25.3535C104.708 25.6164 104.659 25.9405 104.536 26.2649C104.516 26.3172 104.49 26.3665 104.465 26.416C104.258 26.5983 104.014 26.7394 103.736 26.8569C103.477 26.9667 103.136 27.0105 102.832 27.0223C102.081 26.425 102.374 23.9414 102.667 22.1396L103.771 15.3591H107.253C107.259 15.2355 107.581 14.9707 107.581 14.9707C107.015 14.9707 105.034 15.0119 104.468 15.0119H103.828L104.556 10.62H104.486C103.868 13.959 102.541 14.8621 99.7396 15.0027C99.1383 14.9999 98.6356 14.9977 98.6064 14.9974C98.4783 14.9969 98.347 15.0009 98.2515 15.0727C98.2259 15.0917 98.0874 15.3591 98.0909 15.3591H99.6008L98.3095 23.623Z" fill="#614731"/>
<path fill-rule="evenodd" clip-rule="evenodd" d="M34.2948 6.32202C32.7882 6.32202 31.4208 7.45802 31.4208 9.19604C31.4208 10.4016 32.1276 11.3517 33.4952 11.4445C33.8199 10.4711 34.631 10.0307 35.4188 10.0307C36.0754 10.0307 36.5921 10.3243 36.9095 10.7892C36.9465 10.896 36.957 10.9823 36.968 11.0474C36.987 11.1592 37.0003 11.2717 37.0085 11.3848C37.0563 12.0478 36.9195 12.7354 36.6274 13.5347C36.2454 14.5779 35.7127 15.6224 34.5915 17.526C33.8626 18.7633 32.5791 20.9072 31.7832 22.2336L29.708 14.8848C29.152 12.9144 29.2333 11.0256 31.354 11.0256L31.3655 10.9676H21.758L21.7465 11.0256C23.3687 11.0256 24.0645 12.3582 24.8757 15.0932L28.8392 27.9804L31.4153 23.6837C31.4348 23.6679 31.4531 23.6497 31.4668 23.6267C31.4906 23.5869 33.8709 19.6287 34.9761 17.7526C35.0404 17.6428 35.1024 17.5367 35.1635 17.4327L35.4336 16.9822C35.5594 16.7724 35.9018 16.1586 36.1089 15.7725C36.2112 15.5821 36.2747 15.4428 36.2747 15.4428C36.388 15.2215 36.4935 14.9984 36.5941 14.7743C36.7712 14.3926 36.917 14.0404 37.046 13.688C37.2726 13.0688 37.4257 12.48 37.479 11.912C37.5613 11.4168 37.6093 10.9203 37.6093 10.4246C37.6093 7.61985 35.9173 6.32202 34.2948 6.32202Z" fill="#614731"/>
<path fill-rule="evenodd" clip-rule="evenodd" d="M52.2292 51.0891C48.2427 51.0891 41.8571 46.8012 37.0823 46.8012C35.0659 46.8012 32.8874 47.9485 30.801 50.4748L30.7895 50.4633C33.3856 46.6041 38.1487 46.1057 38.9368 41.0762L40.1651 33.2882C40.4085 31.7353 40.9997 28.6294 43.0394 28.6294C44.0128 28.6294 44.5921 29.429 44.5921 30.0548C44.5921 30.8196 44.0358 31.6658 43.1087 31.6425C42.8075 32.8478 43.7577 33.5894 44.8242 33.5894C46.5162 33.5894 48.0689 32.1757 48.0689 30.53C48.0689 29.2552 47.142 28.0962 45.2411 28.0962C40.1884 28.0962 36.0623 33.2882 35.3207 37.7847L34.359 43.7994C33.7333 47.7399 31.7977 48.586 30.5116 50.8227L30.5809 50.8573C31.3227 49.768 31.9482 49.594 32.7596 49.594C38.2995 49.594 43.8275 54.6354 48.5326 54.6354C50.7811 54.6354 52.8435 53.4997 54.5587 50.1157L54.5125 50.0924C53.8982 50.8458 53.2261 51.0891 52.2292 51.0891Z" fill="#614731"/>
<path fill-rule="evenodd" clip-rule="evenodd" d="M52.9989 30.1189C53.0892 29.0844 52.2954 28.587 51.5936 28.5254C50.8362 28.4592 49.9411 28.9021 49.4269 29.6759C49.9193 30.4263 49.6365 31.8537 49.195 32.4292L49.2028 32.4484C51.2212 32.5692 52.8729 31.5598 52.9989 30.1189Z" fill="#614731"/>
<path fill-rule="evenodd" clip-rule="evenodd" d="M51.9201 36.0929C52.1752 34.5167 51.7118 34.03 50.3904 34.03C49.2779 34.03 47.6552 34.54 46.8441 34.9341L46.8789 34.9689C47.6322 34.679 47.9681 34.9341 47.8638 35.6062L46.6585 42.9074C46.1836 45.7584 47.6552 46.5463 49.3937 46.5463C49.9267 46.5463 50.4832 46.4768 51.0162 46.361L51.0395 46.3147C50.2511 45.9205 50.7726 43.0465 51.0395 41.424L51.9201 36.0929Z" fill="#614731"/>
<path fill-rule="evenodd" clip-rule="evenodd" d="M70.0692 28.5254C69.3119 28.4592 68.417 28.9021 67.9025 29.6762C68.3952 30.4265 68.1121 31.8537 67.6707 32.4292L67.6784 32.4484C69.6968 32.5692 71.3485 31.5598 71.4746 30.1189C71.5649 29.0844 70.7713 28.587 70.0692 28.5254Z" fill="#614731"/>
<path fill-rule="evenodd" clip-rule="evenodd" d="M68.867 34.03C67.7545 34.03 66.1318 34.54 65.3207 34.9341L65.3554 34.9687C66.109 34.679 66.4447 34.9341 66.3404 35.6062L65.1354 42.9074C64.6604 45.7582 66.1318 46.5463 67.8706 46.5463C68.4033 46.5463 68.9598 46.4768 69.4928 46.361L69.516 46.3144C68.7277 45.9205 69.2492 43.0462 69.516 41.424L70.3967 36.0929C70.652 34.5167 70.1883 34.03 68.867 34.03Z" fill="#614731"/>
<path fill-rule="evenodd" clip-rule="evenodd" d="M81.8363 34.03C81.1375 34.03 80.4222 34.1836 79.7204 34.6103C79.4955 34.7208 77.741 35.6452 76.8188 38.006C76.6678 38.3929 76.5265 38.7641 76.3937 39.1177L77.0965 36.0929C77.4554 34.54 76.8413 34.03 75.5203 34.03C74.4078 34.03 72.7853 34.54 71.9739 34.9341L72.0087 34.9687C72.762 34.679 73.1097 34.9341 72.9939 35.6062L71.6958 42.9074C71.1858 45.7697 72.0087 46.5463 73.8398 46.5463C74.396 46.5463 75.0571 46.4652 75.7984 46.361L75.8447 46.3144C75.0836 46.0018 75.5233 43.5692 75.9059 41.9195C76.1463 41.2092 76.6295 39.8206 77.2695 38.1823C78.0994 36.0579 79.6879 35.1695 79.9202 35.0512C80.4172 35.1522 80.4547 35.8926 80.2716 37.0431L79.3445 42.7914C78.881 45.7002 80.492 46.5348 82.4043 46.5348C82.9603 46.5348 83.5401 46.4652 84.0961 46.361L84.1428 46.3144C83.0531 46.1291 83.3545 43.3013 83.7021 41.308L84.2584 38.0165C84.525 36.4406 84.6293 34.03 81.8363 34.03Z" fill="#614731"/>
<path fill-rule="evenodd" clip-rule="evenodd" d="M89.6626 43.4403C89.6626 39.7202 91.227 34.169 93.51 34.169C94.7385 34.169 94.5992 35.7567 94.3791 36.962L94.1715 38.1135C94.1645 38.1267 94.1555 38.1385 94.1513 38.1537C94.1463 38.1723 93.6371 40.0248 92.848 42.4011C92.321 43.9881 91.4173 44.896 90.7485 45.3797C90.6915 45.3909 90.6347 45.399 90.5777 45.399C89.9754 45.399 89.6626 44.3908 89.6626 43.4403ZM97.3916 35.0499C96.2093 35.0499 94.6564 34.03 92.8023 34.03C88.9081 34.03 85.4663 38.5497 85.4663 42.2351C85.4663 44.3676 86.3239 46.5233 88.7575 46.5233C89.4658 46.5233 90.1391 46.3432 90.7772 45.881C90.8577 45.8382 90.9407 45.7907 91.001 45.7474C91.7236 45.2267 92.704 44.248 93.2708 42.5418C93.4849 41.8965 93.6777 41.292 93.8463 40.7495L92.5124 47.8674C92.0837 50.1736 91.5275 51.4947 89.7425 51.4947C88.3638 51.4947 87.9464 50.6954 87.9464 50.0578C87.9464 49.4433 88.3403 48.8293 89.2442 48.725C89.3836 47.4734 88.3403 46.8014 87.3899 46.8014C86.0688 46.8014 85.0261 47.7516 85.0261 49.0496C85.0261 51.1588 87.6913 51.5758 89.6149 51.5758C94.0191 51.5758 96.4179 49.374 96.9164 46.1986L98.817 34.1228C98.4343 34.8181 97.9593 35.0499 97.3916 35.0499Z" fill="#614731"/>
<path fill-rule="evenodd" clip-rule="evenodd" d="M64.6429 37.4398C64.6436 37.4003 64.6464 37.3613 64.6464 37.3215C64.6464 35.0037 63.2092 33.8447 61.7951 33.8447C60.4973 33.8447 59.2917 34.8184 59.2917 36.3943C59.2917 37.3678 59.9408 38.2719 61.1233 38.3414C61.4192 36.713 63.8265 36.5329 64.2467 38.0183C64.2469 38.9299 63.9608 39.9049 63.308 41.2487C62.4704 42.9732 60.8915 44.2323 60.2514 44.6935C59.3863 45.3175 58.0257 45.6964 57.6533 45.7925C56.9925 45.5686 57.0703 44.5452 57.3449 42.8149L58.4114 36.0929C58.6662 34.5167 58.2025 34.0303 56.8814 34.0303C55.7689 34.0303 54.1465 34.54 53.3354 34.9342L53.3701 34.9689C54.1232 34.6791 54.4709 34.9342 54.3551 35.6062L53.15 43.116C52.7789 45.4108 53.7523 46.5233 55.8617 46.5233C56.5938 46.5233 57.3396 46.3872 58.0717 46.1409C58.6595 45.9716 59.7444 45.6091 60.5123 45.0554C61.1798 44.5742 62.8273 43.2596 63.7095 41.4438C64.5098 39.7958 64.7877 38.6598 64.6691 37.5226C64.6661 37.4926 64.6569 37.4648 64.6429 37.4398Z" fill="#614731"/>
<path fill-rule="evenodd" clip-rule="evenodd" d="M25.1139 62.5134C25.1139 61.7958 24.884 61.3541 24.35 61.3541C23.191 61.3541 22.9975 63.305 22.9975 64.2066C22.9975 64.9059 23.1448 65.2463 23.6232 65.2463C24.5066 65.2463 25.1139 63.7927 25.1139 62.5134ZM25.9981 63.5635C25.9063 64.1523 25.8143 64.5847 25.8143 64.8886C25.8143 65.1095 25.8881 65.275 26.0997 65.275C26.2745 65.275 26.4033 65.1552 26.6057 64.8794L26.7987 65.0172C26.5686 65.3853 26.219 65.6429 25.7683 65.6429C25.1793 65.6429 24.9219 65.3396 24.9219 64.8699C24.9219 64.7413 24.9399 64.6035 24.9767 64.4469L24.9219 64.4374C24.6273 65.1187 24.0933 65.6429 23.2929 65.6429C22.3633 65.6429 21.9033 65.0452 21.9033 64.0235C21.9033 62.6984 22.6029 61.0512 24.1763 61.0512C24.7746 61.0512 25.1057 61.3365 25.2806 61.7137L25.713 58.8795H24.9674L24.9952 58.6404H26.8172L25.9981 63.5635Z" fill="#614731"/>
<path fill-rule="evenodd" clip-rule="evenodd" d="M30.1018 61.2987C29.5585 61.2987 29.0065 62.0533 28.8592 63.3416C29.8624 63.2773 30.5892 62.9552 30.5892 61.9798C30.5892 61.5196 30.4144 61.2987 30.1018 61.2987ZM31.5456 62.1088C31.5456 63.0567 30.5979 63.3511 29.8156 63.4984C29.503 63.5534 29.1718 63.5902 28.8404 63.6084V63.7375C28.8404 64.86 29.098 65.2652 29.7516 65.2652C30.2761 65.2652 30.8463 64.9798 31.1777 64.0136L31.4263 64.0871C31.1227 65.1178 30.4049 65.6423 29.3834 65.6423C28.3067 65.6423 27.7269 64.9983 27.7269 63.9123C27.7269 62.3481 28.7484 61.0505 30.2485 61.0505C31.0672 61.0505 31.5456 61.4187 31.5456 62.1088Z" fill="#614731"/>
<path fill-rule="evenodd" clip-rule="evenodd" d="M34.7198 64.9891C34.4161 65.4308 34.0937 65.6424 33.6245 65.6424C33.008 65.6424 32.6676 65.3298 32.6676 64.7408C32.6676 64.4096 32.7686 63.8389 32.9895 62.6704L33.7166 58.8789H33.008L33.045 58.6398H34.8116C34.6552 59.3669 33.8181 63.8574 33.7073 64.5657C33.643 64.9799 33.6155 65.2838 33.9192 65.2838C34.1215 65.2838 34.2873 65.1547 34.5079 64.8421L34.7198 64.9891Z" fill="#614731"/>
<path fill-rule="evenodd" clip-rule="evenodd" d="M36.6165 59.7617C36.6165 59.3568 36.9108 59.0349 37.38 59.0349C37.7294 59.0349 37.9688 59.191 37.9688 59.5684C37.9688 59.9918 37.6744 60.2952 37.2052 60.2952C36.7635 60.2952 36.6165 60.0561 36.6165 59.7617ZM37.9674 64.9978C37.6918 65.4119 37.3694 65.6418 36.8817 65.6418C36.2929 65.6418 35.943 65.3747 35.943 64.7769C35.943 64.5928 35.9893 64.2429 36.0811 63.8105C36.1916 63.3135 36.532 61.7311 36.615 61.3812H35.879L35.9247 61.1421H37.6918C37.581 61.6295 37.0197 64.3902 36.992 64.5651C36.9554 64.7309 36.9369 64.8687 36.9369 64.9793C36.9369 65.2094 37.029 65.2829 37.1945 65.2829C37.3879 65.2829 37.5352 65.1541 37.7653 64.8504L37.9674 64.9978Z" fill="#614731"/>
<path fill-rule="evenodd" clip-rule="evenodd" d="M42.5599 64.0964C42.3483 64.8049 41.7868 65.6423 40.563 65.6423C39.4493 65.6423 38.8698 64.9798 38.8698 63.894C38.8698 62.3941 39.7812 61.0505 41.4832 61.0505C42.4033 61.0505 42.8268 61.5475 42.8268 62.1455C42.8268 62.5965 42.5966 62.9739 42.0722 62.9739C41.7133 62.9739 41.5019 62.7806 41.5019 62.5044C41.5019 62.3571 41.5477 62.1915 41.6395 62.0537H41.9711C42.0259 61.9247 42.0444 61.8141 42.0444 61.7131C42.0444 61.428 41.8423 61.2806 41.5107 61.2806C40.3974 61.2806 40.0018 62.6978 40.0018 63.8848C40.0018 64.8602 40.2504 65.2742 40.8941 65.2742C41.5384 65.2742 42.0169 64.8325 42.293 64.0136L42.5599 64.0964Z" fill="#614731"/>
<path fill-rule="evenodd" clip-rule="evenodd" d="M44.6493 59.7617C44.6493 59.3568 44.9437 59.0349 45.4129 59.0349C45.7625 59.0349 46.0019 59.191 46.0019 59.5684C46.0019 59.9918 45.7073 60.2952 45.2381 60.2952C44.7964 60.2952 44.6493 60.0561 44.6493 59.7617ZM46.0005 64.9978C45.7246 65.4119 45.4022 65.6418 44.9147 65.6418C44.3257 65.6418 43.9758 65.3747 43.9758 64.7769C43.9758 64.5928 44.0221 64.2429 44.1139 63.8105C44.2244 63.3135 44.5648 61.7311 44.6479 61.3812H43.9118L43.9576 61.1421H45.7246C45.6138 61.6295 45.0526 64.3902 45.025 64.5651C44.9883 64.7309 44.9698 64.8687 44.9698 64.9793C44.9698 65.2094 45.0618 65.2829 45.2274 65.2829C45.4207 65.2829 45.568 65.1541 45.7981 64.8504L46.0005 64.9978Z" fill="#614731"/>
<path fill-rule="evenodd" clip-rule="evenodd" d="M50.0387 62.468C50.0387 61.6859 49.8456 61.2715 49.2751 61.2715C48.1061 61.2715 47.904 63.3879 47.904 64.1978C47.904 64.9616 48.1156 65.4033 48.6771 65.4033C49.8916 65.4033 50.0387 63.3514 50.0387 62.468ZM46.8643 63.9123C46.8643 62.4769 47.7201 61.0505 49.3859 61.0505C50.5449 61.0505 51.0971 61.6858 51.0971 62.7623C51.0971 64.2622 50.2047 65.6423 48.5853 65.6423C47.4165 65.6423 46.8643 64.9798 46.8643 63.9123Z" fill="#614731"/>
<path fill-rule="evenodd" clip-rule="evenodd" d="M53.0295 61.3817H52.3394L52.3762 61.1426H54.1247C54.0142 61.6025 53.4897 64.1884 53.4527 64.3907C53.4251 64.5381 53.4069 64.6669 53.4069 64.7864C53.4069 65.0443 53.4987 65.2099 53.8301 65.2099C54.4741 65.2099 55.0446 64.2344 55.367 63.0106C55.5416 62.3756 55.6336 61.8509 55.6889 61.1886C55.974 61.1976 56.5903 61.1426 56.8484 61.0873C56.5903 62.2928 56.2869 63.765 56.1859 64.354C56.1398 64.6208 56.1213 64.8142 56.1213 64.952C56.1213 65.1453 56.1946 65.2926 56.3975 65.2926C56.5903 65.2926 56.7469 65.1638 56.9585 64.8692L57.1518 65.0073C56.9219 65.3477 56.5996 65.6423 56.1031 65.6423C55.4956 65.6423 55.2197 65.3752 55.2197 64.897C55.2197 64.7406 55.2472 64.5566 55.3115 64.3447L55.3853 64.0686L55.33 64.0501C54.9803 64.8142 54.4649 65.6423 53.4619 65.6423C52.7076 65.6423 52.4315 65.2099 52.4315 64.6116C52.4315 64.4828 52.4407 64.3447 52.468 64.1974C52.5878 63.5259 52.8454 62.2833 53.0295 61.3817Z" fill="#614731"/>
<path fill-rule="evenodd" clip-rule="evenodd" d="M60.575 64.5291C60.575 64.0689 60.17 63.903 59.7281 63.7375C59.1576 63.5259 58.5318 63.3143 58.5318 62.4769C58.5318 61.5658 59.4245 61.0505 60.4367 61.0505C61.2465 61.0505 61.817 61.3452 61.817 61.9614C61.817 62.3389 61.6054 62.6332 61.1637 62.6332C60.8783 62.6332 60.6485 62.4862 60.6485 62.2376C60.6485 62.0998 60.6853 61.9707 60.7866 61.8419H61.0627C61.0902 61.7776 61.0992 61.7223 61.0992 61.6671C61.0992 61.4462 60.8783 61.3084 60.4737 61.3084C59.8569 61.3084 59.3969 61.621 59.3969 62.118C59.3969 62.5229 59.7926 62.707 60.2528 62.8911C60.8416 63.1212 61.5226 63.3788 61.5226 64.1517C61.5226 65.0626 60.6575 65.6423 59.5167 65.6423C58.486 65.6423 58.0071 65.2006 58.0071 64.6301C58.0071 64.2162 58.2559 63.9308 58.6884 63.9308C58.983 63.9308 59.1851 64.1149 59.1851 64.3818C59.1851 64.5013 59.1576 64.6301 59.0658 64.7499H58.7712C58.7434 64.8049 58.7347 64.8692 58.7347 64.9248C58.7347 65.1731 58.9738 65.3572 59.5167 65.3572C60.133 65.3572 60.575 65.0811 60.575 64.5291Z" fill="#614731"/>
<path fill-rule="evenodd" clip-rule="evenodd" d="M65.0641 64.9891C64.7605 65.4308 64.4386 65.6424 63.9691 65.6424C63.3526 65.6424 63.012 65.3298 63.012 64.7408C63.012 64.4096 63.1135 63.8389 63.3344 62.6704L64.0612 58.8789H63.3526L63.3894 58.6398H65.1562C64.9996 59.3669 64.1625 63.8574 64.0519 64.5657C63.9874 64.9799 63.9599 65.2838 64.2635 65.2838C64.4661 65.2838 64.6317 65.1547 64.8523 64.8421L65.0641 64.9891Z" fill="#614731"/>
<path fill-rule="evenodd" clip-rule="evenodd" d="M65.6628 67.0227C65.598 67.1147 65.5615 67.2158 65.5615 67.2988C65.5615 67.4459 65.6718 67.5562 65.9019 67.5562C66.4079 67.5562 67.0429 67.1147 67.862 65.8724C67.5489 64.7039 67.126 63.1855 66.7943 62.118C66.684 61.7406 66.592 61.6395 66.4264 61.6395C66.2331 61.6395 66.0858 61.8329 65.8927 62.3389L65.6258 62.2286C65.8744 61.5843 66.1503 61.1148 66.8588 61.1148C67.3373 61.1148 67.6319 61.3727 67.8158 61.989C68.0921 62.8909 68.368 63.9123 68.6074 64.8692C69.0581 64.1884 69.7481 63.0014 69.7481 62.3849C69.7481 62.1455 69.6286 61.9799 69.4537 61.9707L69.1591 62.3389C68.874 62.2468 68.6809 62.0167 68.6809 61.7223C68.6809 61.3357 68.9478 61.0505 69.38 61.0505C69.9139 61.0505 70.2086 61.4647 70.2086 62.026C70.2086 62.8816 69.4722 64.1332 68.8832 64.9983C68.0184 66.2681 67.1352 67.8418 65.8281 67.8418C65.1473 67.8418 64.7332 67.4644 64.7332 66.8664C64.7332 66.3969 65.046 66.084 65.4785 66.084C65.8927 66.084 66.2056 66.4059 66.0672 66.9584L65.6628 67.0227Z" fill="#614731"/>
<path fill-rule="evenodd" clip-rule="evenodd" d="M76.4177 64.796C76.4177 64.1795 76.8319 62.9925 76.9885 62.2747C77.0345 62.0908 77.0527 61.9435 77.0527 61.8237C77.0527 61.5846 76.9609 61.474 76.7401 61.474C76.1418 61.474 75.5256 62.3392 75.2217 63.2318C75.0101 63.8576 74.881 64.6394 74.7892 65.5138C74.5039 65.5046 73.8966 65.5506 73.639 65.6056L73.9976 63.9404L74.7892 58.8792H74.0989L74.1267 58.64H75.866L75.0283 62.7346L75.0836 62.7626C75.47 61.971 76.0776 61.0509 77.062 61.0509C77.7063 61.0509 78.0374 61.3913 78.0374 62.0078C78.0374 62.1826 78.0097 62.4035 77.9639 62.606C77.8536 63.0477 77.5867 64.0507 77.4857 64.5014C77.4484 64.6487 77.4026 64.8513 77.4026 64.9986C77.4026 65.2102 77.5039 65.2837 77.6603 65.2837C77.8814 65.2837 78.0834 65.1089 78.2675 64.8603L78.4609 65.0169C78.2125 65.3755 77.8718 65.6426 77.3566 65.6426C76.7676 65.6426 76.4177 65.3573 76.4177 64.796Z" fill="#614731"/>
<path fill-rule="evenodd" clip-rule="evenodd" d="M81.8374 61.2987C81.2944 61.2987 80.7424 62.0533 80.5951 63.3416C81.5982 63.2773 82.3251 62.9552 82.3251 61.9798C82.3251 61.5196 82.1502 61.2987 81.8374 61.2987ZM83.2817 62.1088C83.2817 63.0567 82.334 63.3511 81.5517 63.4984C81.239 63.5534 80.9079 63.5902 80.5765 63.6084V63.7375C80.5765 64.86 80.8341 65.2652 81.4877 65.2652C82.0121 65.2652 82.5824 64.9798 82.9138 64.0136L83.1621 64.0871C82.8588 65.1178 82.1409 65.6423 81.1195 65.6423C80.0428 65.6423 79.463 64.9983 79.463 63.9123C79.463 62.3481 80.4845 61.0505 81.9844 61.0505C82.8032 61.0505 83.2817 61.4187 83.2817 62.1088Z" fill="#614731"/>
<path fill-rule="evenodd" clip-rule="evenodd" d="M87.403 62.5505C87.403 61.7319 87.1178 61.3545 86.6304 61.3545C85.6915 61.3545 85.2868 62.6796 85.2868 64.1332C85.2868 64.796 85.3878 65.2467 85.9216 65.2467C86.7592 65.2467 87.403 63.8206 87.403 62.5505ZM89.0788 65.0165C88.8577 65.3664 88.5173 65.6423 88.048 65.6423C87.4408 65.6423 87.1922 65.3479 87.1922 64.8972C87.1922 64.7499 87.2202 64.5934 87.2657 64.4185L87.2202 64.4095C86.9346 65.0533 86.4191 65.6423 85.5542 65.6423C84.6525 65.6423 84.2018 65.0446 84.2018 64.0046C84.2018 62.6795 84.9382 61.0505 86.4653 61.0505C87.0356 61.0505 87.3765 61.2991 87.5881 61.7591L87.7444 61.1611C88.0663 61.1703 88.4437 61.1428 88.7474 61.0968C88.5173 62.2286 88.2506 63.5444 88.0851 64.7222C88.0663 64.8142 88.0663 64.8972 88.0663 64.9615C88.0663 65.1916 88.1491 65.2837 88.3334 65.2837C88.499 65.2837 88.6831 65.1639 88.8854 64.8692L89.0788 65.0165Z" fill="#614731"/>
<path fill-rule="evenodd" clip-rule="evenodd" d="M92.1877 64.9891C91.8841 65.4308 91.5617 65.6424 91.0925 65.6424C90.476 65.6424 90.1356 65.3298 90.1356 64.7408C90.1356 64.4096 90.2366 63.8389 90.4575 62.6704L91.1845 58.8789H90.476L90.513 58.6398H92.2795C92.1232 59.3669 91.2858 63.8574 91.1753 64.5657C91.111 64.9799 91.0835 65.2838 91.3871 65.2838C91.5895 65.2838 91.7553 65.1547 91.9759 64.8421L92.1877 64.9891Z" fill="#614731"/>
<path fill-rule="evenodd" clip-rule="evenodd" d="M94.9673 61.3819L94.4888 63.9586C94.406 64.391 94.3692 64.6486 94.3692 64.7959C94.3692 65.0721 94.4981 65.2194 94.7649 65.2194C95.0963 65.2194 95.3169 65.0075 95.6023 64.6119L95.8139 64.7684C95.5102 65.2469 95.0595 65.6426 94.443 65.6426C93.6514 65.6426 93.3295 65.2009 93.3295 64.6486C93.3295 64.3265 93.3938 63.9768 93.5041 63.4341L93.8998 61.3819H93.2372L93.274 61.1428H93.9368L94.1114 60.0751L95.2249 59.79L95.004 61.1428H95.9705L95.9334 61.3819H94.9673Z" fill="#614731"/>
<path fill-rule="evenodd" clip-rule="evenodd" d="M99.5307 64.796C99.5307 64.1795 99.9446 62.9925 100.101 62.2747C100.147 62.0908 100.166 61.9435 100.166 61.8237C100.166 61.5846 100.074 61.474 99.8528 61.474C99.2546 61.474 98.6383 62.3392 98.3347 63.2318C98.1228 63.8576 97.9938 64.6394 97.902 65.5138C97.6166 65.5046 97.0093 65.5506 96.752 65.6056L97.1106 63.9404L97.902 58.8792H97.2119L97.2397 58.64H98.9787L98.1411 62.7346L98.1966 62.7626C98.583 61.971 99.1905 61.0509 100.175 61.0509C100.819 61.0509 101.15 61.3913 101.15 62.0078C101.15 62.1826 101.123 62.4035 101.077 62.606C100.966 63.0477 100.699 64.0507 100.598 64.5014C100.561 64.6487 100.516 64.8513 100.516 64.9986C100.516 65.2102 100.617 65.2837 100.773 65.2837C100.994 65.2837 101.196 65.1089 101.381 64.8603L101.574 65.0169C101.325 65.3755 100.985 65.6426 100.469 65.6426C99.8803 65.6426 99.5307 65.3573 99.5307 64.796Z" fill="#614731"/>
<path fill-rule="evenodd" clip-rule="evenodd" d="M102.253 67.0227C102.189 67.1147 102.152 67.2158 102.152 67.2988C102.152 67.4459 102.262 67.5562 102.492 67.5562C102.998 67.5562 103.634 67.1147 104.453 65.8724C104.14 64.7039 103.716 63.1855 103.385 62.118C103.275 61.7406 103.183 61.6395 103.017 61.6395C102.824 61.6395 102.677 61.8329 102.483 62.3389L102.217 62.2286C102.465 61.5843 102.741 61.1148 103.45 61.1148C103.928 61.1148 104.222 61.3727 104.407 61.989C104.683 62.8909 104.959 63.9123 105.198 64.8692C105.649 64.1884 106.339 63.0014 106.339 62.3849C106.339 62.1455 106.219 61.9799 106.045 61.9707L105.75 62.3389C105.465 62.2468 105.271 62.0167 105.271 61.7223C105.271 61.3357 105.539 61.0505 105.971 61.0505C106.505 61.0505 106.799 61.4647 106.799 62.026C106.799 62.8816 106.063 64.1332 105.474 64.9983C104.609 66.2681 103.725 67.8418 102.419 67.8418C101.738 67.8418 101.324 67.4644 101.324 66.8664C101.324 66.3969 101.637 66.084 102.069 66.084C102.483 66.084 102.796 66.4059 102.658 66.9584L102.253 67.0227Z" fill="#614731"/>
</svg>
