<svg width="160" height="130" viewBox="0 0 160 130" fill="none" xmlns="http://www.w3.org/2000/svg">
<path fill-rule="evenodd" clip-rule="evenodd" d="M159.89 40.7817C159.958 40.9952 160 41.2442 160 41.5495H159.472C159.443 41.5899 159.413 41.63 159.383 41.6701C159.075 42.0833 158.767 42.4965 158.767 43.3218C158.767 44.1472 159.075 44.5605 159.383 44.9737C159.691 45.3875 160 45.8013 160 46.6288C160 46.63 159.999 46.6309 159.999 46.6318C159.999 46.6324 159.999 46.633 159.999 46.6335C160 46.634 160 46.6344 160 46.6348C160 47.4624 159.691 47.8762 159.383 48.2901C159.075 48.7033 158.767 49.1166 158.767 49.9418C158.767 50.7672 159.075 51.1804 159.383 51.5937C159.691 52.0074 160 52.4212 160 53.2487C160 53.2494 160 53.2499 159.999 53.2505C159.999 53.2509 159.999 53.2513 159.999 53.2518C159.999 53.2524 159.999 53.2529 159.999 53.2534C160 53.254 160 53.2545 160 53.2551C160 54.0824 159.691 54.4962 159.383 54.91C159.075 55.3233 158.767 55.7366 158.767 56.562C158.767 57.3872 159.075 57.8004 159.383 58.2136C159.691 58.6274 160 59.0412 160 59.8687C160 59.8694 159.999 59.87 159.999 59.8707C159.999 59.8711 159.999 59.8715 159.999 59.872C159.999 59.8724 159.999 59.8728 159.999 59.8733C160 59.8738 160 59.8744 160 59.875C160 60.7025 159.691 61.1163 159.383 61.5301C159.075 61.9434 158.767 62.3566 158.767 63.182C158.767 64.0072 159.075 64.4205 159.383 64.8337C159.691 65.2475 160 65.6613 160 66.4886C160 66.4893 159.999 66.4899 159.999 66.4905C159.999 66.491 159.999 66.4915 159.999 66.492C159.999 66.4927 159.999 66.4932 159.999 66.4938C160 66.4941 160 66.4945 160 66.495C160 67.3225 159.691 67.7363 159.383 68.1501C159.075 68.5633 158.767 68.9766 158.767 69.8019C158.767 70.6272 159.075 71.0404 159.383 71.4537C159.691 71.8675 160 72.2812 160 73.1086C160 73.1092 160 73.1097 159.999 73.1103C159.999 73.1108 159.999 73.1113 159.999 73.1119C159.999 73.1123 159.999 73.1128 159.999 73.1132C160 73.1137 160 73.1143 160 73.115C160 73.9424 159.691 74.3562 159.383 74.77C159.075 75.1833 158.767 75.5965 158.767 76.4219C158.767 77.2471 159.075 77.6603 159.383 78.0736C159.691 78.4875 160 78.9013 160 79.7288C160 79.7294 159.999 79.7299 159.999 79.7305C159.999 79.7309 159.999 79.7314 159.999 79.7319L160 79.7349C160 80.5624 159.691 80.9763 159.383 81.3901C159.075 81.8034 158.767 82.2167 158.767 83.0419C158.767 83.8672 159.075 84.2805 159.383 84.6937C159.691 85.1075 160 85.5213 160 86.3488C160 86.35 159.999 86.3509 159.999 86.3518C159.999 86.3524 159.999 86.353 159.999 86.3535C160 86.354 160 86.3546 160 86.3552C160 87.1825 159.691 87.5963 159.383 88.01C159.075 88.4234 158.767 88.8367 158.767 89.6621C158.767 90.4873 159.075 90.9005 159.383 91.3137C159.691 91.7274 160 92.1412 160 92.9688C160 92.9695 159.999 92.9701 159.999 92.9707C159.999 92.9712 159.999 92.9716 159.999 92.9721C159.999 92.9727 159.999 92.9732 159.999 92.9739C160 92.9743 160 92.9747 160 92.9751C160 93.8026 159.691 94.2164 159.383 94.6302C159.075 95.0434 158.767 95.4567 158.767 96.2821C158.767 97.1073 159.075 97.5204 159.383 97.9336C159.691 98.3474 160 98.7612 160 99.5887C160 99.5899 159.999 99.5908 159.999 99.592C159.999 99.5925 159.999 99.5929 159.999 99.5933C160 99.5939 160 99.5944 160 99.5951C160 100.423 159.691 100.836 159.383 101.25C159.075 101.663 158.767 102.077 158.767 102.902C158.767 103.727 159.075 104.14 159.383 104.554C159.691 104.968 160 105.381 160 106.209C160 106.209 160 106.21 159.999 106.21C159.999 106.211 159.999 106.211 159.999 106.212C159.999 106.212 159.999 106.213 159.999 106.213C160 106.214 160 106.214 160 106.215C160 107.043 159.691 107.456 159.383 107.87C159.075 108.283 158.767 108.697 158.767 109.522C158.767 110.347 159.075 110.76 159.383 111.174C159.691 111.588 160 112.001 160 112.829C160 112.904 160 112.976 160 113.045C160.002 114.488 160.002 114.56 158.928 115.724C158.875 115.782 158.827 115.834 158.779 115.885C158.771 115.968 158.766 116.053 158.766 116.145C158.766 116.973 159.075 117.386 159.383 117.8C159.691 118.214 160 118.628 160 119.455C160 120.283 159.691 120.696 159.383 121.11C159.075 121.524 158.766 121.938 158.766 122.765C158.766 123.593 159.075 124.006 159.383 124.42C159.691 124.834 160 125.248 160 126.075C160 126.15 160 126.222 160 126.291C160.002 127.734 160.002 127.806 158.928 128.971C157.974 130.006 157.868 130.005 156.648 129.999C156.55 129.999 156.444 129.998 156.33 129.998C155.566 129.998 155.185 129.692 154.803 129.385C154.421 129.079 154.04 128.772 153.277 128.772C152.513 128.772 152.132 129.079 151.75 129.385C151.368 129.692 150.987 129.998 150.223 129.998C149.46 129.998 149.078 129.692 148.697 129.385C148.315 129.079 147.933 128.772 147.17 128.772C146.407 128.772 146.025 129.079 145.643 129.385C145.262 129.692 144.88 129.998 144.117 129.998C143.354 129.998 142.972 129.692 142.59 129.385C142.209 129.079 141.827 128.772 141.064 128.772C140.3 128.772 139.919 129.079 139.537 129.385C139.155 129.692 138.774 129.998 138.01 129.998C137.247 129.998 136.865 129.692 136.484 129.385C136.102 129.079 135.72 128.772 134.957 128.772C134.194 128.772 133.812 129.079 133.431 129.385C133.049 129.692 132.667 129.998 131.904 129.998C131.141 129.998 130.759 129.692 130.377 129.385C129.996 129.079 129.614 128.772 128.851 128.772C128.088 128.772 127.706 129.079 127.324 129.385C126.943 129.692 126.561 129.998 125.798 129.998C125.034 129.998 124.653 129.692 124.271 129.385C123.89 129.079 123.508 128.772 122.745 128.772C121.981 128.772 121.6 129.079 121.218 129.385C120.836 129.692 120.455 129.998 119.691 129.998C118.928 129.998 118.546 129.692 118.165 129.385C117.783 129.079 117.401 128.772 116.638 128.772C115.875 128.772 115.493 129.079 115.112 129.385C114.73 129.692 114.348 129.998 113.585 129.998C112.822 129.998 112.44 129.692 112.059 129.385C111.677 129.079 111.295 128.772 110.532 128.772C109.769 128.772 109.387 129.079 109.005 129.385C108.624 129.692 108.242 129.998 107.479 129.998C106.715 129.998 106.334 129.692 105.952 129.385C105.57 129.079 105.189 128.772 104.426 128.772C103.662 128.772 103.281 129.079 102.899 129.385C102.517 129.692 102.136 129.998 101.373 129.998C100.609 129.998 100.228 129.692 99.8459 129.385C99.4642 129.079 99.0826 128.772 98.3192 128.772C97.5559 128.772 97.1743 129.079 96.7926 129.385C96.4109 129.692 96.0293 129.998 95.2659 129.998C94.5026 129.998 94.1209 129.692 93.7393 129.385C93.3576 129.079 92.976 128.772 92.2126 128.772C91.4493 128.772 91.0676 129.079 90.686 129.385C90.3043 129.692 89.9228 129.998 89.1596 129.998C88.3963 129.998 88.0146 129.692 87.633 129.385C87.2513 129.079 86.8696 128.772 86.1063 128.772C85.343 128.772 84.9613 129.079 84.5797 129.385C84.198 129.692 83.8163 129.998 83.053 129.998C82.2897 129.998 81.908 129.692 81.5264 129.385C81.1447 129.079 80.763 128.772 79.9997 128.772C79.2365 128.772 78.8549 129.079 78.4734 129.385C78.0918 129.692 77.7102 129.998 76.947 129.998C76.1837 129.998 75.802 129.692 75.4203 129.385C75.0387 129.079 74.657 128.772 73.8937 128.772C73.1304 128.772 72.7487 129.079 72.367 129.385C71.9854 129.692 71.6037 129.998 70.8404 129.998C70.077 129.998 69.6954 129.692 69.3137 129.385C68.9321 129.079 68.5505 128.772 67.7874 128.772C67.0241 128.772 66.6424 129.079 66.2607 129.385C65.8791 129.692 65.4974 129.998 64.7341 129.998C63.9707 129.998 63.5891 129.692 63.2074 129.385C62.8258 129.079 62.4441 128.772 61.6808 128.772C60.9174 128.772 60.5358 129.079 60.1541 129.385C59.7724 129.692 59.3908 129.998 58.6275 129.998C57.8643 129.998 57.4827 129.692 57.1011 129.385C56.7195 129.079 56.3378 128.772 55.5745 128.772C54.8111 128.772 54.4295 129.079 54.0478 129.385C53.6661 129.692 53.2845 129.998 52.5211 129.998C51.758 129.998 51.3764 129.692 50.9948 129.385C50.6132 129.079 50.2315 128.772 49.4681 128.772C48.7048 128.772 48.3231 129.079 47.9415 129.385C47.5599 129.692 47.1783 129.998 46.4151 129.998C45.6518 129.998 45.2702 129.692 44.8885 129.385C44.5068 129.079 44.1252 128.772 43.3618 128.772C42.5985 128.772 42.2168 129.079 41.8352 129.385C41.4535 129.692 41.0719 129.998 40.3085 129.998C39.5452 129.998 39.1635 129.692 38.7819 129.385C38.4002 129.079 38.0185 128.772 37.2552 128.772C36.4921 128.772 36.1105 129.079 35.7289 129.385C35.3472 129.692 34.9656 129.998 34.2022 129.998C33.4389 129.998 33.0572 129.692 32.6756 129.385C32.2939 129.079 31.9122 128.772 31.1489 128.772C30.3856 128.772 30.0039 129.079 29.6223 129.385C29.2406 129.692 28.8589 129.998 28.0956 129.998C27.3325 129.998 26.9509 129.692 26.5693 129.385C26.1876 129.079 25.806 128.772 25.0426 128.772C24.2795 128.772 23.8979 129.079 23.5163 129.385C23.1346 129.692 22.753 129.998 21.9896 129.998C21.2263 129.998 20.8446 129.692 20.4629 129.385C20.0813 129.079 19.6996 128.772 18.9363 128.772C18.173 128.772 17.7913 129.079 17.4096 129.385C17.028 129.692 16.6463 129.998 15.883 129.998C15.1196 129.998 14.738 129.692 14.3563 129.385C13.9747 129.079 13.5931 128.772 12.83 128.772C12.0667 128.772 11.685 129.079 11.3033 129.385C10.9217 129.692 10.54 129.998 9.77667 129.998C9.01334 129.998 8.63168 129.692 8.25002 129.385C7.86835 129.079 7.48669 128.772 6.72336 128.772C5.96004 128.772 5.57837 129.079 5.19671 129.385C4.81505 129.692 4.43338 129.998 3.67006 129.998C3.55598 129.998 3.45021 129.999 3.3517 129.999C2.13241 130.005 2.02631 130.006 1.07145 128.971C-0.00217021 127.807 -0.00205751 127.734 0.000193423 126.292C0.000301177 126.223 0.00041383 126.151 0.00041383 126.075C0.00041383 125.248 0.30876 124.834 0.617093 124.42C0.925399 124.006 1.23369 123.593 1.23369 122.765C1.23369 121.938 0.925372 121.524 0.617053 121.11C0.308733 120.696 0.00041383 120.283 0.00041383 119.455C0.00041383 118.628 0.308706 118.214 0.617012 117.8C0.925345 117.386 1.23369 116.973 1.23369 116.145C1.23369 116.053 1.22881 115.968 1.22119 115.885C1.17331 115.834 1.12451 115.782 1.07145 115.724C-0.00217025 114.56 -0.00205751 114.488 0.000193424 113.046C0.000301177 112.977 0.00041383 112.905 0.00041383 112.829C0.00041383 112.001 0.308693 111.588 0.616954 111.174C0.924798 110.76 1.23262 110.347 1.23339 109.522C1.23262 108.697 0.92477 108.283 0.616911 107.87C0.308664 107.456 0.00041383 107.043 0.00041383 106.215C0.00041383 106.214 0.000490551 106.214 0.000567031 106.213C0.000643032 106.213 0.000718795 106.212 0.000718795 106.212C0.000718795 106.211 0.000652664 106.211 0.000581993 106.21C0.000500901 106.21 0.00041383 106.209 0.00041383 106.209C0.00041383 105.381 0.308636 104.968 0.616869 104.554C0.924741 104.14 1.23262 103.727 1.23339 102.902C1.23262 102.077 0.924798 101.663 0.616954 101.25C0.308693 100.836 0.00041383 100.423 0.00041383 99.5951C0.00041383 99.5944 0.000501412 99.5939 0.000582706 99.5933C0.000653108 99.5929 0.000718795 99.5925 0.000718795 99.592C0.000718795 99.5914 0.000642553 99.5909 0.000566312 99.5904C0.000490071 99.5898 0.00041383 99.5893 0.00041383 99.5887C0.00041383 98.7612 0.308694 98.3474 0.616956 97.9336C0.9248 97.5204 1.23262 97.1073 1.23339 96.2821C1.23262 95.4567 0.92477 95.0434 0.616911 94.6302C0.308664 94.2164 0.00041383 93.8026 0.00041383 92.9751C0.00041383 92.9745 0.000500901 92.9739 0.000581993 92.9734C0.000652664 92.9729 0.000718795 92.9725 0.000718795 92.9721C0.000718795 92.9715 0.000643032 92.971 0.000567031 92.9704C0.000490551 92.9699 0.00041383 92.9694 0.00041383 92.9688C0.00041383 92.1412 0.308693 91.7274 0.616954 91.3137C0.924798 90.9005 1.23262 90.4873 1.23339 89.6621C1.23262 88.8367 0.924741 88.4234 0.616869 88.01C0.308636 87.5963 0.00041383 87.1825 0.00041383 86.3552C0.00041383 86.3546 0.000490071 86.354 0.000566312 86.3535C0.000642553 86.353 0.000718795 86.3524 0.000718795 86.3518C0.000718795 86.3514 0.000653257 86.351 0.000582945 86.3505C0.000501584 86.35 0.00041383 86.3494 0.00041383 86.3488C0.00041383 85.5213 0.308664 85.1075 0.616911 84.6937C0.92477 84.2805 1.23262 83.8672 1.23339 83.0419C1.23262 82.2167 0.924798 81.8034 0.616954 81.3901C0.308693 80.9763 0.00041383 80.5624 0.00041383 79.7349L0.000718795 79.7319C0.000718795 79.7312 0.000631723 79.7307 0.000550631 79.7301C0.00047996 79.7297 0.00041383 79.7293 0.00041383 79.7288C0.00041383 78.9013 0.308693 78.4875 0.616954 78.0736C0.924798 77.6603 1.23262 77.2471 1.23339 76.4219C1.23262 75.5965 0.924768 75.1833 0.616909 74.77C0.308663 74.3562 0.00041383 73.9424 0.00041383 73.115C0.00041383 73.1143 0.000502096 73.1137 0.000583656 73.1132C0.000653698 73.1128 0.000718795 73.1123 0.000718795 73.1119C0.000718795 73.1113 0.000642553 73.1108 0.000566312 73.1103C0.000490071 73.1097 0.00041383 73.1092 0.00041383 73.1086C0.00041383 72.2812 0.308663 71.8675 0.616909 71.4537C0.924768 71.0404 1.23262 70.6272 1.23339 69.8019C1.23262 68.9766 0.924771 68.5633 0.616913 68.1501C0.308666 67.7363 0.00041383 67.3225 0.00041383 66.495C0.00041383 66.4944 0.000489592 66.4939 0.000565593 66.4935C0.000642073 66.493 0.000718795 66.4926 0.000718795 66.492C0.000718795 66.4914 0.000643032 66.4908 0.000567031 66.4903C0.000490551 66.4898 0.00041383 66.4892 0.00041383 66.4886C0.00041383 65.6613 0.308664 65.2475 0.616911 64.8337C0.92477 64.4205 1.23262 64.0072 1.23339 63.182C1.23262 62.3566 0.92477 61.9434 0.616911 61.5301C0.308664 61.1163 0.00041383 60.7025 0.00041383 59.875C0.00041383 59.8744 0.000501412 59.8738 0.000582706 59.8733C0.000653108 59.8728 0.000718795 59.8724 0.000718795 59.872C0.000718795 59.8714 0.000643032 59.8709 0.000567031 59.8703C0.000490551 59.8698 0.00041383 59.8693 0.00041383 59.8687C0.00041383 59.0412 0.308693 58.6274 0.616954 58.2136C0.924798 57.8004 1.23262 57.3872 1.23339 56.562C1.23262 55.7366 0.924741 55.3233 0.616869 54.91C0.308636 54.4962 0.00041383 54.0824 0.00041383 53.2551C0.00041383 53.2545 0.000490071 53.254 0.000566312 53.2534C0.000642553 53.2529 0.000718795 53.2524 0.000718795 53.2518C0.000718795 53.2513 0.000653108 53.2509 0.000582706 53.2505C0.000501412 53.2499 0.00041383 53.2494 0.00041383 53.2487C0.00041383 52.4212 0.308664 52.0074 0.61691 51.5937C0.924769 51.1804 1.23262 50.7672 1.23339 49.9418C1.23262 49.1166 0.924798 48.7033 0.616954 48.2901C0.308693 47.8762 0.00041383 47.4624 0.00041383 46.6348C0.00041383 46.6344 0.000479737 46.634 0.000550274 46.6335C0.000631467 46.633 0.000718795 46.6324 0.000718795 46.6318C0.000718795 46.6314 0.000653182 46.631 0.000582824 46.6305C0.000501497 46.63 0.00041383 46.6294 0.00041383 46.6288C0.00041383 45.8013 0.308665 45.3875 0.616912 44.9737C0.92477 44.5605 1.23262 44.1472 1.23339 43.3218C1.23262 42.4965 0.924798 42.0833 0.616954 41.6701C0.587091 41.63 0.557228 41.5899 0.527645 41.5495H0.00109185C0.00109185 41.2449 0.0428546 40.9964 0.111008 40.7833C0.0424539 40.5697 0.00041383 40.3205 0.00041383 40.0149C0.00041383 40.0145 0.000479442 40.014 0.0005498 40.0136C0.000631127 40.0131 0.000718795 40.0125 0.000718795 40.0118C0.000718795 40.0112 0.000631467 40.0106 0.000550274 40.0101C0.000479737 40.0097 0.00041383 40.0092 0.00041383 40.0088C0.00041383 39.1813 0.308692 38.7674 0.616953 38.3536C0.811166 38.0929 1.00537 37.8321 1.12247 37.468C1.00528 37.1048 0.811406 36.8446 0.617537 36.5844C0.309307 36.1706 0.00109185 35.7569 0.00109185 34.9295C0.00109185 34.6249 0.0428534 34.3764 0.111005 34.1632C0.0424527 33.9497 0.00041383 33.7005 0.00041383 33.3949C0.00041383 33.3945 0.000479442 33.3941 0.0005498 33.3936C0.000631127 33.3931 0.000718795 33.3925 0.000718795 33.3919C0.000718795 33.3913 0.000642553 33.3908 0.000566312 33.3902C0.000490071 33.3897 0.00041383 33.3892 0.00041383 33.3886C0.00041383 32.5612 0.308665 32.1474 0.616912 31.7337C0.757136 31.5454 0.897356 31.3572 1.00856 31.13C-0.0015154 30.0315 -0.00136124 29.9339 0.000867839 28.5212C0.000977343 28.4518 0.00109185 28.3792 0.00109185 28.3032C0.00109185 28.0001 0.0424419 27.7526 0.109997 27.5402C0.0420402 27.3273 0.00041383 27.0791 0.00041383 26.775H0.000718795C0.000718795 26.7739 0.000647458 26.773 0.000573788 26.772C0.000495138 26.7709 0.00041383 26.7699 0.00041383 26.7686C0.00041383 25.9412 0.308706 25.5275 0.617011 25.1138C0.811226 24.8531 1.00545 24.5925 1.12261 24.2285C1.00544 23.8652 0.811517 23.6048 0.617589 23.3445C0.309342 22.9307 0.00109185 22.517 0.00109185 21.6896C0.00109185 21.689 0.0011681 21.6885 0.00124434 21.688C0.00132058 21.6874 0.00139682 21.6869 0.00139682 21.6863C0.00139682 21.6856 0.00130915 21.6851 0.00122782 21.6845C0.00115747 21.6841 0.00109185 21.6837 0.00109185 21.6833C0.00109185 21.3787 0.0428591 21.1301 0.111019 20.917C0.0424576 20.7034 0.00041383 20.4542 0.00041383 20.1486C0.00041383 19.3213 0.308704 18.9076 0.617009 18.4938C0.811225 18.2332 1.00545 17.9726 1.12261 17.6085C1.00545 17.2452 0.811547 16.9849 0.617632 16.7246C0.309371 16.3107 0.00109185 15.8969 0.00109185 15.0694L0.00139682 15.0663C0.00139682 15.0657 0.00130949 15.0651 0.0012283 15.0646C0.00115776 15.0641 0.00109185 15.0637 0.00109185 15.0633C0.00109185 14.7587 0.0428496 14.5101 0.110996 14.297C0.0424482 14.0834 0.00041383 13.8343 0.00041383 13.5287C0.00041383 13.4531 0.000301177 13.3809 0.000193424 13.3119C-0.00201144 11.899 -0.00216343 11.8007 1.00688 10.7033C0.896057 10.4783 0.756823 10.2914 0.617589 10.1045C0.309342 9.69068 0.00109185 9.27689 0.00109185 8.44941C0.00109185 8.44876 0.00117952 8.4482 0.00126085 8.44767C0.00133121 8.44722 0.00139682 8.44679 0.00139682 8.44637C0.00139682 8.44577 0.00132058 8.44524 0.00124434 8.4447C0.0011681 8.44418 0.00109185 8.44365 0.00109185 8.44304C0.00109185 7.61575 0.309314 7.20196 0.617547 6.78815C0.925419 6.37484 1.2333 5.96151 1.23406 5.13609C1.2333 4.3109 0.925476 3.89772 0.617632 3.48452C0.309371 3.07076 0.00109185 2.65697 0.00109185 1.82945C0.00109185 1.82884 0.0011681 1.82832 0.00124434 1.82779C0.00132058 1.82726 0.00139682 1.82672 0.00139682 1.82612C0.00139682 1.8257 0.00133121 1.82528 0.00126085 1.82483C0.00117952 1.8243 0.00109185 1.82374 0.00109185 1.82309C0.00109185 0.995796 0.309314 0.582008 0.617547 0.168205C0.925419 -0.24511 1.2333 -0.65844 1.23406 -1.48386C1.2333 -2.30905 0.925477 -2.72223 0.617633 -3.13543C0.309372 -3.54919 0.00109185 -3.96297 0.00109185 -4.7905C0.00109185 -4.79111 0.00116785 -4.79163 0.00124398 -4.79216C0.00132034 -4.79269 0.00139682 -4.79323 0.00139682 -4.79384C0.00139682 -4.79445 0.00132058 -4.7949 0.00124434 -4.79535C0.0011681 -4.79581 0.00109185 -4.79626 0.00109185 -4.79687C0.00109185 -5.62435 0.309342 -6.03814 0.617589 -6.45192C0.925448 -6.86518 1.2333 -7.27843 1.23406 -8.10381C1.2333 -8.92905 0.925448 -9.3423 0.617589 -9.75555C0.309342 -10.1693 0.00109185 -10.5831 0.00109185 -11.4105C0.00109185 -11.4111 0.0011681 -11.4116 0.00124434 -11.4121C0.00132058 -11.4127 0.00139682 -11.4132 0.00139682 -11.4138C0.00139682 -11.4142 0.00133121 -11.4146 0.00126085 -11.4151C0.00117952 -11.4156 0.00109185 -11.4162 0.00109185 -11.4168C0.00109185 -12.2443 0.309342 -12.6581 0.617589 -13.0719C0.925448 -13.4851 1.2333 -13.8984 1.23406 -14.7238C1.2333 -15.549 0.925476 -15.9622 0.617632 -16.3755C0.309371 -16.7893 0.00109185 -17.2032 0.00109185 -18.0307C0.00109185 -18.0311 0.00115747 -18.0316 0.00122782 -18.032C0.00130915 -18.0325 0.00139682 -18.0331 0.00139682 -18.0337C0.00139682 -18.0342 0.00133095 -18.0346 0.00126043 -18.035C0.00117922 -18.0356 0.00109185 -18.0361 0.00109185 -18.0368C0.00109185 -18.8643 0.309343 -19.278 0.61759 -19.6918C0.925448 -20.1051 1.2333 -20.5183 1.23406 -21.3437C1.2333 -22.1691 0.925448 -22.5824 0.617589 -22.9956C0.309342 -23.4094 0.00109185 -23.8232 0.00109185 -24.6507C0.00109185 -24.6513 0.00117952 -24.6519 0.00126085 -24.6524C0.00133121 -24.6529 0.00139682 -24.6533 0.00139682 -24.6537C0.00139682 -24.6543 0.00130915 -24.6549 0.00122782 -24.6554C0.00115747 -24.6559 0.00109185 -24.6563 0.00109185 -24.6567C0.00109185 -25.4843 0.30937 -25.8981 0.617632 -26.312C0.925476 -26.7252 1.2333 -27.1385 1.23406 -27.9637C1.2333 -28.7891 0.925448 -29.2023 0.61759 -29.6156C0.309343 -30.0294 0.00109185 -30.4431 0.00109185 -31.2706C0.00109185 -31.2712 0.0011681 -31.2718 0.00124434 -31.2723C0.00132058 -31.2728 0.00139682 -31.2734 0.00139682 -31.274C0.00139682 -31.2744 0.00133121 -31.2748 0.00126085 -31.2753C0.00117952 -31.2758 0.00109185 -31.2763 0.00109185 -31.277C0.00109185 -32.1043 0.309314 -32.5181 0.617547 -32.9319C0.92542 -33.3452 1.2333 -33.7585 1.23406 -34.5839C1.2333 -35.4091 0.925477 -35.8223 0.617633 -36.2355C0.309371 -36.6493 0.00109185 -37.0631 0.00109185 -37.8906C0.00109185 -37.8912 0.0011681 -37.8917 0.00124434 -37.8922C0.00132058 -37.8928 0.00139682 -37.8933 0.00139682 -37.8939C0.00139682 -37.8943 0.00133106 -37.8948 0.00126061 -37.8952C0.00117935 -37.8957 0.00109185 -37.8963 0.00109185 -37.8969C0.00109185 -38.7245 0.309371 -39.1383 0.617632 -39.552C0.925476 -39.9652 1.2333 -40.3784 1.23406 -41.2036C1.2333 -42.029 0.92542 -42.4423 0.617548 -42.8556C0.309315 -43.2694 0.00109185 -43.6832 0.00109185 -44.5105C0.00109185 -44.5112 0.00117944 -44.5117 0.00126073 -44.5123C0.00133113 -44.5127 0.00139682 -44.5131 0.00139682 -44.5136C0.00139682 -44.5142 0.00132058 -44.5147 0.00124434 -44.5152C0.0011681 -44.5158 0.00109185 -44.5163 0.00109185 -44.5169C0.00109185 -45.3444 0.309343 -45.7582 0.61759 -46.1719C0.925448 -46.5852 1.2333 -46.9985 1.23406 -47.8238C1.2333 -48.649 0.925476 -49.0623 0.617632 -49.4756C0.309371 -49.8894 0.00109185 -50.3033 0.00109185 -51.1308C0.00109185 -51.1312 0.00115754 -51.1316 0.00122794 -51.1321C0.00130924 -51.1326 0.00139682 -51.1332 0.00139682 -51.1338C0.00139682 -51.1342 0.00133113 -51.1347 0.00126073 -51.1351C0.00117944 -51.1356 0.00109185 -51.1362 0.00109185 -51.1369C0.00109185 -51.9643 0.309342 -52.3781 0.617589 -52.7919C0.925448 -53.2052 1.2333 -53.6184 1.23406 -54.4438C1.2333 -55.269 0.925476 -55.6822 0.617632 -56.0955C0.309371 -56.5094 0.00109185 -56.9232 0.00109185 -57.7507H0.00139682C0.00139682 -57.7518 0.00132058 -57.7528 0.00124434 -57.7538C0.0011681 -57.7548 0.00109185 -57.7557 0.00109185 -57.7568C0.00109185 -58.5844 0.309363 -58.9982 0.617621 -59.412C0.92585 -59.8257 1.23406 -60.2394 1.23406 -61.0668C1.23406 -61.8944 0.925821 -62.3081 0.617578 -62.7219C0.309335 -63.1357 0.00109185 -63.5495 0.00109185 -64.3771C0.00109185 -65.2044 0.309307 -65.6182 0.617536 -66.0319C0.925793 -66.4456 1.23406 -66.8594 1.23406 -67.687C1.23406 -68.5144 0.92585 -68.9281 0.61762 -69.3419C0.309363 -69.7556 0.00109185 -70.1694 0.00109185 -70.997C0.00109185 -71.073 0.000977345 -71.1456 0.000867842 -71.215C-0.00140684 -72.6563 -0.00152123 -72.7288 1.07182 -73.8925C2.10382 -75.011 2.37677 -75.1244 3.76405 -74.9128C4.47501 -74.8044 4.83421 -74.5276 5.17484 -74.2652C5.55732 -73.9706 5.91639 -73.6939 6.72374 -73.6939C7.48706 -73.6939 7.86873 -74.0005 8.25039 -74.307C8.63205 -74.6135 9.01372 -74.9201 9.77704 -74.9201C10.5404 -74.9201 10.922 -74.6135 11.3037 -74.307C11.6854 -74.0005 12.067 -73.6939 12.8304 -73.6939C13.5937 -73.6939 13.9753 -74.0005 14.357 -74.307C14.7387 -74.6135 15.1203 -74.9201 15.8837 -74.9201C16.6468 -74.9201 17.0284 -74.6136 17.41 -74.307C17.7916 -74.0005 18.1733 -73.6939 18.9367 -73.6939C19.7 -73.6939 20.0817 -74.0005 20.4633 -74.307C20.845 -74.6135 21.2266 -74.9201 21.99 -74.9201C22.7533 -74.9201 23.135 -74.6135 23.5166 -74.307C23.8983 -74.0005 24.2799 -73.6939 25.0433 -73.6939C25.8066 -73.6939 26.1883 -74.0005 26.5699 -74.307C26.9516 -74.6136 27.3331 -74.9201 28.0963 -74.9201C28.8594 -74.9201 29.241 -74.6136 29.6226 -74.307C30.0043 -74.0005 30.3859 -73.6939 31.1493 -73.6939C31.9126 -73.6939 32.2943 -74.0005 32.6759 -74.307C33.0576 -74.6135 33.4393 -74.9201 34.2026 -74.9201C34.9659 -74.9201 35.3476 -74.6135 35.7292 -74.307C36.1109 -74.0005 36.4926 -73.6939 37.2559 -73.6939C38.0193 -73.6939 38.4009 -74.0005 38.7826 -74.307C39.1642 -74.6136 39.5458 -74.9201 40.3089 -74.9201C41.0722 -74.9201 41.4539 -74.6135 41.8356 -74.307C42.2172 -74.0005 42.5989 -73.6939 43.3622 -73.6939C44.1255 -73.6939 44.5072 -74.0005 44.8889 -74.307C45.2705 -74.6135 45.6522 -74.9201 46.4155 -74.9201C47.1788 -74.9201 47.5605 -74.6135 47.9422 -74.307C48.3238 -74.0005 48.7055 -73.6939 49.4688 -73.6939C50.232 -73.6939 50.6136 -74.0005 50.9952 -74.307C51.3768 -74.6135 51.7583 -74.9201 52.5215 -74.9201C53.2849 -74.9201 53.6665 -74.6135 54.0482 -74.307C54.4298 -74.0005 54.8115 -73.6939 55.5748 -73.6939C56.3382 -73.6939 56.7198 -74.0005 57.1015 -74.307C57.4831 -74.6135 57.8648 -74.9201 58.6281 -74.9201C59.3915 -74.9201 59.7732 -74.6135 60.1548 -74.307C60.5364 -74.0004 60.918 -73.6939 61.6811 -73.6939C62.4445 -73.6939 62.8261 -74.0005 63.2078 -74.307C63.5895 -74.6135 63.9711 -74.9201 64.7344 -74.9201C65.4978 -74.9201 65.8794 -74.6135 66.2611 -74.307C66.6428 -74.0005 67.0244 -73.6939 67.7878 -73.6939C68.5511 -73.6939 68.9327 -74.0005 69.3144 -74.307C69.6961 -74.6135 70.0777 -74.9201 70.8411 -74.9201C71.6042 -74.9201 71.9858 -74.6136 72.3674 -74.307C72.749 -74.0005 73.1307 -73.6939 73.8941 -73.6939C74.6574 -73.6939 75.0391 -74.0005 75.4207 -74.307C75.8024 -74.6135 76.1841 -74.9201 76.9474 -74.9201C77.7105 -74.9201 78.0921 -74.6136 78.4737 -74.307C78.8553 -74.0005 79.237 -73.6939 80.0004 -73.6939C80.7637 -73.6939 81.1454 -74.0005 81.527 -74.307C81.9087 -74.6135 82.2904 -74.9201 83.0537 -74.9201C83.8168 -74.9201 84.1984 -74.6136 84.58 -74.307C84.9617 -74.0005 85.3433 -73.6939 86.1067 -73.6939C86.87 -73.6939 87.2517 -74.0005 87.6333 -74.307C88.015 -74.6135 88.3967 -74.9201 89.16 -74.9201C89.9233 -74.9201 90.305 -74.6135 90.6866 -74.307C91.0683 -74.0005 91.45 -73.6939 92.2133 -73.6939C92.9767 -73.6939 93.3583 -74.0005 93.74 -74.307C94.1216 -74.6136 94.5032 -74.9201 95.2663 -74.9201C96.0296 -74.9201 96.4113 -74.6135 96.793 -74.307C97.1746 -74.0005 97.5563 -73.6939 98.3196 -73.6939C99.0829 -73.6939 99.4646 -74.0005 99.8463 -74.307C100.228 -74.6135 100.61 -74.9201 101.373 -74.9201C102.136 -74.9201 102.518 -74.6135 102.9 -74.307C103.281 -74.0005 103.663 -73.6939 104.426 -73.6939C105.189 -73.6939 105.571 -74.0004 105.952 -74.3069C106.334 -74.6135 106.716 -74.9201 107.479 -74.9201C108.242 -74.9201 108.624 -74.6135 109.006 -74.307C109.387 -74.0005 109.769 -73.6939 110.532 -73.6939C111.296 -73.6939 111.677 -74.0005 112.059 -74.307C112.441 -74.6135 112.822 -74.9201 113.586 -74.9201C114.349 -74.9201 114.731 -74.6135 115.112 -74.307C115.494 -74.0004 115.875 -73.6939 116.639 -73.6939C117.402 -73.6939 117.784 -74.0005 118.165 -74.307C118.547 -74.6135 118.929 -74.9201 119.692 -74.9201C120.455 -74.9201 120.837 -74.6135 121.219 -74.307C121.6 -74.0005 121.982 -73.6939 122.745 -73.6939C123.508 -73.6939 123.89 -74.0005 124.272 -74.307C124.653 -74.6135 125.035 -74.9201 125.798 -74.9201C126.562 -74.9201 126.943 -74.6136 127.325 -74.307C127.706 -74.0005 128.088 -73.6939 128.851 -73.6939C129.615 -73.6939 129.996 -74.0004 130.378 -74.307C130.759 -74.6135 131.141 -74.9201 131.904 -74.9201C132.668 -74.9201 133.049 -74.6135 133.431 -74.307C133.813 -74.0005 134.194 -73.6939 134.958 -73.6939C135.721 -73.6939 136.103 -74.0005 136.484 -74.307C136.866 -74.6136 137.248 -74.9201 138.011 -74.9201C138.774 -74.9201 139.156 -74.6135 139.537 -74.307C139.919 -74.0005 140.301 -73.6939 141.064 -73.6939C141.827 -73.6939 142.209 -74.0005 142.591 -74.307C142.972 -74.6135 143.354 -74.9201 144.117 -74.9201C144.881 -74.9201 145.262 -74.6135 145.644 -74.307C146.026 -74.0005 146.407 -73.6939 147.171 -73.6939C147.934 -73.6939 148.315 -74.0004 148.697 -74.307C149.079 -74.6135 149.46 -74.9201 150.224 -74.9201C150.987 -74.9201 151.369 -74.6135 151.75 -74.307C152.132 -74.0005 152.514 -73.6939 153.277 -73.6939C154.04 -73.6939 154.422 -74.0004 154.803 -74.307C155.185 -74.6135 155.567 -74.9201 156.33 -74.9201C156.444 -74.9201 156.55 -74.9206 156.648 -74.921C157.868 -74.9269 157.974 -74.9274 158.929 -73.8925C160.003 -72.7285 160.002 -72.6563 160 -71.2138C160 -71.1447 160 -71.0726 160 -70.997C160 -70.1694 159.692 -69.7556 159.383 -69.3419C159.075 -68.9281 158.767 -68.5144 158.767 -67.687C158.767 -66.8594 159.075 -66.4456 159.383 -66.0319C159.692 -65.6182 160 -65.2044 160 -64.3771C160 -63.5495 159.692 -63.1357 159.383 -62.7219C159.075 -62.3081 158.767 -61.8944 158.767 -61.0668C158.767 -60.2394 159.075 -59.8257 159.383 -59.412C159.692 -58.9982 160 -58.5844 160 -57.7568C160 -57.7547 160 -57.7529 160 -57.7507H160C160 -56.9232 159.692 -56.5094 159.383 -56.0955C159.076 -55.6822 158.768 -55.269 158.767 -54.4438C158.768 -53.6184 159.076 -53.2052 159.383 -52.7919C159.692 -52.3781 160 -51.9643 160 -51.1369C160 -51.1362 160 -51.1356 160 -51.1351C160 -51.1347 160 -51.1342 160 -51.1338C160 -51.133 160 -51.1324 160 -51.1317C160 -51.1314 160 -51.1311 160 -51.1308C160 -50.3033 159.692 -49.8894 159.383 -49.4756C159.076 -49.0623 158.768 -48.649 158.767 -47.8238C158.768 -46.9985 159.076 -46.5852 159.383 -46.1719C159.692 -45.7582 160 -45.3444 160 -44.5169C160 -44.516 160 -44.5153 160 -44.5146C160 -44.5142 160 -44.5139 160 -44.5136C160 -44.5127 160 -44.5117 160 -44.5105C160 -43.6832 159.692 -43.2694 159.384 -42.8556C159.076 -42.4423 158.768 -42.029 158.767 -41.2036C158.768 -40.3784 159.076 -39.9652 159.383 -39.552C159.692 -39.1383 160 -38.7245 160 -37.8969C160 -37.8963 160 -37.8957 160 -37.8952C160 -37.8948 160 -37.8943 160 -37.8939C160 -37.8927 160 -37.8918 160 -37.8906C160 -37.0631 159.692 -36.6493 159.383 -36.2355C159.076 -35.8223 158.768 -35.4091 158.767 -34.5839C158.768 -33.7585 159.076 -33.3452 159.384 -32.9319C159.692 -32.5181 160 -32.1043 160 -31.277C160 -31.2763 160 -31.2758 160 -31.2753C160 -31.2748 160 -31.2744 160 -31.274C160 -31.2734 160 -31.2728 160 -31.2723C160 -31.2718 160 -31.2712 160 -31.2706C160 -30.4431 159.692 -30.0294 159.383 -29.6156C159.076 -29.2023 158.768 -28.7891 158.767 -27.9637C158.768 -27.1385 159.076 -26.7252 159.383 -26.312C159.692 -25.8981 160 -25.4843 160 -24.6567C160 -24.6558 160 -24.6549 160 -24.6537C160 -24.6533 160 -24.6529 160 -24.6524C160 -24.6519 160 -24.6513 160 -24.6507C160 -23.8232 159.692 -23.4094 159.383 -22.9956C159.076 -22.5824 158.768 -22.1691 158.767 -21.3437C158.768 -20.5183 159.076 -20.1051 159.383 -19.6918C159.692 -19.278 160 -18.8643 160 -18.0368C160 -18.0356 160 -18.0347 160 -18.0337C160 -18.0331 160 -18.0325 160 -18.032C160 -18.0316 160 -18.0311 160 -18.0307C160 -17.2032 159.692 -16.7893 159.383 -16.3755C159.076 -15.9622 158.768 -15.549 158.767 -14.7238C158.768 -13.8984 159.076 -13.4851 159.383 -13.0719C159.692 -12.6581 160 -12.2443 160 -11.4168C160 -11.4156 160 -11.4147 160 -11.4138C160 -11.4126 160 -11.4117 160 -11.4105C160 -10.5831 159.692 -10.1693 159.383 -9.75555C159.076 -9.3423 158.768 -8.92905 158.767 -8.10381C158.768 -7.27843 159.076 -6.86518 159.383 -6.45192C159.692 -6.03814 160 -5.62435 160 -4.79687C160 -4.79628 160 -4.79584 160 -4.79539C160 -4.79493 160 -4.79446 160 -4.79384C160 -4.79305 160 -4.79239 160 -4.79169C160 -4.79131 160 -4.79092 160 -4.7905C160 -3.96297 159.692 -3.54919 159.383 -3.13543C159.076 -2.72223 158.768 -2.30905 158.767 -1.48386C158.768 -0.65844 159.076 -0.24511 159.384 0.168205C159.692 0.582008 160 0.995796 160 1.82309C160 1.82374 160 1.8243 160 1.82483C160 1.82528 160 1.8257 160 1.82612C160 1.82733 160 1.82824 160 1.82945C160 2.65697 159.692 3.07076 159.383 3.48452C159.076 3.89772 158.768 4.3109 158.767 5.13609C158.768 5.96151 159.076 6.37484 159.384 6.78815C159.692 7.20196 160 7.61575 160 8.44304C160 8.44425 160 8.44516 160 8.44637C160 8.447 160 8.44763 160 8.44836C160 8.44869 160 8.44904 160 8.44941C160 9.27689 159.692 9.69068 159.383 10.1045C159.244 10.2916 159.105 10.4788 158.994 10.7043C160.002 11.8011 160.002 11.8994 160 13.3129C160 13.3817 160 13.4535 160 13.5287C160 13.8335 159.958 14.0821 159.89 14.2953C159.958 14.5088 160 14.7579 160 15.0633C160 15.0639 160 15.0644 160 15.0651C160 15.0655 160 15.0659 160 15.0663L160 15.0694C160 15.8969 159.692 16.3107 159.383 16.7246C159.189 16.9853 158.995 17.246 158.878 17.6102C158.995 17.9734 159.189 18.2336 159.383 18.4938C159.691 18.9076 160 19.3213 160 20.1486C160 20.4535 159.958 20.7021 159.89 20.9153C159.958 21.1288 160 21.3779 160 21.6833C160 21.6842 160 21.6851 160 21.6863C160 21.6869 160 21.6874 160 21.688C160 21.6885 160 21.689 160 21.6896C160 22.517 159.692 22.9307 159.383 23.3445C159.189 23.6052 158.995 23.866 158.878 24.2301C158.995 24.5933 159.189 24.8535 159.383 25.1138C159.691 25.5275 160 25.9412 160 26.7686C160 26.7699 160 26.7709 159.999 26.772C159.999 26.773 159.999 26.7739 159.999 26.775H160C160 27.0783 159.958 27.326 159.891 27.5385C159.958 27.7513 160 27.9993 160 28.3032C160 28.3788 160 28.451 160 28.52C160.002 29.9339 160.003 30.0312 158.992 31.1303C159.103 31.3574 159.243 31.5455 159.383 31.7337C159.691 32.1474 160 32.5612 160 33.3886C160 33.3892 160 33.3897 159.999 33.3902C159.999 33.3908 159.999 33.3913 159.999 33.3919C159.999 33.3931 160 33.394 160 33.3949C160 33.6997 159.958 33.9484 159.89 34.1616C159.958 34.3751 160 34.6242 160 34.9295C160 35.7569 159.692 36.1706 159.383 36.5844C159.189 36.8449 158.995 37.1054 158.878 37.4692C158.995 37.8327 159.189 38.0931 159.383 38.3536C159.691 38.7674 160 39.1813 160 40.0088C160 40.0094 159.999 40.01 159.999 40.0107C159.999 40.011 159.999 40.0114 159.999 40.0118C159.999 40.0125 159.999 40.0131 159.999 40.0136C160 40.014 160 40.0145 160 40.0149C160 40.3198 159.958 40.5685 159.89 40.7817Z" fill="#F7F2DF"/>
<path fill-rule="evenodd" clip-rule="evenodd" d="M8.36159 122.817H150.67V-65.8988H8.36159V122.817ZM7.36072 123.817H151.671V-66.8998H7.36072V123.817Z" fill="#614731"/>
<path fill-rule="evenodd" clip-rule="evenodd" d="M51.2749 58.8298C50.3146 58.3498 50.9501 54.8478 51.2749 52.8705L52.348 46.3748C52.6589 44.4545 52.0941 43.8611 50.4841 43.8611C49.1285 43.8611 47.1512 44.4825 46.1629 44.9625L46.2052 45.0049C47.1232 44.652 47.5325 44.9625 47.4057 45.7817L45.9367 54.678C45.358 58.152 47.1512 59.1123 49.2699 59.1123C49.9194 59.1123 50.5968 59.0276 51.2466 58.8865L51.2749 58.8298Z" fill="#614731"/>
<path fill-rule="evenodd" clip-rule="evenodd" d="M49.0367 41.9341C51.4955 42.081 53.5084 40.851 53.662 39.0956C53.7724 37.8348 52.8051 37.2286 51.9496 37.1536C51.0265 37.0729 49.9363 37.6126 49.3094 38.5558C49.9095 39.4704 49.5648 41.2091 49.0272 41.9107L49.0367 41.9341Z" fill="#614731"/>
<path fill-rule="evenodd" clip-rule="evenodd" d="M60.6794 48.2362C61.5611 45.9798 63.1525 44.9347 63.6758 44.5913C63.7282 44.5565 63.7956 44.5276 63.8635 44.5038C64.289 44.7315 64.4938 45.5638 64.4938 46.5722C64.466 50.9498 61.6415 58.8298 59.1842 58.8298C57.9981 58.8298 58.45 56.2033 58.5348 55.6663L58.9928 52.8646C59.2756 52.0262 59.8748 50.2949 60.6794 48.2362ZM60.7657 59.0839C66.6686 59.0839 69.5495 52.9552 69.5495 48.3798C69.5495 45.3294 68.0525 43.6349 65.3697 43.6349C64.7669 43.6349 64.1915 43.7297 63.6414 43.9583C63.5713 43.9839 63.5012 44.0147 63.4339 44.0516C62.8972 44.3112 62.3849 44.7062 61.8951 45.2785C61.2765 45.9097 60.6075 46.8005 60.1302 48.0217C59.9133 48.5773 59.7112 49.1088 59.5259 49.6065L61.246 39.0879C61.5565 37.1673 60.9354 36.5742 59.3257 36.5742C57.9698 36.5742 55.9931 37.1956 55.0042 37.6759L55.0465 37.7183C55.9645 37.3651 56.3744 37.6759 56.247 38.4948L54.0158 52.5599C53.4087 56.4008 56.5295 59.0839 60.7657 59.0839Z" fill="#614731"/>
<path fill-rule="evenodd" clip-rule="evenodd" d="M73.6902 59.1122C74.481 59.1122 74.8336 59.0415 75.5821 58.8864L75.6391 58.8297C74.7117 58.4488 75.2807 55.4868 75.7232 53.4769C75.7985 53.2453 76.5089 51.076 77.5823 48.3292C78.5926 45.7448 80.4818 44.69 80.6939 44.5785C80.7545 44.5465 80.8323 44.5154 80.9115 44.4876C81.5335 44.6443 81.7533 45.3364 81.7533 45.9087C81.7533 47.3347 80.7082 48.2106 79.6638 48.2106C79.494 49.9051 80.7082 50.6959 81.9794 50.6959C84.4931 50.6959 85.905 48.8034 85.905 46.9114C85.905 45.2166 84.7472 43.6352 82.375 43.6352C81.9315 43.6352 81.5 43.6925 81.0791 43.8217C80.9642 43.851 80.6427 43.9388 80.419 44.0567C80.0405 44.2563 78.0985 45.3891 77.0334 48.1146C76.7076 48.9472 76.4169 49.7247 76.1651 50.4153L77.1215 46.3747C77.5594 44.4825 76.8109 43.8611 75.2009 43.8611C73.8453 43.8611 71.8683 44.4825 70.8796 44.9625L70.922 45.0048C71.8402 44.6519 72.2636 44.9625 72.1221 45.7817L70.5407 54.678C69.9196 58.1663 71.459 59.1122 73.6902 59.1122Z" fill="#614731"/>
<path fill-rule="evenodd" clip-rule="evenodd" d="M95.0017 44.0305C96.4987 44.0305 96.3289 45.9651 96.061 47.4338L95.7502 49.1566C95.6603 49.6646 95.5536 50.1763 95.432 50.6835C95.4213 50.7145 95.4122 50.7426 95.4009 50.7746C95.1717 51.4286 94.8493 52.2444 94.4756 53.1883C94.3284 53.561 94.1745 53.9502 94.0176 54.3525C93.3319 56.1076 92.2274 57.1648 91.5018 57.7085C91.4777 57.7103 91.453 57.7143 91.4289 57.7143C90.6948 57.7143 90.3135 56.4855 90.3135 55.3277C90.3135 50.7947 92.2198 44.0305 95.0017 44.0305ZM99.9726 52.7294L101.47 43.9739C101.003 44.8214 100.424 45.1036 99.7325 45.1036C98.2918 45.1036 96.3996 43.8611 94.1404 43.8611C89.3952 43.8611 85.2014 49.3685 85.2014 53.8592C85.2014 56.4576 86.2464 59.084 89.2118 59.084C89.8691 59.084 90.5018 58.9557 91.1095 58.6464C91.1857 58.6147 91.2698 58.5747 91.3512 58.5248C92.0116 58.1197 93.6464 56.9241 94.5667 54.5668C94.7234 54.1654 94.877 53.7769 95.0239 53.4054C95.0306 53.3889 95.0364 53.3737 95.0431 53.3572L94.7758 54.5369C93.9709 58.0813 96.047 59.084 98.4476 59.084C99.1254 59.084 99.8032 59.0276 100.453 58.8865L100.495 58.8298C99.0403 58.8722 99.549 55.1584 99.9726 52.7294Z" fill="#614731"/>
<path fill-rule="evenodd" clip-rule="evenodd" d="M105.271 59.1121C105.949 59.1121 106.753 59.0134 107.657 58.8863L107.714 58.8296C106.848 58.474 107.258 55.8673 107.695 53.887C107.827 53.5128 108.571 51.4136 109.6 48.7798C110.461 46.5752 111.992 45.4671 112.602 45.0956C113.28 45.1571 113.34 46.0738 113.108 47.5324L111.979 54.5368C111.414 58.0814 113.377 59.0981 115.707 59.0981C116.385 59.0981 117.091 59.0134 117.769 58.8863L117.825 58.8296C116.498 58.6038 116.865 55.1582 117.288 52.7292L117.966 48.7189C118.291 46.7983 118.418 43.861 115.015 43.861C114.25 43.861 113.468 44.0124 112.698 44.4199C112.681 44.4248 112.666 44.426 112.649 44.4333C112.552 44.4784 110.228 45.553 109.051 48.5653C108.741 49.3598 108.462 50.1034 108.218 50.7699L109.239 46.3746C109.677 44.4824 108.929 43.861 107.318 43.861C105.963 43.861 103.986 44.4824 102.997 44.9624L103.04 45.0047C103.958 44.6518 104.381 44.9624 104.24 45.7816L102.658 54.6779C102.037 58.1662 103.04 59.1121 105.271 59.1121Z" fill="#614731"/>
<path fill-rule="evenodd" clip-rule="evenodd" d="M119.79 54.5369C119.24 58.0813 121.188 59.098 123.519 59.098C124.184 59.098 124.877 59.016 125.543 58.8926C126.124 58.8054 126.647 58.6308 127.09 58.4153C127.157 58.3855 127.216 58.3547 127.27 58.3257C127.275 58.3233 127.279 58.3206 127.284 58.3178C127.303 58.3078 127.325 58.2962 127.341 58.287C127.374 58.2681 127.404 58.2489 127.436 58.23C127.579 58.1453 127.711 58.0579 127.83 57.9683C127.928 57.8976 128.026 57.8247 128.132 57.7455C128.605 57.3898 129.041 56.9202 129.215 56.3427C129.329 55.966 129.31 55.5667 129.162 55.2022C128.788 54.2745 127.928 54.2459 127.338 54.4848C127.195 54.5424 127.064 54.6168 126.947 54.7055C126.444 55.0876 126.203 55.7334 126.442 56.4219C126.435 56.4021 126.851 56.4329 126.892 56.4448C127.024 56.4825 127.146 56.5514 127.246 56.6456C127.587 56.9659 127.527 57.3609 127.377 57.7561C127.353 57.8198 127.322 57.8799 127.291 57.9402C127.039 58.1624 126.741 58.3343 126.403 58.4775C126.086 58.6113 125.672 58.6646 125.301 58.679C124.386 57.9512 124.743 54.9249 125.1 52.7294L126.445 44.4673H130.688C130.696 44.3168 131.088 43.994 131.088 43.994C130.399 43.994 127.985 44.0443 127.295 44.0443H126.515L127.402 38.6927H127.317C126.563 42.7613 124.946 43.8618 121.533 44.033C120.8 44.0297 120.188 44.0269 120.152 44.0266C119.996 44.026 119.836 44.0309 119.72 44.1184C119.689 44.1415 119.52 44.4673 119.524 44.4673H121.364L119.79 54.5369Z" fill="#614731"/>
<path fill-rule="evenodd" clip-rule="evenodd" d="M41.7883 33.4556C39.9524 33.4556 38.2862 34.8399 38.2862 36.9576C38.2862 38.4266 39.1475 39.5844 40.8139 39.6975C41.2095 38.5113 42.1979 37.9746 43.1579 37.9746C43.9579 37.9746 44.5875 38.3324 44.9742 38.899C45.0194 39.0291 45.0322 39.1343 45.0456 39.2135C45.0687 39.3497 45.0849 39.4869 45.0949 39.6246C45.1531 40.4325 44.9864 41.2703 44.6305 42.2443C44.1651 43.5155 43.516 44.7882 42.1497 47.1077C41.2616 48.6154 39.6976 51.2278 38.7278 52.844L36.1992 43.8894C35.5217 41.4885 35.6208 39.187 38.2049 39.187L38.2189 39.1163H26.5121L26.498 39.187C28.4747 39.187 29.3226 40.8107 30.3109 44.1433L35.1405 59.8465L38.2795 54.611C38.3033 54.5918 38.3256 54.5695 38.3423 54.5415C38.3713 54.493 41.2717 49.6699 42.6184 47.3838C42.6968 47.2501 42.7723 47.1208 42.8467 46.9941L43.1758 46.4452C43.3291 46.1895 43.7464 45.4416 43.9987 44.971C44.1234 44.7391 44.2008 44.5694 44.2008 44.5694C44.3388 44.2997 44.4674 44.0278 44.5899 43.7547C44.8057 43.2897 44.9834 42.8606 45.1406 42.4312C45.4168 41.6766 45.6033 40.9592 45.6682 40.2671C45.7685 39.6636 45.827 39.0587 45.827 38.4546C45.827 35.037 43.7653 33.4556 41.7883 33.4556Z" fill="#614731"/>
<path fill-rule="evenodd" clip-rule="evenodd" d="M63.6415 88.0046C58.7839 88.0046 51.0031 82.7797 45.1849 82.7797C42.7279 82.7797 40.0734 84.1777 37.5311 87.2561L37.5171 87.242C40.6805 82.5396 46.4844 81.9322 47.4447 75.8037L48.9414 66.314C49.2379 64.4218 49.9584 60.6372 52.4437 60.6372C53.6298 60.6372 54.3356 61.6116 54.3356 62.3741C54.3356 63.306 53.6579 64.337 52.5281 64.3087C52.1612 65.7774 53.319 66.681 54.6185 66.681C56.6802 66.681 58.5721 64.9585 58.5721 62.9531C58.5721 61.3998 57.4427 59.9875 55.1265 59.9875C48.9697 59.9875 43.942 66.314 43.0384 71.793L41.8666 79.122C41.1041 83.9235 38.7456 84.9545 37.1785 87.68L37.2629 87.722C38.1668 86.3948 38.929 86.1827 39.9177 86.1827C46.6681 86.1827 53.404 92.3258 59.1372 92.3258C61.877 92.3258 64.39 90.9419 66.4801 86.8184L66.4237 86.7901C65.6752 87.708 64.8563 88.0046 63.6415 88.0046Z" fill="#614731"/>
<path fill-rule="evenodd" clip-rule="evenodd" d="M64.5785 62.4523C64.6885 61.1918 63.7212 60.5856 62.866 60.5106C61.9432 60.4299 60.8525 60.9696 60.2259 61.9125C60.826 62.8268 60.4813 64.5661 59.9434 65.2673L59.9528 65.2908C62.4122 65.438 64.4249 64.208 64.5785 62.4523Z" fill="#614731"/>
<path fill-rule="evenodd" clip-rule="evenodd" d="M63.2641 69.7314C63.575 67.8107 63.0103 67.2177 61.4002 67.2177C60.0446 67.2177 58.0673 67.8391 57.079 68.3194L57.1214 68.3618C58.0393 68.0085 58.4486 68.3194 58.3215 69.1383L56.8529 78.0349C56.2741 81.5089 58.0673 82.4689 60.1857 82.4689C60.8352 82.4689 61.5133 82.3842 62.1627 82.2431L62.1911 82.1867C61.2305 81.7064 61.8659 78.2044 62.1911 76.2274L63.2641 69.7314Z" fill="#614731"/>
<path fill-rule="evenodd" clip-rule="evenodd" d="M85.3796 60.5106C84.4567 60.4299 83.3663 60.9696 82.7394 61.9128C83.3398 62.8271 82.9948 64.5661 82.4569 65.2673L82.4664 65.2908C84.9258 65.438 86.9384 64.208 87.092 62.4523C87.202 61.1918 86.235 60.5856 85.3796 60.5106Z" fill="#614731"/>
<path fill-rule="evenodd" clip-rule="evenodd" d="M83.9139 67.2178C82.5583 67.2178 80.581 67.8392 79.5926 68.3196L79.635 68.3616C80.5532 68.0087 80.9622 68.3196 80.8351 69.1384L79.3668 78.0351C78.7881 81.5087 80.581 82.4691 82.6997 82.4691C83.3488 82.4691 84.0269 82.3843 84.6764 82.2432L84.7047 82.1865C83.7441 81.7065 84.3795 78.2042 84.7047 76.2275L85.7778 69.7315C86.0889 67.8109 85.5239 67.2178 83.9139 67.2178Z" fill="#614731"/>
<path fill-rule="evenodd" clip-rule="evenodd" d="M99.7172 67.2178C98.8657 67.2178 97.994 67.405 97.1389 67.9249C96.8649 68.0596 94.727 69.186 93.6033 72.0626C93.4193 72.5341 93.2471 72.9864 93.0852 73.4173L93.9416 69.7315C94.379 67.8392 93.6308 67.2178 92.021 67.2178C90.6654 67.2178 88.6884 67.8392 87.6998 68.3196L87.7421 68.3616C88.6601 68.0087 89.0837 68.3196 88.9426 69.1384L87.3609 78.0351C86.7395 81.5228 87.7421 82.4691 89.9733 82.4691C90.6511 82.4691 91.4566 82.3703 92.3599 82.2432L92.4163 82.1865C91.4889 81.8056 92.0247 78.8415 92.4909 76.8313C92.7838 75.9657 93.3726 74.2737 94.1525 72.2775C95.1637 69.6888 97.0993 68.6063 97.3824 68.4622C97.9879 68.5853 98.0337 69.4874 97.8106 70.8893L96.6808 77.8937C96.1161 81.438 98.0791 82.455 100.409 82.455C101.087 82.455 101.793 82.3703 102.471 82.2432L102.528 82.1865C101.2 81.9607 101.567 78.5151 101.991 76.0861L102.668 72.0754C102.993 70.1551 103.12 67.2178 99.7172 67.2178Z" fill="#614731"/>
<path fill-rule="evenodd" clip-rule="evenodd" d="M109.252 78.6844C109.252 74.1514 111.158 67.3872 113.94 67.3872C115.437 67.3872 115.267 69.3218 114.999 70.7905L114.746 72.1936C114.738 72.2098 114.727 72.2241 114.722 72.2427C114.716 72.2652 114.095 74.5226 113.133 77.4181C112.491 79.3518 111.39 80.4581 110.575 81.0475C110.506 81.0612 110.437 81.071 110.367 81.071C109.633 81.071 109.252 79.8425 109.252 78.6844ZM118.671 68.4607C117.23 68.4607 115.338 67.2178 113.079 67.2178C108.334 67.2178 104.14 72.7252 104.14 77.2159C104.14 79.8143 105.185 82.441 108.15 82.441C109.013 82.441 109.834 82.2216 110.611 81.6584C110.709 81.6063 110.811 81.5483 110.884 81.4956C111.764 80.8611 112.959 79.6686 113.65 77.5895C113.911 76.8032 114.146 76.0666 114.351 75.4056L112.726 84.0788C112.203 86.889 111.525 88.4987 109.35 88.4987C107.671 88.4987 107.162 87.5247 107.162 86.7479C107.162 85.9991 107.642 85.2509 108.743 85.1238C108.913 83.5988 107.642 82.7799 106.484 82.7799C104.874 82.7799 103.604 83.9377 103.604 85.5194C103.604 88.0894 106.851 88.5975 109.195 88.5975C114.562 88.5975 117.485 85.9147 118.092 82.0454L120.408 67.3309C119.941 68.1781 119.363 68.4607 118.671 68.4607Z" fill="#614731"/>
<path fill-rule="evenodd" clip-rule="evenodd" d="M78.7668 71.3724C78.7677 71.3243 78.7711 71.2767 78.7711 71.2283C78.7711 68.404 77.0199 66.9918 75.2968 66.9918C73.7153 66.9918 72.2464 68.1782 72.2464 70.0985C72.2464 71.2846 73.0373 72.3864 74.4782 72.4711C74.8387 70.4868 77.772 70.2674 78.284 72.0773C78.2843 73.1882 77.9357 74.3762 77.1403 76.0137C76.1196 78.115 74.1957 79.6492 73.4158 80.2112C72.3616 80.9715 70.7037 81.4332 70.2499 81.5503C69.4447 81.2775 69.5395 80.0304 69.8741 77.9221L71.1736 69.7313C71.4842 67.8107 70.9192 67.2179 69.3094 67.2179C67.9538 67.2179 65.9768 67.839 64.9885 68.3193L65.0308 68.3617C65.9485 68.0084 66.3721 68.3193 66.231 69.1382L64.7626 78.289C64.3104 81.0852 65.4965 82.4408 68.0669 82.4408C68.9589 82.4408 69.8677 82.275 70.7598 81.9748C71.476 81.7685 72.798 81.3269 73.7336 80.6521C74.547 80.0658 76.5545 78.4639 77.6294 76.2514C78.6047 74.2433 78.9432 72.8591 78.7988 71.4733C78.7951 71.4367 78.7839 71.4029 78.7668 71.3724Z" fill="#614731"/>
<path fill-rule="evenodd" clip-rule="evenodd" d="M30.6019 101.926C30.6019 101.051 30.3218 100.513 29.6711 100.513C28.2589 100.513 28.023 102.89 28.023 103.989C28.023 104.841 28.2025 105.256 28.7855 105.256C29.8619 105.256 30.6019 103.484 30.6019 101.926ZM31.6783 103.204C31.5664 103.922 31.4543 104.448 31.4543 104.819C31.4543 105.088 31.5442 105.29 31.802 105.29C32.015 105.29 32.172 105.144 32.4186 104.807L32.6538 104.975C32.3734 105.424 31.9474 105.738 31.3982 105.738C30.6805 105.738 30.3669 105.368 30.3669 104.796C30.3669 104.639 30.3888 104.471 30.4336 104.281L30.3669 104.269C30.0079 105.099 29.3572 105.738 28.382 105.738C27.2492 105.738 26.6887 105.01 26.6887 103.765C26.6887 102.15 27.5411 100.143 29.4584 100.143C30.1874 100.143 30.5909 100.491 30.8039 100.95L31.3309 97.4966H30.4224L30.4562 97.2052H32.6764L31.6783 103.204Z" fill="#614731"/>
<path fill-rule="evenodd" clip-rule="evenodd" d="M36.6783 100.445C36.0164 100.445 35.3437 101.365 35.1642 102.935C36.3866 102.857 37.2723 102.464 37.2723 101.275C37.2723 100.715 37.0592 100.445 36.6783 100.445ZM38.4383 101.432C38.4383 102.587 37.2835 102.946 36.3302 103.126C35.9493 103.193 35.5458 103.237 35.142 103.26V103.417C35.142 104.785 35.4559 105.278 36.2522 105.278C36.8913 105.278 37.5861 104.931 37.99 103.753L38.2929 103.843C37.9229 105.099 37.0482 105.738 35.8036 105.738C34.4916 105.738 33.7852 104.953 33.7852 103.63C33.7852 101.724 35.0298 100.143 36.8578 100.143C37.8552 100.143 38.4383 100.592 38.4383 101.432Z" fill="#614731"/>
<path fill-rule="evenodd" clip-rule="evenodd" d="M42.3064 104.942C41.9364 105.48 41.5435 105.738 40.9718 105.738C40.2206 105.738 39.8058 105.357 39.8058 104.639C39.8058 104.236 39.9289 103.54 40.198 102.116L41.084 97.4966H40.2206L40.2657 97.2052H42.4182C42.2277 98.0911 41.2077 103.563 41.0727 104.426C40.9944 104.931 40.9608 105.301 41.3308 105.301C41.5774 105.301 41.7794 105.144 42.0482 104.763L42.3064 104.942Z" fill="#614731"/>
<path fill-rule="evenodd" clip-rule="evenodd" d="M44.6159 98.5731C44.6159 98.0797 44.9746 97.6875 45.5463 97.6875C45.972 97.6875 46.2637 97.8776 46.2637 98.3375C46.2637 98.8535 45.905 99.2232 45.3333 99.2232C44.7951 99.2232 44.6159 98.9318 44.6159 98.5731ZM46.2638 104.953C45.9279 105.458 45.5351 105.738 44.9408 105.738C44.2234 105.738 43.797 105.413 43.797 104.684C43.797 104.46 43.8534 104.034 43.9652 103.507C44.0999 102.901 44.5147 100.973 44.6159 100.547H43.719L43.7748 100.255H45.9279C45.7929 100.849 45.109 104.213 45.0752 104.426C45.0307 104.628 45.0081 104.796 45.0081 104.931C45.0081 105.211 45.1203 105.301 45.322 105.301C45.5576 105.301 45.7371 105.144 46.0175 104.774L46.2638 104.953Z" fill="#614731"/>
<path fill-rule="evenodd" clip-rule="evenodd" d="M51.8586 103.854C51.6008 104.718 50.9166 105.738 49.4254 105.738C48.0683 105.738 47.3622 104.931 47.3622 103.608C47.3622 101.78 48.4727 100.143 50.5466 100.143C51.6679 100.143 52.1838 100.748 52.1838 101.477C52.1838 102.027 51.9034 102.486 51.2643 102.486C50.827 102.486 50.5695 102.251 50.5695 101.914C50.5695 101.735 50.6253 101.533 50.7371 101.365H51.1412C51.208 101.208 51.2305 101.073 51.2305 100.95C51.2305 100.603 50.9843 100.423 50.5802 100.423C49.2237 100.423 48.7415 102.15 48.7415 103.596C48.7415 104.785 49.0445 105.289 49.8289 105.289C50.614 105.289 51.197 104.751 51.5335 103.753L51.8586 103.854Z" fill="#614731"/>
<path fill-rule="evenodd" clip-rule="evenodd" d="M54.4033 98.5731C54.4033 98.0797 54.762 97.6875 55.3338 97.6875C55.7598 97.6875 56.0515 97.8776 56.0515 98.3375C56.0515 98.8535 55.6925 99.2232 55.1207 99.2232C54.5825 99.2232 54.4033 98.9318 54.4033 98.5731ZM56.0515 104.953C55.7154 105.458 55.3225 105.738 54.7286 105.738C54.0109 105.738 53.5845 105.413 53.5845 104.684C53.5845 104.46 53.6409 104.034 53.7527 103.507C53.8874 102.901 54.3022 100.973 54.4034 100.547H53.5065L53.5622 100.255H55.7154C55.5804 100.849 54.8965 104.213 54.863 104.426C54.8182 104.628 54.7956 104.796 54.7956 104.931C54.7956 105.211 54.9078 105.301 55.1095 105.301C55.3451 105.301 55.5246 105.144 55.805 104.774L56.0515 104.953Z" fill="#614731"/>
<path fill-rule="evenodd" clip-rule="evenodd" d="M60.9731 101.87C60.9731 100.917 60.7378 100.412 60.0427 100.412C58.6182 100.412 58.372 102.991 58.372 103.978C58.372 104.908 58.6298 105.447 59.314 105.447C60.7939 105.447 60.9731 102.946 60.9731 101.87ZM57.1047 103.63C57.1047 101.881 58.1476 100.143 60.1773 100.143C61.5896 100.143 62.2625 100.917 62.2625 102.229C62.2625 104.056 61.1751 105.738 59.2018 105.738C57.7776 105.738 57.1047 104.931 57.1047 103.63Z" fill="#614731"/>
<path fill-rule="evenodd" clip-rule="evenodd" d="M64.6168 100.546H63.776L63.8208 100.255H65.9514C65.8167 100.816 65.1776 103.967 65.1325 104.213C65.099 104.393 65.0767 104.55 65.0767 104.695C65.0767 105.009 65.1886 105.211 65.5924 105.211C66.3771 105.211 67.0723 104.023 67.4651 102.531C67.6779 101.758 67.79 101.118 67.8574 100.311C68.2048 100.322 68.9557 100.255 69.2702 100.188C68.9557 101.657 68.5861 103.451 68.4629 104.168C68.4069 104.493 68.3843 104.729 68.3843 104.897C68.3843 105.133 68.4736 105.312 68.7208 105.312C68.9557 105.312 69.1465 105.155 69.4043 104.796L69.6399 104.964C69.3598 105.379 68.967 105.738 68.3621 105.738C67.6218 105.738 67.2856 105.413 67.2856 104.83C67.2856 104.639 67.3192 104.415 67.3975 104.157L67.4874 103.821L67.42 103.798C66.994 104.729 66.3659 105.738 65.1438 105.738C64.2246 105.738 63.8882 105.211 63.8882 104.482C63.8882 104.325 63.8994 104.157 63.9326 103.977C64.0786 103.159 64.3925 101.645 64.6168 100.546Z" fill="#614731"/>
<path fill-rule="evenodd" clip-rule="evenodd" d="M73.8103 104.381C73.8103 103.821 73.3169 103.619 72.7783 103.417C72.0832 103.159 71.3207 102.901 71.3207 101.881C71.3207 100.771 72.4084 100.143 73.6417 100.143C74.6286 100.143 75.3237 100.502 75.3237 101.253C75.3237 101.713 75.0659 102.071 74.5277 102.071C74.1799 102.071 73.8999 101.892 73.8999 101.589C73.8999 101.421 73.9447 101.264 74.0681 101.107H74.4046C74.4381 101.029 74.4491 100.961 74.4491 100.894C74.4491 100.625 74.1799 100.457 73.6868 100.457C72.9353 100.457 72.3748 100.838 72.3748 101.444C72.3748 101.937 72.857 102.161 73.4177 102.386C74.1351 102.666 74.965 102.98 74.965 103.922C74.965 105.032 73.9108 105.738 72.5208 105.738C71.2649 105.738 70.6813 105.2 70.6813 104.505C70.6813 104 70.9845 103.652 71.5114 103.652C71.8705 103.652 72.1167 103.877 72.1167 104.202C72.1167 104.348 72.0832 104.505 71.9713 104.651H71.6123C71.5785 104.718 71.5678 104.796 71.5678 104.864C71.5678 105.166 71.8592 105.391 72.5208 105.391C73.2718 105.391 73.8103 105.054 73.8103 104.381Z" fill="#614731"/>
<path fill-rule="evenodd" clip-rule="evenodd" d="M79.2811 104.942C78.9111 105.48 78.5189 105.738 77.9468 105.738C77.1956 105.738 76.7805 105.357 76.7805 104.639C76.7805 104.236 76.9043 103.54 77.1734 102.116L78.059 97.4966H77.1956L77.2404 97.2052H79.3932C79.2025 98.0911 78.1824 103.563 78.0477 104.426C77.9691 104.931 77.9356 105.301 78.3055 105.301C78.5524 105.301 78.7542 105.144 79.023 104.763L79.2811 104.942Z" fill="#614731"/>
<path fill-rule="evenodd" clip-rule="evenodd" d="M80.01 107.42C79.9311 107.532 79.8866 107.655 79.8866 107.757C79.8866 107.936 80.021 108.07 80.3014 108.07C80.9179 108.07 81.6917 107.532 82.6898 106.018C82.3082 104.595 81.7929 102.744 81.3887 101.444C81.2543 100.984 81.1422 100.861 80.9404 100.861C80.7049 100.861 80.5254 101.096 80.2901 101.713L79.9649 101.578C80.2678 100.793 80.604 100.221 81.4674 100.221C82.0504 100.221 82.4094 100.535 82.6334 101.286C82.9702 102.385 83.3063 103.63 83.598 104.796C84.1471 103.966 84.988 102.52 84.988 101.769C84.988 101.477 84.8423 101.275 84.6293 101.264L84.2703 101.713C83.9228 101.601 83.6876 101.32 83.6876 100.962C83.6876 100.49 84.0127 100.143 84.5394 100.143C85.19 100.143 85.5491 100.648 85.5491 101.332C85.5491 102.374 84.6518 103.899 83.9341 104.953C82.8803 106.501 81.8041 108.418 80.2114 108.418C79.3819 108.418 78.8772 107.958 78.8772 107.23C78.8772 106.658 79.2585 106.276 79.7854 106.276C80.2901 106.276 80.6713 106.669 80.5028 107.342L80.01 107.42Z" fill="#614731"/>
<path fill-rule="evenodd" clip-rule="evenodd" d="M93.1157 104.706C93.1157 103.955 93.6203 102.509 93.8111 101.634C93.8672 101.41 93.8894 101.231 93.8894 101.085C93.8894 100.793 93.7776 100.659 93.5085 100.659C92.7795 100.659 92.0286 101.713 91.6583 102.8C91.4004 103.563 91.2432 104.516 91.1313 105.581C90.7836 105.57 90.0436 105.626 89.7297 105.693L90.1668 103.664L91.1313 97.4967H90.2902L90.324 97.2053H92.4433L91.4227 102.195L91.49 102.229C91.9609 101.264 92.7012 100.143 93.9007 100.143C94.6858 100.143 95.0893 100.558 95.0893 101.309C95.0893 101.522 95.0555 101.791 94.9997 102.038C94.8653 102.576 94.5401 103.798 94.417 104.347C94.3716 104.527 94.3158 104.774 94.3158 104.953C94.3158 105.211 94.4392 105.301 94.6297 105.301C94.8991 105.301 95.1454 105.088 95.3697 104.785L95.6053 104.976C95.3026 105.413 94.8875 105.738 94.2597 105.738C93.542 105.738 93.1157 105.39 93.1157 104.706Z" fill="#614731"/>
<path fill-rule="evenodd" clip-rule="evenodd" d="M99.7193 100.445C99.0576 100.445 98.385 101.365 98.2055 102.935C99.4279 102.857 100.314 102.464 100.314 101.275C100.314 100.715 100.101 100.445 99.7193 100.445ZM101.48 101.432C101.48 102.587 100.325 102.946 99.3715 103.126C98.9905 103.193 98.587 103.237 98.1832 103.26V103.417C98.1832 104.785 98.4971 105.278 99.2935 105.278C99.9326 105.278 100.627 104.931 101.031 103.753L101.334 103.843C100.964 105.099 100.09 105.738 98.8449 105.738C97.5329 105.738 96.8264 104.953 96.8264 103.63C96.8264 101.724 98.0711 100.143 99.8987 100.143C100.897 100.143 101.48 100.592 101.48 101.432Z" fill="#614731"/>
<path fill-rule="evenodd" clip-rule="evenodd" d="M106.502 101.971C106.502 100.973 106.154 100.513 105.56 100.513C104.416 100.513 103.923 102.128 103.923 103.899C103.923 104.707 104.046 105.256 104.697 105.256C105.717 105.256 106.502 103.518 106.502 101.971ZM108.543 104.975C108.273 105.402 107.859 105.738 107.287 105.738C106.547 105.738 106.244 105.379 106.244 104.83C106.244 104.651 106.278 104.46 106.334 104.247L106.278 104.236C105.93 105.02 105.302 105.738 104.248 105.738C103.15 105.738 102.6 105.01 102.6 103.742C102.6 102.128 103.498 100.143 105.358 100.143C106.053 100.143 106.469 100.446 106.727 101.006L106.917 100.278C107.309 100.289 107.769 100.255 108.139 100.199C107.859 101.578 107.534 103.182 107.332 104.617C107.309 104.729 107.309 104.83 107.309 104.908C107.309 105.189 107.41 105.301 107.635 105.301C107.836 105.301 108.061 105.155 108.307 104.796L108.543 104.975Z" fill="#614731"/>
<path fill-rule="evenodd" clip-rule="evenodd" d="M112.332 104.942C111.962 105.48 111.569 105.738 110.997 105.738C110.246 105.738 109.831 105.357 109.831 104.639C109.831 104.236 109.955 103.54 110.224 102.116L111.11 97.4966H110.246L110.291 97.2052H112.444C112.253 98.0911 111.233 103.563 111.098 104.426C111.02 104.931 110.986 105.301 111.356 105.301C111.603 105.301 111.805 105.144 112.074 104.763L112.332 104.942Z" fill="#614731"/>
<path fill-rule="evenodd" clip-rule="evenodd" d="M115.718 100.547L115.135 103.686C115.034 104.213 114.989 104.527 114.989 104.707C114.989 105.043 115.146 105.222 115.471 105.222C115.875 105.222 116.144 104.964 116.491 104.482L116.749 104.673C116.379 105.256 115.83 105.738 115.079 105.738C114.114 105.738 113.722 105.2 113.722 104.527C113.722 104.134 113.8 103.708 113.935 103.047L114.417 100.547H113.61L113.654 100.255H114.462L114.675 98.9541L116.032 98.6067L115.762 100.255H116.94L116.895 100.547H115.718Z" fill="#614731"/>
<path fill-rule="evenodd" clip-rule="evenodd" d="M121.278 104.706C121.278 103.955 121.783 102.509 121.974 101.634C122.03 101.41 122.052 101.231 122.052 101.085C122.052 100.793 121.94 100.659 121.671 100.659C120.942 100.659 120.191 101.713 119.821 102.8C119.563 103.563 119.406 104.516 119.294 105.581C118.946 105.57 118.206 105.626 117.892 105.693L118.329 103.664L119.294 97.4967H118.453L118.487 97.2053H120.606L119.585 102.195L119.653 102.229C120.124 101.264 120.864 100.143 122.063 100.143C122.848 100.143 123.252 100.558 123.252 101.309C123.252 101.522 123.218 101.791 123.162 102.038C123.028 102.576 122.703 103.798 122.579 104.347C122.534 104.527 122.479 104.774 122.479 104.953C122.479 105.211 122.602 105.301 122.792 105.301C123.062 105.301 123.308 105.088 123.532 104.785L123.768 104.976C123.465 105.413 123.05 105.738 122.422 105.738C121.704 105.738 121.278 105.39 121.278 104.706Z" fill="#614731"/>
<path fill-rule="evenodd" clip-rule="evenodd" d="M124.597 107.42C124.518 107.532 124.473 107.655 124.473 107.757C124.473 107.936 124.608 108.07 124.888 108.07C125.505 108.07 126.279 107.532 127.277 106.018C126.895 104.595 126.38 102.744 125.976 101.444C125.841 100.984 125.729 100.861 125.528 100.861C125.292 100.861 125.113 101.096 124.877 101.713L124.552 101.578C124.855 100.793 125.191 100.221 126.055 100.221C126.638 100.221 126.996 100.535 127.221 101.286C127.557 102.385 127.893 103.63 128.185 104.796C128.734 103.966 129.575 102.52 129.575 101.769C129.575 101.477 129.429 101.275 129.216 101.264L128.858 101.713C128.51 101.601 128.274 101.32 128.274 100.962C128.274 100.49 128.6 100.143 129.127 100.143C129.777 100.143 130.136 100.648 130.136 101.332C130.136 102.374 129.239 103.899 128.521 104.953C127.467 106.501 126.391 108.418 124.799 108.418C123.969 108.418 123.464 107.958 123.464 107.23C123.464 106.658 123.845 106.276 124.373 106.276C124.877 106.276 125.258 106.669 125.09 107.342L124.597 107.42Z" fill="#614731"/>
</svg>
