<svg width="40" height="40" viewBox="0 0 40 40" fill="none" xmlns="http://www.w3.org/2000/svg">
<path d="M25.54 16.81C27.1747 16.81 28.5 15.4848 28.5 13.85C28.5 12.2153 27.1747 10.89 25.54 10.89C23.9052 10.89 22.58 12.2153 22.58 13.85C22.58 15.4848 23.9052 16.81 25.54 16.81Z" fill="#292D32"/>
<path d="M14.46 16.81C16.0948 16.81 17.42 15.4848 17.42 13.85C17.42 12.2153 16.0948 10.89 14.46 10.89C12.8252 10.89 11.5 12.2153 11.5 13.85C11.5 15.4848 12.8252 16.81 14.46 16.81Z" fill="#292D32"/>
<path d="M25.54 29.11C27.1747 29.11 28.5 27.7848 28.5 26.15C28.5 24.5152 27.1747 23.19 25.54 23.19C23.9052 23.19 22.58 24.5152 22.58 26.15C22.58 27.7848 23.9052 29.11 25.54 29.11Z" fill="#292D32"/>
<path d="M14.46 29.11C16.0948 29.11 17.42 27.7848 17.42 26.15C17.42 24.5152 16.0948 23.19 14.46 23.19C12.8252 23.19 11.5 24.5152 11.5 26.15C11.5 27.7848 12.8252 29.11 14.46 29.11Z" fill="#292D32"/>
</svg>
