<svg width="114" height="29" viewBox="0 0 114 29" fill="none" xmlns="http://www.w3.org/2000/svg">
<path d="M12.98 4.57655L14.6977 7.95557C14.9331 8.41937 15.5484 8.87359 16.0648 8.95009L19.1371 9.4455C21.1043 9.75841 21.565 11.1783 20.1692 12.6002L17.7917 15.0085C17.3948 15.4121 17.1685 16.2006 17.3032 16.752L18.0037 19.7092C18.5545 22.0439 17.3205 22.9607 15.2502 21.7512L12.3581 20.0614C11.8315 19.7525 10.9774 19.765 10.4617 20.0732L7.59271 21.7915C5.53895 23.0196 4.29063 22.1205 4.81339 19.7812L5.48157 16.8209C5.60634 16.2675 5.38081 15.4814 4.97718 15.0845L2.56892 12.7069C1.15591 11.3065 1.59876 9.88175 3.55852 9.54172L6.6185 9.01301C7.13507 8.91951 7.74557 8.47024 7.97083 7.99934L9.64778 4.59316C10.5499 2.75427 12.0528 2.74785 12.98 4.57655Z" fill="#F05922"/>
<path d="M41.9801 4.57658L43.6978 7.9556C43.9331 8.41939 44.5485 8.87362 45.0649 8.95012L48.1371 9.44553C50.1044 9.75844 50.565 11.1784 49.1692 12.6002L46.7918 15.0085C46.3948 15.4121 46.1686 16.2007 46.3032 16.752L47.0038 19.7092C47.5545 22.044 46.3205 22.9607 44.2503 21.7512L41.3582 20.0614C40.8315 19.7525 39.9774 19.765 39.4618 20.0732L36.5928 21.7915C34.539 23.0197 33.2907 22.1206 33.8135 19.7812L34.4816 16.8209C34.6064 16.2676 34.3809 15.4814 33.9772 15.0845L31.569 12.707C30.156 11.3065 30.5988 9.88178 32.5586 9.54176L35.6186 9.01304C36.1351 8.91953 36.7456 8.47027 36.9709 7.99937L38.6478 4.59319C39.55 2.7543 41.0529 2.74788 41.9801 4.57658Z" fill="#F05922"/>
<path d="M71.011 4.46511L72.7287 7.84416C72.964 8.30796 73.5794 8.7622 74.0958 8.8387L77.168 9.33416C79.1353 9.6471 79.5959 11.067 78.2001 12.4889L75.8226 14.8971C75.4256 15.3008 75.1994 16.0893 75.334 16.6406L76.0346 19.5979C76.5853 21.9326 75.3513 22.8494 73.281 21.6399L70.389 19.95C69.8623 19.6411 69.0082 19.6536 68.4925 19.9618L65.6235 21.6801C63.5697 22.9082 62.3214 22.009 62.8442 19.6697L63.5124 16.7094C63.6372 16.156 63.4117 15.3699 63.008 14.973L60.5998 12.5954C59.1868 11.1949 59.6297 9.77017 61.5894 9.43017L64.6494 8.9015C65.166 8.808 65.7765 8.35874 66.0018 7.88784L67.6788 4.48167C68.581 2.64279 70.0838 2.63638 71.011 4.46511Z" fill="#F05922"/>
<path d="M100.377 6.66764L101.814 9.49617C102.011 9.88441 102.527 10.2647 102.959 10.3287L105.53 10.7436C107.177 11.0057 107.563 12.1943 106.394 13.3843L104.404 15.4C104.072 15.7379 103.882 16.3979 103.995 16.8594L104.581 19.3348C105.042 21.2892 104.009 22.0565 102.276 21.0439L99.8553 19.6292C99.4145 19.3707 98.6995 19.3811 98.2679 19.6391L95.8663 21.0772C94.1471 22.105 93.1022 21.3524 93.5399 19.3943L94.0994 16.9163C94.2039 16.4531 94.0152 15.7951 93.6773 15.4628L91.6617 13.4725C90.479 12.3002 90.8498 11.1076 92.4902 10.8231L95.0516 10.3808C95.484 10.3025 95.9951 9.92651 96.1837 9.53236L97.5876 6.68131C98.3429 5.14211 99.6009 5.13684 100.377 6.66764Z" stroke="#F05922" stroke-width="1.25556" stroke-linecap="round" stroke-linejoin="round"/>
</svg>
