<svg width="40" height="40" viewBox="0 0 40 40" fill="none" xmlns="http://www.w3.org/2000/svg">
<path d="M20.1329 19.6831C20.1079 19.6831 20.0912 19.6831 20.0662 19.6831C20.0246 19.6747 19.9662 19.6747 19.9162 19.6831C17.4996 19.6081 15.6746 17.7081 15.6746 15.3664C15.6746 12.9831 17.6162 11.0414 19.9996 11.0414C22.3829 11.0414 24.3246 12.9831 24.3246 15.3664C24.3162 17.7081 22.4829 19.6081 20.1579 19.6831C20.1496 19.6831 20.1412 19.6831 20.1329 19.6831ZM19.9996 12.2914C18.3079 12.2914 16.9246 13.6747 16.9246 15.3664C16.9246 17.0331 18.2246 18.3747 19.8829 18.4331C19.9246 18.4247 20.0412 18.4247 20.1496 18.4331C21.7829 18.3581 23.0662 17.0164 23.0746 15.3664C23.0746 13.6747 21.6912 12.2914 19.9996 12.2914Z" fill="#292D32"/>
<path d="M20.1412 28.7916C18.5079 28.7916 16.8662 28.3749 15.6246 27.5416C14.4662 26.7749 13.8329 25.7249 13.8329 24.5833C13.8329 23.4416 14.4662 22.3833 15.6246 21.6083C18.1246 19.9499 22.1746 19.9499 24.6579 21.6083C25.8079 22.3749 26.4496 23.4249 26.4496 24.5666C26.4496 25.7083 25.8162 26.7666 24.6579 27.5416C23.4079 28.3749 21.7746 28.7916 20.1412 28.7916ZM16.3162 22.6583C15.5162 23.1916 15.0829 23.8749 15.0829 24.5916C15.0829 25.2999 15.5246 25.9833 16.3162 26.5083C18.3912 27.8999 21.8912 27.8999 23.9662 26.5083C24.7662 25.9749 25.1996 25.2916 25.1996 24.5749C25.1996 23.8666 24.7579 23.1833 23.9662 22.6583C21.8912 21.2749 18.3912 21.2749 16.3162 22.6583Z" fill="#292D32"/>
</svg>
