<svg width="40" height="40" viewBox="0 0 40 40" fill="none" xmlns="http://www.w3.org/2000/svg">
<path fill-rule="evenodd" clip-rule="evenodd" d="M21.8968 38.0283C16.4992 38.5793 11.5174 36.7457 7.8728 33.4556L11.6656 29.6628C11.7623 29.5662 11.7945 29.4212 11.7558 29.289C11.6237 28.8379 11.5431 28.4093 11.498 28.0323C11.4626 27.7197 11.0823 27.594 10.86 27.8164L6.54838 32.1312C3.25828 28.4834 1.42472 23.5048 1.97253 18.1072C2.83614 9.65157 9.65158 2.83613 18.1105 1.97252C23.5048 1.42148 28.4867 3.25505 32.1312 6.54515L27.1719 11.5012C26.9882 11.6881 27.0752 12.0072 27.333 12.0684C27.81 12.1747 28.3836 12.3326 28.6768 12.4132C28.7928 12.4454 28.9153 12.4132 29.0023 12.3262L33.4557 7.86956C36.7458 11.5141 38.5793 16.496 38.0315 21.8903C37.1679 30.3492 30.3557 37.1647 21.8968 38.0283ZM20.0016 0C8.97446 0 0 8.97124 0 19.9984C0 31.0288 8.97446 40 20.0016 40C31.0288 40 40 31.0288 40 19.9984C40 8.97124 31.0288 0 20.0016 0Z" fill="#42774D"/>
<path fill-rule="evenodd" clip-rule="evenodd" d="M17.8336 27.841C16.8346 26.9742 15.7229 26.6391 14.7916 26.5392C13.6057 26.4071 12.7131 26.652 12.7131 26.652C12.7131 26.652 12.6164 27.4479 12.8388 28.4887C13.0482 29.4458 13.5252 30.6091 14.6143 31.5533C16.8829 33.5222 19.7348 33.838 19.7348 33.838C19.7348 33.838 20.1021 29.8099 17.8336 27.841Z" fill="#42774D"/>
<path fill-rule="evenodd" clip-rule="evenodd" d="M22.4619 10.2606C22.4619 6.91568 20.0064 5.08856 20.0064 5.08856C20.0064 5.08856 17.5477 6.91568 17.5477 10.2606C17.5477 13.6054 20.0064 15.4326 20.0064 15.4326C20.0064 15.4326 22.4619 13.6054 22.4619 10.2606Z" fill="#42774D"/>
<path fill-rule="evenodd" clip-rule="evenodd" d="M20.3556 18.3193C20.1816 19.5342 20.2686 20.4944 20.2686 20.4944C20.2686 20.4944 20.5297 20.4654 20.955 20.372C21.9379 20.1529 23.8036 19.5857 25.3891 18.2097C26.9681 16.8434 27.2678 15.0099 27.3064 14.0206C27.3225 13.5823 27.2903 13.3084 27.2903 13.3084C27.2903 13.3084 26.5395 13.1054 25.5051 13.1699C24.519 13.2343 23.2752 13.5372 22.1699 14.4975C21.0066 15.5061 20.5393 17.0497 20.3556 18.3193Z" fill="#42774D"/>
<path fill-rule="evenodd" clip-rule="evenodd" d="M14.613 18.2109C15.9213 19.3452 17.4165 19.9285 18.4542 20.2217C19.2179 20.4376 19.7335 20.4956 19.7335 20.4956C19.7335 20.4956 19.7915 19.8543 19.7174 18.9553C19.6078 17.6083 19.1953 15.6813 17.8322 14.4987C15.5637 12.5298 12.7118 13.3096 12.7118 13.3096C12.7118 13.3096 12.3444 16.242 14.613 18.2109Z" fill="#42774D"/>
<path fill-rule="evenodd" clip-rule="evenodd" d="M22.169 21.17C19.8971 23.1389 20.2677 27.167 20.2677 27.167C20.2677 27.167 23.1196 26.848 25.3914 24.8823C27.66 22.9102 27.2894 19.981 27.2894 19.981C27.2894 19.981 24.4375 19.2011 22.169 21.17Z" fill="#42774D"/>
<path fill-rule="evenodd" clip-rule="evenodd" d="M14.6128 24.8824C14.9544 25.1788 15.3089 25.4334 15.6666 25.659C17.6773 26.9351 19.7333 27.1671 19.7333 27.1671C19.7333 27.1671 19.9749 24.5182 18.8568 22.4688C18.5957 21.9886 18.2606 21.5439 17.832 21.1701C17.7708 21.1186 17.7096 21.0735 17.6483 21.0251C15.412 19.2496 12.7116 19.9811 12.7116 19.9811C12.7116 19.9811 12.3926 22.5364 14.1971 24.4796C14.326 24.6149 14.4614 24.7503 14.6128 24.8824Z" fill="#42774D"/>
<path fill-rule="evenodd" clip-rule="evenodd" d="M22.169 27.8384C19.8971 29.8073 20.2677 33.8353 20.2677 33.8353C20.2677 33.8353 23.1196 33.5195 25.3914 31.5506C27.66 29.5817 27.2894 26.6493 27.2894 26.6493C27.2894 26.6493 24.4375 25.8695 22.169 27.8384Z" fill="#42774D"/>
</svg>
