<svg width="40" height="40" viewBox="0 0 40 40" fill="none" xmlns="http://www.w3.org/2000/svg">
<path fill-rule="evenodd" clip-rule="evenodd" d="M21.8933 38.0273C16.4991 38.5784 11.5174 36.7416 7.87288 33.4548L11.7751 29.5526C12.049 29.2787 11.991 28.8179 11.6591 28.6213L11.0566 28.2572C10.8213 28.1154 10.5217 28.1541 10.3283 28.3474L6.54527 32.1272C3.25526 28.4827 1.42174 23.4978 1.97276 18.1036C2.83635 9.6449 9.65484 2.83286 18.1103 1.97249C23.5045 1.42147 28.4862 3.25499 32.1307 6.545L28.0319 10.6406C27.7741 10.8984 27.8353 11.3334 28.1576 11.5074L28.8729 11.8973C29.0856 12.0133 29.3498 11.9747 29.5206 11.8039L33.4551 7.86939C36.7451 11.5139 38.5786 16.4956 38.0276 21.8898C37.1672 30.3485 30.352 37.1638 21.8933 38.0273ZM21.6321 0.0649446C9.32275 -0.914649 -0.914649 9.32275 0.0649443 21.6289C0.838308 31.3153 8.68472 39.1617 18.3711 39.9351C30.6773 40.9147 40.9147 30.6773 39.9351 18.3679C39.1649 8.68472 31.3153 0.835086 21.6321 0.0649446Z" fill="#42774D"/>
<path fill-rule="evenodd" clip-rule="evenodd" d="M29.2105 14.3945C29.6584 14.1496 29.6584 13.75 29.2105 13.5051L20.8163 8.9326C20.3651 8.69092 19.6337 8.69092 19.1858 8.9326L10.7883 13.5051C10.3404 13.75 10.3404 14.1496 10.7883 14.3945L19.1858 18.9638C19.2985 19.0282 19.4307 19.0733 19.5724 19.1023C19.9849 19.1926 20.4811 19.1474 20.8163 18.9638L29.2105 14.3945Z" fill="#42774D"/>
<path fill-rule="evenodd" clip-rule="evenodd" d="M29.2095 16.2479L21.7465 20.2662C21.2986 20.5079 20.9313 21.1233 20.9313 21.6357V30.684C20.9313 31.1964 21.289 31.3994 21.7272 31.1352L29.232 26.6303C29.6703 26.3693 30.028 25.7377 30.028 25.2254V16.7345C30.028 16.2254 29.6606 16.0063 29.2095 16.2479Z" fill="#42774D"/>
<path fill-rule="evenodd" clip-rule="evenodd" d="M18.3427 20.3306C18.3137 20.3113 18.2847 20.292 18.2557 20.2758L10.7927 16.2447C10.3416 16.003 9.97424 16.2221 9.97424 16.7345V25.2222C9.97424 25.7313 10.3319 26.3661 10.7702 26.6271L18.2782 31.1319C18.7165 31.3962 19.0742 31.1932 19.0742 30.6808V21.6453C19.0742 21.1652 18.7519 20.6013 18.3427 20.3306Z" fill="#42774D"/>
</svg>
