<svg width="40" height="40" viewBox="0 0 40 40" fill="none" xmlns="http://www.w3.org/2000/svg">
<path fill-rule="evenodd" clip-rule="evenodd" d="M21.8972 38.0283C16.4997 38.5793 11.5178 36.7457 7.87324 33.4556L15.7456 25.464C15.8423 25.3641 15.8745 25.2191 15.8359 25.087C15.7037 24.6359 15.6232 24.2105 15.5781 23.8302C15.5394 23.5209 15.1624 23.392 14.94 23.6143L6.54882 32.1312C3.25872 28.4834 1.42516 23.5048 1.97297 18.1072C2.83659 9.65156 9.65202 2.83613 18.1109 1.97251C23.5052 1.42148 28.4871 3.25504 32.1317 6.54514L23.0831 14.8461C22.8962 15.033 22.9864 15.352 23.241 15.41C23.7179 15.5196 24.2947 15.6775 24.5848 15.7581C24.7008 15.7903 24.8232 15.7548 24.9102 15.6711L33.4561 7.86956C36.7462 11.5141 38.5798 16.496 38.0319 21.8903C37.1683 30.3492 30.3561 37.1647 21.8972 38.0283ZM20.0016 0C8.97446 0 0 8.97124 0 19.9984C0 31.0288 8.97446 40 20.0016 40C31.0288 40 40 31.0288 40 19.9984C40 8.97124 31.0288 0 20.0016 0Z" fill="#42774D"/>
<path fill-rule="evenodd" clip-rule="evenodd" d="M26.2438 27.804C26.1632 27.7396 26.0472 27.7396 25.9667 27.804C25.8958 27.862 24.2588 29.2219 24.2588 31.0393C24.2588 32.0608 25.087 32.889 26.1052 32.889C27.1235 32.889 27.9549 32.0608 27.9549 31.0393C27.9549 29.2219 26.3147 27.862 26.2438 27.804Z" fill="#42774D"/>
<path fill-rule="evenodd" clip-rule="evenodd" d="M24.16 22.5318C24.0472 22.6446 23.8957 22.7026 23.7475 22.7026C23.5992 22.7026 23.451 22.6446 23.335 22.5318L22.726 21.9195C22.4972 21.6939 22.4972 21.3234 22.726 21.0978C22.9515 20.869 23.3221 20.869 23.5477 21.0978L24.16 21.7068C24.3887 21.9356 24.3887 22.303 24.16 22.5318ZM18.1655 20.3367L15.0269 17.198L17.3148 14.9101L20.4534 18.0488L18.1655 20.3367ZM25.6551 26.9318C26.0611 26.9318 26.4413 26.7739 26.7281 26.4871C27.0117 26.2003 27.1696 25.82 27.1696 25.414C27.1696 25.0112 27.0117 24.631 26.7281 24.3442L26.1771 23.7931C26.3318 22.907 26.0514 21.995 25.4037 21.3473L18.1403 14.084L18.2241 14.0002C18.469 13.7553 18.6044 13.4298 18.6044 13.085C18.6044 12.7402 18.469 12.4147 18.2241 12.1698C17.9792 11.9249 17.657 11.7928 17.309 11.7928C16.9642 11.7928 16.6387 11.9249 16.397 12.1698L16.31 12.2568L13.6483 9.59512C13.123 9.06986 12.4238 8.77985 11.6794 8.77985C10.9382 8.77985 10.239 9.06986 9.7137 9.59512C8.62774 10.6811 8.62774 12.447 9.7137 13.5329L12.3722 16.1914L12.2884 16.2784C11.7825 16.7844 11.7825 17.6029 12.2884 18.1088C12.5301 18.3505 12.8556 18.4858 13.2004 18.4858C13.5484 18.4858 13.8706 18.3505 14.1155 18.1088L14.2025 18.0218L21.4659 25.2851C22.1684 25.9876 23.1738 26.2551 24.1147 26.0166L24.5852 26.4871C24.8688 26.7739 25.249 26.9318 25.6551 26.9318Z" fill="#42774D"/>
</svg>
