<svg width="39" height="36" viewBox="0 0 39 36" fill="none" xmlns="http://www.w3.org/2000/svg">
<path fill-rule="evenodd" clip-rule="evenodd" d="M36.3775 11.4876C40.2687 20.1573 35.8192 30.1019 26.439 33.6984C17.058 37.2949 6.29947 33.1824 2.40825 24.5119C-1.48298 15.8422 2.96655 5.89845 12.3467 2.30194C21.7268 -1.2954 32.4862 2.81795 36.3775 11.4876Z" stroke="#42774D" stroke-width="2"/>
<path fill-rule="evenodd" clip-rule="evenodd" d="M16.0928 19.0454L25.8304 22.6744C25.6094 22.1127 25.0768 20.8881 24.1764 19.5194C22.5505 17.0525 20.4859 15.2989 18.2036 14.4474C15.9197 13.5959 13.0833 13.5231 9.99965 14.2349C7.70584 14.7654 6.08319 15.5352 6.01557 15.5679C5.68247 15.7269 5.52251 16.0776 5.633 16.4016C5.65608 16.4685 6.20027 18.0452 7.40901 19.8806C9.03331 22.3475 11.0996 24.1026 13.3818 24.9526C15.6641 25.8041 18.5004 25.8769 21.5841 25.1651C22.7203 24.9021 23.6916 24.5811 24.3908 24.3195C24.7453 24.1873 25.029 24.0713 25.2302 23.9837L15.4926 20.3546C15.0902 20.206 14.9006 19.7914 15.0655 19.4288C15.232 19.0677 15.6921 18.8953 16.0928 19.0454Z" fill="#42774D"/>
<path fill-rule="evenodd" clip-rule="evenodd" d="M31.771 10.724C31.5907 10.4254 31.1932 10.2821 30.8259 10.3811C30.6204 10.4373 25.7583 11.7807 24.1596 15.1694C24.0972 15.3025 24.0416 15.4355 23.9911 15.5685C24.7071 16.2912 25.3742 17.104 25.9824 18.004C26.1778 18.2907 26.3564 18.573 26.5198 18.8435L27.6553 16.4375C27.8238 16.0783 28.2938 15.9069 28.7032 16.0562C29.1142 16.2054 29.308 16.6163 29.1395 16.9769L27.4464 20.5681C27.7581 21.2317 27.9198 21.6795 27.9518 21.7697C28.0074 21.9278 28.0394 22.0889 28.0512 22.25C29.6365 21.5155 31.6969 20.2327 32.6336 18.2449C34.2324 14.8547 31.8721 10.891 31.771 10.724Z" fill="#42774D"/>
</svg>
